# Blender v2.79 (sub 0) OBJ File: 'knife21.blend'
# www.blender.org
mtllib knife21_Blade.mtl
o Cube
v -0.026744 0.272190 0.099841
v 0.049571 0.587611 0.099841
v 0.041235 5.185134 0.096788
v -0.516510 6.823694 0.099842
v -0.376183 7.002731 0.099842
v -0.206606 6.872287 0.099842
v 0.112982 6.846199 0.099842
v 0.276036 7.002731 0.099842
v 0.406480 6.774455 0.099842
v 0.347781 6.193979 0.099842
v 0.184726 5.476538 0.099842
v 0.156135 5.207788 0.099842
v -0.480900 6.074859 0.099842
v -0.163494 5.236213 0.096276
v -0.129215 3.989478 0.099842
v -0.096997 0.563333 0.099841
v -0.236217 6.581434 0.190868
v 0.106626 6.594015 0.190868
v 0.068882 6.071887 0.190868
v -0.053786 5.634684 0.190868
v -0.192182 6.103341 0.190868
v 0.044417 3.994093 0.129847
v -0.008626 -0.008627 0.000000
v 0.112981 0.519671 0.000000
v 0.228785 5.065640 0.000000
v -0.565327 6.761410 0.000000
v -0.026744 0.272190 -0.099841
v -0.526193 6.063536 0.000000
v -0.351204 5.159414 0.000000
v -0.272938 3.984309 0.000000
v -0.173995 0.558804 0.000000
v 0.049571 0.587611 -0.099841
v 0.041235 5.185134 -0.096788
v -0.516510 6.823694 -0.099842
v -0.376183 7.002731 -0.099842
v -0.206606 6.872287 -0.099842
v 0.112982 6.846199 -0.099842
v 0.276036 7.002731 -0.099842
v 0.406480 6.774455 -0.099842
v 0.347781 6.193979 -0.099842
v 0.184726 5.476538 -0.099842
v 0.156135 5.207788 -0.099842
v -0.480900 6.074859 -0.099842
v -0.163494 5.236213 -0.096276
v -0.129215 3.989478 -0.099842
v -0.096997 0.563333 -0.099841
v -0.236217 6.581434 0.000000
v 0.106626 6.594015 0.000000
v 0.068882 6.071887 0.000000
v -0.053786 5.634684 0.000000
v -0.192182 6.103341 0.000000
v -0.236217 6.581434 -0.190868
v 0.106626 6.594015 -0.190868
v 0.068882 6.071887 -0.190868
v -0.053786 5.634684 -0.190868
v -0.192182 6.103341 -0.190868
v 0.176989 3.982456 0.000000
v 0.044417 3.994093 -0.129847
v -0.050073 7.009254 0.099842
v -0.050073 7.009254 -0.099842
vt 0.006482 0.858752
vt 0.035534 0.728354
vt 0.066022 0.739991
vt 0.021787 0.861775
vt 0.042191 0.560359
vt 0.047835 0.078056
vt 0.065680 0.080343
vt 0.067169 0.560767
vt 0.006310 0.957356
vt 0.022561 0.965840
vt 0.102249 0.072277
vt 0.086167 0.083491
vt 0.075218 0.044762
vt 0.075477 0.006310
vt 0.118793 0.558932
vt 0.092335 0.560964
vt 0.082930 0.839589
vt 0.085754 0.801468
vt 0.120598 0.856945
vt 0.099716 0.862801
vt 0.101606 0.901843
vt 0.118913 0.925690
vt 0.062292 0.925431
vt 0.080199 0.905992
vt 0.054395 0.864157
vt 0.074933 0.868115
vt 0.117969 0.968286
vt 0.067183 0.971507
vt 0.043424 0.990914
vt 0.163813 0.959458
vt 0.141936 0.993690
vt 0.160665 0.868959
vt 0.117861 0.770148
vt 0.111292 0.733314
vt 0.125190 0.713761
vt 0.095024 0.731058
vt 0.007002 0.858812
vt 0.022313 0.861809
vt 0.066335 0.739948
vt 0.035827 0.728365
vt 0.067169 0.560723
vt 0.064842 0.080302
vt 0.046993 0.078046
vt 0.007002 0.957416
vt 0.023268 0.965872
vt 0.101398 0.072172
vt 0.074510 0.006250
vt 0.074318 0.044704
vt 0.085336 0.083415
vt 0.118790 0.558798
vt 0.092336 0.560877
vt 0.083417 0.839516
vt 0.100243 0.862699
vt 0.121115 0.856806
vt 0.086175 0.801391
vt 0.102201 0.901738
vt 0.080802 0.905924
vt 0.062929 0.925394
vt 0.119550 0.925553
vt 0.075470 0.868056
vt 0.054925 0.864134
vt 0.067900 0.971461
vt 0.118680 0.968151
vt 0.044175 0.990909
vt 0.142691 0.993514
vt 0.164509 0.959244
vt 0.161203 0.868750
vt 0.118227 0.770014
vt 0.111594 0.733192
vt 0.125457 0.713615
vt 0.095321 0.730964
vt 0.091627 0.993690
vt 0.092383 0.993601
vn -0.5961 -0.1700 0.7847
vn -0.6705 -0.0128 0.7418
vn -0.5051 -0.0222 0.8628
vn -0.8969 -0.0463 0.4398
vn 0.7616 -0.1787 0.6230
vn 0.7591 -0.0093 0.6509
vn -0.8039 -0.2206 0.5523
vn -0.9628 0.2701 0.0000
vn 0.0367 -0.9993 0.0000
vn 0.9958 0.0917 0.0000
vn 0.9591 0.2832 0.0000
vn -0.9974 0.0721 0.0000
vn 0.0065 0.3175 0.9482
vn -0.0315 0.2011 0.9791
vn 0.0484 0.1980 0.9790
vn -0.3115 -0.0202 0.9500
vn 0.3129 -0.0274 0.9494
vn -0.3173 -0.1132 0.9415
vn 0.3258 -0.0806 0.9420
vn 0.1004 -0.1600 0.9820
vn 0.5777 -0.0005 0.8163
vn -0.0159 -0.0538 0.9984
vn -0.0787 0.0138 0.9968
vn -0.0929 -0.0049 0.9957
vn -0.0000 -0.0000 1.0000
vn -0.5961 -0.1700 -0.7847
vn -0.6705 -0.0128 -0.7418
vn -0.5051 -0.0222 -0.8628
vn -0.8969 -0.0463 -0.4398
vn 0.7616 -0.1787 -0.6230
vn 0.7591 -0.0093 -0.6509
vn -0.8039 -0.2206 -0.5523
vn 0.0065 0.3175 -0.9482
vn -0.0315 0.2011 -0.9791
vn 0.0484 0.1980 -0.9790
vn -0.3115 -0.0202 -0.9500
vn 0.3129 -0.0274 -0.9494
vn -0.3173 -0.1132 -0.9415
vn 0.3258 -0.0806 -0.9420
vn 0.1004 -0.1600 -0.9820
vn 0.5777 -0.0005 -0.8163
vn -0.0159 -0.0538 -0.9984
vn -0.0787 0.0138 -0.9968
vn -0.0929 -0.0049 -0.9957
vn -0.0000 -0.0000 -1.0000
usemtl Material
s off
f 28/1/1 29/2/1 14/3/1 13/4/1
f 30/5/2 31/6/2 16/7/2 15/8/2
f 29/2/3 30/5/3 15/8/3 14/3/3
f 26/9/4 28/1/4 13/4/4 4/10/4
f 24/11/5 2/12/5 1/13/5 23/14/5
f 57/15/6 22/16/6 2/12/6 24/11/6
f 31/6/7 23/14/7 1/13/7 16/7/7
f 50/17/8 20/18/8 19/19/8 49/20/8
f 48/21/9 18/22/9 17/23/9 47/24/9
f 47/24/10 17/23/10 21/25/10 51/26/10
f 51/26/11 21/25/11 20/18/11 50/17/11
f 49/20/12 19/19/12 18/22/12 48/21/12
f 18/22/13 7/27/13 6/28/13 17/23/13
f 17/23/14 6/28/14 5/29/14 4/10/14
f 7/27/15 18/22/15 9/30/15 8/31/15
f 4/10/16 13/4/16 21/25/16 17/23/16
f 9/30/17 18/22/17 19/19/17 10/32/17
f 13/4/18 14/3/18 20/18/18 21/25/18
f 10/32/19 19/19/19 20/18/19 11/33/19
f 14/3/20 12/34/20 11/33/20 20/18/20
f 25/35/21 3/36/21 22/16/21 57/15/21
f 14/3/22 3/36/22 12/34/22
f 15/8/23 22/16/23 3/36/23 14/3/23
f 2/12/24 22/16/24 15/8/24 16/7/24
f 1/13/25 2/12/25 16/7/25
f 28/37/26 43/38/26 44/39/26 29/40/26
f 30/5/27 45/41/27 46/42/27 31/43/27
f 29/40/28 44/39/28 45/41/28 30/5/28
f 26/44/29 34/45/29 43/38/29 28/37/29
f 24/46/30 23/47/30 27/48/30 32/49/30
f 57/50/31 24/46/31 32/49/31 58/51/31
f 31/43/32 46/42/32 27/48/32 23/47/32
f 50/52/8 49/53/8 54/54/8 55/55/8
f 48/56/9 47/57/9 52/58/9 53/59/9
f 47/57/10 51/60/10 56/61/10 52/58/10
f 51/60/11 50/52/11 55/55/11 56/61/11
f 49/53/12 48/56/12 53/59/12 54/54/12
f 53/59/33 52/58/33 36/62/33 37/63/33
f 52/58/34 34/45/34 35/64/34 36/62/34
f 37/63/35 38/65/35 39/66/35 53/59/35
f 34/45/36 52/58/36 56/61/36 43/38/36
f 39/66/37 40/67/37 54/54/37 53/59/37
f 43/38/38 56/61/38 55/55/38 44/39/38
f 40/67/39 41/68/39 55/55/39 54/54/39
f 44/39/40 55/55/40 41/68/40 42/69/40
f 25/70/41 57/50/41 58/51/41 33/71/41
f 44/39/42 42/69/42 33/71/42
f 45/41/43 44/39/43 33/71/43 58/51/43
f 32/49/44 46/42/44 45/41/44 58/51/44
f 27/48/45 46/42/45 32/49/45
f 7/27/25 59/72/25 6/28/25
f 37/63/45 36/62/45 60/73/45
