# Blender v2.79 (sub 0) OBJ File: 'knife10.blend'
# www.blender.org
mtllib knife10_Blade.mtl
o Cube
v 0.345877 3.430403 0.132582
v 0.004321 3.365895 0.111643
v 0.358953 3.374361 0.111643
v 0.392815 1.468034 0.111643
v 0.358953 0.943173 0.111643
v 0.070721 0.892275 0.111643
v -0.074143 1.239466 0.111643
v 0.113682 0.436625 0.111643
v 0.239170 0.532331 0.111643
v -0.032550 3.230557 0.111643
v 0.007920 3.107742 0.111643
v -0.036782 2.996967 0.111643
v 0.283849 3.577017 0.120296
v -0.221820 3.582656 0.153992
v -0.221820 3.582656 0.000000
v 0.283849 3.577017 0.000000
v 0.345877 3.430403 0.000000
v -0.165085 3.368374 0.000000
v 0.458657 3.379653 0.000000
v 0.503769 1.372173 0.000000
v 0.458657 0.672939 0.000000
v -0.024455 0.652223 0.000000
v -0.233098 1.067668 0.000000
v -0.003740 -0.001899 0.000000
v 0.278210 0.193625 0.000000
v -0.224639 3.231642 0.000000
v -0.170724 3.113472 0.000000
v -0.230278 2.995302 0.000000
v 0.345877 3.430403 -0.132582
v 0.004321 3.365895 -0.111643
v 0.358953 3.374361 -0.111643
v 0.392815 1.468034 -0.111643
v 0.358953 0.943173 -0.111643
v 0.070721 0.892275 -0.111643
v -0.074143 1.239466 -0.111643
v 0.113682 0.436625 -0.111643
v 0.239170 0.532331 -0.111643
v -0.032550 3.230557 -0.111643
v 0.007920 3.107742 -0.111643
v -0.036782 2.996967 -0.111643
v 0.283849 3.577017 -0.120296
v -0.221820 3.582656 -0.153992
vt 0.207680 0.078135
vt 0.194794 0.165203
vt 0.164610 0.141957
vt 0.141854 0.032891
vt 0.070089 0.300926
vt 0.117824 0.191918
vt 0.152309 0.254683
vt 0.119185 0.345305
vt 0.067351 0.801282
vt 0.107719 0.785877
vt 0.274754 0.898596
vt 0.235173 0.902408
vt 0.234746 0.401711
vt 0.274754 0.376458
vt 0.260277 0.924893
vt 0.245614 0.912409
vt 0.052423 0.949901
vt 0.082511 0.901497
vt 0.139368 0.902190
vt 0.086050 0.970803
vt 0.068170 0.865544
vt 0.129759 0.862981
vt 0.248262 0.963486
vt 0.219099 0.954407
vt 0.226023 0.269898
vt 0.258112 0.195337
vt 0.078187 0.833287
vt 0.121041 0.832568
vt 0.164610 0.141957
vt 0.194794 0.165203
vt 0.119185 0.345305
vt 0.152309 0.254683
vt 0.107719 0.785877
vt 0.234746 0.401711
vt 0.235173 0.902408
vt 0.245614 0.912409
vt 0.086050 0.970803
vt 0.139368 0.902190
vt 0.129759 0.862981
vt 0.219099 0.954407
vt 0.226023 0.269898
vt 0.121041 0.832568
vn 0.2068 -0.2894 0.9346
vn -0.4391 -0.2035 0.8751
vn -0.5372 0.0059 0.8434
vn 0.7303 0.0147 0.6830
vn 0.6478 0.7086 0.2798
vn -0.7228 -0.5192 0.4561
vn -0.5154 0.1827 0.8373
vn 0.9210 0.3896 0.0000
vn 0.6892 -0.0445 0.7232
vn 0.5354 -0.1806 0.8251
vn -0.4992 0.2273 0.8361
vn -0.6634 -0.0381 0.7473
vn -0.5083 -0.1991 0.8379
vn -0.0000 -0.0000 1.0000
vn 0.0083 -0.3483 0.9374
vn 0.0197 -0.0669 0.9976
vn 0.2068 -0.2894 -0.9346
vn -0.4391 -0.2035 -0.8751
vn -0.5372 0.0059 -0.8434
vn 0.7303 0.0147 -0.6830
vn 0.6478 0.7086 -0.2798
vn -0.7228 -0.5192 -0.4561
vn -0.5154 0.1827 -0.8373
vn 0.6892 -0.0445 -0.7232
vn 0.5354 -0.1806 -0.8251
vn -0.4992 0.2273 -0.8361
vn -0.6634 -0.0381 -0.7473
vn -0.5083 -0.1991 -0.8379
vn -0.0000 -0.0000 -1.0000
vn 0.0083 -0.3483 -0.9374
vn 0.0197 -0.0669 -0.9976
usemtl Material
s off
f 25/1/1 9/2/1 8/3/1 24/4/1
f 23/5/2 22/6/2 6/7/2 7/8/2
f 28/9/3 23/5/3 7/8/3 12/10/3
f 19/11/4 3/12/4 4/13/4 20/14/4
f 17/15/5 1/16/5 3/12/5 19/11/5
f 15/17/6 18/18/6 2/19/6 14/20/6
f 18/18/7 26/21/7 10/22/7 2/19/7
f 16/23/8 13/24/8 1/16/8 17/15/8
f 20/14/9 4/13/9 5/25/9 21/26/9
f 21/26/10 5/25/10 9/2/10 25/1/10
f 27/27/11 28/9/11 12/10/11 11/28/11
f 24/4/12 8/3/12 6/7/12 22/6/12
f 26/21/13 27/27/13 11/28/13 10/22/13
f 12/10/14 7/8/14 6/7/14 8/3/14 9/2/14 5/25/14 4/13/14 3/12/14 2/19/14 10/22/14 11/28/14
f 3/12/15 1/16/15 2/19/15
f 2/19/16 1/16/16 13/24/16 14/20/16
f 25/1/17 24/4/17 36/29/17 37/30/17
f 23/5/18 35/31/18 34/32/18 22/6/18
f 28/9/19 40/33/19 35/31/19 23/5/19
f 19/11/20 20/14/20 32/34/20 31/35/20
f 17/15/21 19/11/21 31/35/21 29/36/21
f 15/17/22 42/37/22 30/38/22 18/18/22
f 18/18/23 30/38/23 38/39/23 26/21/23
f 16/23/8 17/15/8 29/36/8 41/40/8
f 20/14/24 21/26/24 33/41/24 32/34/24
f 21/26/25 25/1/25 37/30/25 33/41/25
f 27/27/26 39/42/26 40/33/26 28/9/26
f 24/4/27 22/6/27 34/32/27 36/29/27
f 26/21/28 38/39/28 39/42/28 27/27/28
f 40/33/29 39/42/29 38/39/29 30/38/29 31/35/29 32/34/29 33/41/29 37/30/29 36/29/29 34/32/29 35/31/29
f 31/35/30 30/38/30 29/36/30
f 30/38/31 42/37/31 41/40/31 29/36/31
