# Blender v2.79 (sub 0) OBJ File: 'knife28.blend'
# www.blender.org
mtllib knife28_Holder.mtl
o Cube.001_Cube.003
v 0.149607 2.193266 0.231798
v 0.153418 5.324077 0.231798
v 0.000000 1.603928 0.231798
v 0.000000 2.015600 0.231798
v -0.149607 2.193266 0.231798
v 0.000000 2.590797 0.103288
v 0.000000 4.933030 0.138164
v -0.153418 5.324077 0.231798
v 0.000000 5.646939 0.126460
v 0.000000 5.953680 0.126460
v 0.160943 1.626375 0.000000
v 0.148822 1.981930 0.000000
v 0.298316 2.196072 0.000000
v 0.124579 2.385971 0.000000
v 0.103634 4.913389 0.000000
v 0.257234 5.290407 0.000000
v 0.131561 5.548735 0.000000
v 0.166470 5.953680 0.000000
v 0.149607 2.193266 -0.231798
v 0.153418 5.324077 -0.231798
v -0.160943 1.626375 0.000000
v -0.148822 1.981930 0.000000
v -0.298316 2.196072 0.000000
v -0.124579 2.385971 0.000000
v -0.103634 4.913389 0.000000
v -0.257234 5.290407 0.000000
v -0.131561 5.548735 0.000000
v -0.166470 5.953680 0.000000
v 0.000000 6.700735 0.000000
v 0.000000 1.603928 -0.231798
v 0.000000 2.015600 -0.231798
v -0.149607 2.193266 -0.231798
v 0.000000 2.590797 -0.103288
v 0.000000 4.933030 -0.138164
v -0.153418 5.324077 -0.231798
v 0.000000 5.646939 -0.126460
v 0.000000 5.953680 -0.126460
vt 0.962366 0.107427
vt 0.929536 0.105030
vt 0.912238 0.080340
vt 0.951105 0.073558
vt 0.944999 0.137315
vt 0.911181 0.169895
vt 0.935915 0.641721
vt 0.905538 0.647785
vt 0.962366 0.704580
vt 0.926549 0.709540
vt 0.944216 0.751859
vt 0.904159 0.764544
vt 0.940639 0.830717
vt 0.903416 0.827460
vt 0.901819 0.962704
vt 0.912931 0.021671
vt 0.951811 0.024566
vt 0.861485 0.106236
vt 0.873543 0.072643
vt 0.894363 0.104615
vt 0.878142 0.136525
vt 0.875313 0.641006
vt 0.847385 0.703222
vt 0.883075 0.709027
vt 0.864413 0.750916
vt 0.866126 0.829837
vt 0.873994 0.023647
vt 0.861485 0.106236
vt 0.873543 0.072643
vt 0.912238 0.080340
vt 0.894363 0.104615
vt 0.878142 0.136525
vt 0.911181 0.169895
vt 0.875313 0.641006
vt 0.905538 0.647785
vt 0.847385 0.703222
vt 0.883075 0.709027
vt 0.864413 0.750917
vt 0.904160 0.764544
vt 0.866127 0.829837
vt 0.903417 0.827460
vt 0.873994 0.023647
vt 0.912931 0.021671
vt 0.962366 0.107427
vt 0.929536 0.105030
vt 0.951105 0.073558
vt 0.944999 0.137315
vt 0.935915 0.641721
vt 0.962366 0.704580
vt 0.926549 0.709540
vt 0.944217 0.751859
vt 0.940640 0.830717
vt 0.951811 0.024566
vn 0.6963 -0.5316 0.4823
vn 0.7912 0.5095 0.3381
vn 0.7259 -0.0018 0.6878
vn 0.7849 -0.3740 0.4940
vn 0.8116 0.4559 0.3654
vn 0.6407 -0.0314 0.7672
vn 0.5995 0.1336 0.7892
vn 0.8315 0.0131 0.5553
vn -0.5462 0.0137 0.8376
vn -0.2507 0.2111 0.9448
vn -0.6963 -0.5316 0.4823
vn -0.7912 0.5095 0.3381
vn -0.7259 -0.0018 0.6878
vn -0.7849 -0.3740 0.4940
vn -0.8116 0.4559 0.3654
vn -0.6407 -0.0314 0.7672
vn -0.5995 0.1336 0.7892
vn -0.8315 0.0131 0.5553
vn 0.5462 0.0137 0.8376
vn 0.2507 0.2111 0.9448
vn 0.6963 -0.5316 -0.4823
vn 0.7912 0.5095 -0.3381
vn 0.7259 -0.0018 -0.6878
vn 0.7849 -0.3740 -0.4940
vn 0.8116 0.4559 -0.3654
vn 0.6407 -0.0314 -0.7672
vn 0.5995 0.1336 -0.7892
vn 0.8315 0.0131 -0.5553
vn -0.5462 0.0137 -0.8376
vn -0.2507 0.2111 -0.9448
vn -0.6963 -0.5316 -0.4823
vn -0.7912 0.5095 -0.3381
vn -0.7259 -0.0018 -0.6878
vn -0.7849 -0.3740 -0.4940
vn -0.8116 0.4559 -0.3654
vn -0.6407 -0.0314 -0.7672
vn -0.5995 0.1336 -0.7892
vn -0.8315 0.0131 -0.5553
vn 0.5462 0.0137 -0.8376
vn 0.2507 0.2111 -0.9448
usemtl Material.001
s off
f 13/1/1 1/2/1 4/3/1 12/4/1
f 14/5/2 6/6/2 1/2/2 13/1/2
f 15/7/3 7/8/3 6/6/3 14/5/3
f 16/9/4 2/10/4 7/8/4 15/7/4
f 17/11/5 9/12/5 2/10/5 16/9/5
f 18/13/6 10/14/6 9/12/6 17/11/6
f 18/13/7 29/15/7 10/14/7
f 12/4/8 4/3/8 3/16/8 11/17/8
f 2/10/9 9/12/9 7/8/9
f 1/2/10 6/6/10 4/3/10
f 23/18/11 22/19/11 4/3/11 5/20/11
f 24/21/12 23/18/12 5/20/12 6/6/12
f 25/22/13 24/21/13 6/6/13 7/8/13
f 26/23/14 25/22/14 7/8/14 8/24/14
f 27/25/15 26/23/15 8/24/15 9/12/15
f 28/26/16 27/25/16 9/12/16 10/14/16
f 28/26/17 10/14/17 29/15/17
f 22/19/18 21/27/18 3/16/18 4/3/18
f 8/24/19 7/8/19 9/12/19
f 5/20/20 4/3/20 6/6/20
f 13/28/21 12/29/21 31/30/21 19/31/21
f 14/32/22 13/28/22 19/31/22 33/33/22
f 15/34/23 14/32/23 33/33/23 34/35/23
f 16/36/24 15/34/24 34/35/24 20/37/24
f 17/38/25 16/36/25 20/37/25 36/39/25
f 18/40/26 17/38/26 36/39/26 37/41/26
f 18/40/27 37/41/27 29/15/27
f 12/29/28 11/42/28 30/43/28 31/30/28
f 20/37/29 34/35/29 36/39/29
f 19/31/30 31/30/30 33/33/30
f 23/44/31 32/45/31 31/30/31 22/46/31
f 24/47/32 33/33/32 32/45/32 23/44/32
f 25/48/33 34/35/33 33/33/33 24/47/33
f 26/49/34 35/50/34 34/35/34 25/48/34
f 27/51/35 36/39/35 35/50/35 26/49/35
f 28/52/36 37/41/36 36/39/36 27/51/36
f 28/52/37 29/15/37 37/41/37
f 22/46/38 31/30/38 30/43/38 21/53/38
f 35/50/39 36/39/39 34/35/39
f 32/45/40 33/33/40 31/30/40
