# Blender v2.79 (sub 0) OBJ File: 'knife8.blend'
# www.blender.org
mtllib knife8_Blade.mtl
o Cube_Cube.004
v 0.168877 3.030034 0.130744
v 0.174630 2.865054 0.130744
v 0.214621 2.811733 0.130744
v 0.245506 0.819533 0.099146
v 0.074506 0.787724 0.099147
v -0.081916 1.425714 0.130743
v 0.092010 0.378521 0.054012
v 0.185731 0.424553 0.054011
v -0.058211 3.030034 0.130744
v 0.300766 3.030034 0.000000
v 0.312044 2.860865 0.000000
v 0.362795 2.793197 0.000000
v 0.385351 0.684217 0.000000
v -0.047011 0.714251 0.000000
v -0.233098 1.366534 0.000000
v -0.020656 0.037573 0.000000
v 0.255654 0.278210 0.000000
v -0.182307 3.046011 0.000000
v 0.168877 3.030034 -0.130744
v 0.174630 2.865054 -0.130744
v 0.214621 2.811733 -0.130744
v 0.245506 0.819533 -0.099146
v 0.074506 0.787724 -0.099147
v -0.081916 1.425714 -0.130743
v 0.092010 0.378521 -0.054012
v 0.185731 0.424553 -0.054011
v -0.058211 3.030034 -0.130744
vt 0.232023 0.223880
vt 0.175726 0.270422
vt 0.157358 0.136275
vt 0.184792 0.085148
vt 0.213558 0.943985
vt 0.149400 0.939933
vt 0.162257 0.921124
vt 0.227936 0.918725
vt 0.093605 0.000096
vt 0.129434 0.119644
vt 0.116121 0.258426
vt 0.068514 0.228804
vt -0.001295 0.447887
vt 0.064228 0.470337
vt 0.070998 0.994109
vt 0.011036 0.999411
vt 0.208643 0.998752
vt 0.147348 0.995118
vt 0.157358 0.136275
vt 0.175726 0.270422
vt 0.162257 0.921124
vt 0.149400 0.939933
vt 0.116121 0.258426
vt 0.129434 0.119644
vt 0.070998 0.994109
vt 0.064228 0.470337
vt 0.147348 0.995118
vn 0.4396 -0.1538 0.8849
vn 0.6181 0.4636 0.6348
vn -0.4756 -0.0557 0.8779
vn -0.6899 0.0157 0.7237
vn 0.6245 0.0021 0.7810
vn 0.1764 -0.2278 0.9576
vn -0.5837 -0.1744 0.7930
vn 0.6965 0.0355 0.7167
vn 0.0000 -0.0000 1.0000
vn 0.0333 -0.1132 0.9930
vn 0.0598 -0.0197 0.9980
vn 0.4396 -0.1538 -0.8849
vn 0.6181 0.4636 -0.6348
vn -0.4756 -0.0557 -0.8779
vn -0.6899 0.0157 -0.7237
vn 0.6245 0.0021 -0.7810
vn 0.1764 -0.2278 -0.9576
vn -0.5837 -0.1744 -0.7930
vn 0.6965 0.0355 -0.7167
vn 0.0000 -0.0000 -1.0000
vn 0.0333 -0.1132 -0.9930
vn 0.0598 -0.0197 -0.9980
usemtl Material.003
s off
f 13/1/1 4/2/1 8/3/1 17/4/1
f 11/5/2 2/6/2 3/7/2 12/8/2
f 16/9/3 7/10/3 5/11/3 14/12/3
f 15/13/4 6/14/4 9/15/4 18/16/4
f 12/8/5 3/7/5 4/2/5 13/1/5
f 17/4/6 8/3/6 7/10/6 16/9/6
f 15/13/7 14/12/7 5/11/7 6/14/7
f 10/17/8 1/18/8 2/6/8 11/5/8
f 1/18/9 9/15/9 6/14/9 2/6/9
f 2/6/9 6/14/9 3/7/9
f 4/2/10 5/11/10 7/10/10 8/3/10
f 3/7/11 6/14/11 5/11/11 4/2/11
f 13/1/12 17/4/12 26/19/12 22/20/12
f 11/5/13 12/8/13 21/21/13 20/22/13
f 16/9/14 14/12/14 23/23/14 25/24/14
f 15/13/15 18/16/15 27/25/15 24/26/15
f 12/8/16 13/1/16 22/20/16 21/21/16
f 17/4/17 16/9/17 25/24/17 26/19/17
f 15/13/18 24/26/18 23/23/18 14/12/18
f 10/17/19 11/5/19 20/22/19 19/27/19
f 19/27/20 20/22/20 24/26/20 27/25/20
f 20/22/20 21/21/20 24/26/20
f 22/20/21 26/19/21 25/24/21 23/23/21
f 21/21/22 22/20/22 23/23/22 24/26/22
