# Blender v2.79 (sub 0) OBJ File: 'knife24.blend'
# www.blender.org
mtllib knife24_Holder.mtl
o Cube.001_Cube.003
v -0.027116 3.178872 0.302811
v 0.715607 3.143195 0.248514
v 0.459688 2.882000 0.155153
v 0.179666 2.408776 0.243079
v 0.312801 3.390428 0.242198
v 0.386127 3.820303 0.146160
v 0.343057 4.279851 0.154958
v 0.402239 4.540486 0.222093
v 0.732484 4.436239 0.250712
v 0.525944 4.255139 0.137022
v 0.489883 3.758832 0.129126
v 0.505864 3.410172 0.241285
v 0.399957 2.891450 0.249694
v 0.163533 2.343485 0.184895
v 0.755817 3.139204 0.178949
v -0.053045 3.186850 0.000000
v 0.155404 2.329231 0.000000
v 0.755817 3.139204 0.000000
v 0.238784 3.389344 0.000000
v 0.357499 3.822423 0.000000
v 0.291216 4.311108 -0.000000
v 0.381720 4.592392 0.000000
v 0.822441 4.467323 0.000000
v 0.573980 4.266460 -0.000000
v 0.494271 3.804187 0.000000
v 0.572302 3.389343 0.000000
v -0.027116 3.178872 -0.302811
v 0.715607 3.143195 -0.248514
v 0.459688 2.882000 -0.155153
v 0.179666 2.408776 -0.243079
v 0.312801 3.390428 -0.242198
v 0.386127 3.820303 -0.146160
v 0.343057 4.279851 -0.154958
v 0.402239 4.540486 -0.222093
v 0.732484 4.436239 -0.250712
v 0.525944 4.255139 -0.137022
v 0.489883 3.758832 -0.129126
v 0.505864 3.410172 -0.241285
v 0.399957 2.891450 -0.249694
v 0.163533 2.343485 -0.184895
v 0.755817 3.139204 -0.178949
vt 0.515993 0.943346
vt 0.586479 0.893354
vt 0.601369 0.806883
vt 0.518438 0.805910
vt 0.645697 0.564281
vt 0.566151 0.592639
vt 0.661958 0.392302
vt 0.540413 0.408473
vt 0.969125 0.324337
vt 0.870172 0.297616
vt 0.774288 0.394048
vt 0.894447 0.456348
vt 0.709427 0.607989
vt 0.803838 0.633880
vt 0.577449 0.273709
vt 0.509876 0.291323
vt 0.700053 0.824445
vt 0.779364 0.863494
vt 0.666542 0.896698
vt 0.697908 0.973585
vt 0.858173 0.072931
vt 0.879192 0.034482
vt 0.731021 0.185132
vt 0.618820 0.276535
vt 0.941714 0.024678
vt 0.693396 0.158471
vt 0.601369 0.806883
vt 0.586479 0.893354
vt 0.645697 0.564281
vt 0.661958 0.392302
vt 0.774288 0.394048
vt 0.870172 0.297616
vt 0.709427 0.607989
vt 0.577449 0.273709
vt 0.700053 0.824445
vt 0.666542 0.896698
vt 0.858173 0.072931
vt 0.879192 0.034482
vt 0.731021 0.185132
vt 0.618820 0.276535
vt 0.693396 0.158471
vn 0.6171 -0.7752 0.1348
vn 0.9786 -0.1196 0.1673
vn 0.9695 0.1481 0.1952
vn -0.5375 0.8361 0.1092
vn -0.9392 0.2367 0.2489
vn 0.7709 0.6304 0.0906
vn -0.9629 -0.1133 0.2448
vn -0.9445 0.2321 0.2325
vn 0.2720 0.9402 0.2050
vn -0.8158 -0.2592 0.5170
vn 0.1138 -0.0145 0.9934
vn -0.0051 0.0172 0.9998
vn -0.9698 -0.2335 0.0707
vn 0.7211 0.5769 0.3837
vn 0.5749 -0.7092 0.4082
vn 0.8107 -0.4003 0.4273
vn 0.0935 0.2508 0.9635
vn 0.1162 -0.0165 0.9931
vn -0.1011 -0.3242 0.9406
vn 0.6171 -0.7752 -0.1348
vn 0.9786 -0.1196 -0.1673
vn 0.9695 0.1481 -0.1952
vn -0.5375 0.8361 -0.1092
vn -0.9392 0.2367 -0.2489
vn 0.7709 0.6304 -0.0906
vn -0.9629 -0.1133 -0.2448
vn -0.9445 0.2321 -0.2325
vn 0.2720 0.9402 -0.2050
vn -0.8158 -0.2592 -0.5170
vn 0.1138 -0.0145 -0.9934
vn -0.0051 0.0172 -0.9998
vn -0.9698 -0.2335 -0.0707
vn 0.7211 0.5769 -0.3837
vn 0.5749 -0.7092 -0.4082
vn 0.8107 -0.4003 -0.4273
vn 0.0935 0.2508 -0.9635
vn 0.1162 -0.0165 -0.9931
vn -0.1011 -0.3242 -0.9406
usemtl Material.002
s off
f 23/1/1 9/2/1 10/3/1 24/4/1
f 24/4/2 10/3/2 11/5/2 25/6/2
f 25/6/3 11/5/3 12/7/3 26/8/3
f 16/9/4 1/10/4 5/11/4 19/12/4
f 19/12/5 5/11/5 6/13/5 20/14/5
f 26/8/6 12/7/6 15/15/6 18/16/6
f 20/14/7 6/13/7 7/17/7 21/18/7
f 21/18/8 7/17/8 8/19/8 22/20/8
f 22/20/9 8/19/9 9/2/9 23/1/9
f 4/21/10 1/10/10 14/22/10
f 4/21/11 13/23/11 5/11/11 1/10/11
f 2/24/12 12/7/12 5/11/12 13/23/12
f 14/22/13 1/10/13 16/9/13 17/25/13
f 15/15/14 12/7/14 2/24/14
f 13/23/15 3/26/15 15/15/15 2/24/15
f 13/23/16 4/21/16 14/22/16 3/26/16
f 5/11/17 12/7/17 11/5/17 6/13/17
f 6/13/18 11/5/18 10/3/18 7/17/18
f 7/17/19 10/3/19 9/2/19 8/19/19
f 23/1/20 24/4/20 36/27/20 35/28/20
f 24/4/21 25/6/21 37/29/21 36/27/21
f 25/6/22 26/8/22 38/30/22 37/29/22
f 16/9/23 19/12/23 31/31/23 27/32/23
f 19/12/24 20/14/24 32/33/24 31/31/24
f 26/8/25 18/16/25 41/34/25 38/30/25
f 20/14/26 21/18/26 33/35/26 32/33/26
f 21/18/27 22/20/27 34/36/27 33/35/27
f 22/20/28 23/1/28 35/28/28 34/36/28
f 30/37/29 40/38/29 27/32/29
f 30/37/30 27/32/30 31/31/30 39/39/30
f 28/40/31 39/39/31 31/31/31 38/30/31
f 40/38/32 17/25/32 16/9/32 27/32/32
f 41/34/33 28/40/33 38/30/33
f 39/39/34 28/40/34 41/34/34 29/41/34
f 39/39/35 29/41/35 40/38/35 30/37/35
f 31/31/36 32/33/36 37/29/36 38/30/36
f 32/33/37 33/35/37 36/27/37 37/29/37
f 33/35/38 34/36/38 35/28/38 36/27/38
