# Blender v2.79 (sub 0) OBJ File: 'knife5.blend'
# www.blender.org
mtllib knife5_Holder.mtl
o Cube.001_Cube.007
v -0.577501 3.575674 0.127111
v -0.606870 3.632389 0.127111
v 0.107396 3.575674 0.127111
v 0.153082 3.629126 0.127111
v 0.489200 3.655232 0.151560
v 0.587099 3.586703 0.151560
v 0.671944 3.691128 0.151560
v 0.580572 3.785763 0.151561
v 0.489200 3.713971 0.151561
v 0.156345 3.733551 0.127111
v 0.063541 3.777605 0.093045
v -0.537301 3.777605 0.093045
v -0.988674 3.648705 0.151560
v -1.089836 3.583440 0.151560
v -1.204051 3.671548 0.151560
v -1.099626 3.795553 0.151561
v -0.988674 3.707444 0.151560
v -0.610134 3.736814 0.127111
v 0.587099 3.586703 0.093663
v 0.671944 3.691128 0.093663
v 0.580572 3.785763 0.093663
v 0.484305 3.713971 0.093663
v 0.489200 3.655232 0.093663
v -0.988674 3.648705 0.085442
v -1.089836 3.583440 0.085442
v -1.204051 3.671548 0.085442
v -1.099626 3.795553 0.085442
v -0.987043 3.707444 0.085442
v -0.571367 3.777605 0.127111
v 0.097606 3.777605 0.127111
v -0.488495 3.827440 0.085487
v 0.014735 3.827440 0.085487
v -0.467369 4.894142 0.081898
v -0.006392 4.894142 0.081898
v -0.029998 5.078268 0.080212
v -0.160617 5.292295 0.080212
v -0.358907 5.367834 0.080212
v -0.607556 5.254526 0.080212
v -0.609130 5.075121 0.080212
v -0.465503 4.949223 0.080212
v -0.577501 3.575674 0.000000
v -0.606870 3.632389 0.000000
v 0.107396 3.575674 0.000000
v 0.153082 3.629126 0.000000
v 0.489200 3.655232 0.000000
v 0.587099 3.586703 0.000000
v 0.671944 3.691128 0.000000
v 0.580572 3.785763 0.000000
v 0.479410 3.713971 0.000000
v 0.156345 3.733551 0.000000
v 0.097606 3.777605 0.000000
v -0.571367 3.777605 0.000000
v -0.988674 3.648705 0.000000
v -1.089836 3.583440 0.000000
v -1.204051 3.671548 0.000000
v -1.099626 3.795553 0.000000
v -0.985411 3.707444 0.000000
v -0.610134 3.736814 0.000000
v -0.577501 3.575674 -0.127111
v -0.606870 3.632389 -0.127111
v 0.107396 3.575674 -0.127111
v 0.153082 3.629126 -0.127111
v 0.489200 3.655232 -0.151560
v 0.587099 3.586703 -0.151560
v 0.671944 3.691128 -0.151560
v 0.580572 3.785763 -0.151561
v 0.489200 3.713971 -0.151561
v 0.156345 3.733551 -0.127111
v 0.063541 3.777605 -0.093045
v -0.537301 3.777605 -0.093045
v -0.988674 3.648705 -0.151560
v -1.089836 3.583440 -0.151560
v -1.204051 3.671548 -0.151560
v -1.099626 3.795553 -0.151561
v -0.988674 3.707444 -0.151560
v -0.610134 3.736814 -0.127111
v 0.587099 3.586703 -0.093663
v 0.671944 3.691128 -0.093663
v 0.580572 3.785763 -0.093663
v 0.484305 3.713971 -0.093663
v 0.489200 3.655232 -0.093663
v -0.988674 3.648705 -0.085442
v -1.089836 3.583440 -0.085442
v -1.204051 3.671548 -0.085442
v -1.099626 3.795553 -0.085442
v -0.987043 3.707444 -0.085442
v -0.537301 3.777605 0.000000
v -0.571367 3.777605 -0.127111
v 0.063541 3.777605 0.000000
v 0.097606 3.777605 -0.127111
v -0.488495 3.827440 0.000000
v 0.014735 3.827440 0.000000
v -0.488495 3.827440 -0.085487
v 0.014735 3.827440 -0.085487
v -0.467369 4.894142 0.000000
v -0.006392 4.894142 0.000000
v -0.467369 4.894142 -0.081898
v -0.006392 4.894142 -0.081898
v -0.029998 5.078268 0.000000
v -0.160617 5.292295 0.000000
v -0.358907 5.367834 0.000000
v -0.607556 5.254526 0.000000
v -0.609130 5.075121 0.000000
v -0.465503 4.949223 0.000000
v -0.029998 5.078268 -0.080212
v -0.160617 5.292295 -0.080212
v -0.358907 5.367834 -0.080212
v -0.607556 5.254526 -0.080212
v -0.609130 5.075121 -0.080212
v -0.465503 4.949223 -0.080212
vt 0.504394 0.554126
vt 0.532775 0.555935
vt 0.516141 0.568600
vt 0.507606 0.564434
vt 0.969548 0.539992
vt 0.963925 0.539415
vt 0.959544 0.532690
vt 0.962080 0.525286
vt 0.493375 0.572505
vt 0.500902 0.571663
vt 0.962115 0.553728
vt 0.960530 0.546797
vt 0.505100 0.589738
vt 0.506288 0.580285
vt 0.942747 0.550491
vt 0.952607 0.543727
vt 0.829732 0.500003
vt 0.825250 0.533890
vt 0.678955 0.537807
vt 0.668669 0.499997
vt 0.530852 0.581433
vt 0.516934 0.575365
vt 0.987756 0.541947
vt 0.973456 0.504051
vt 0.845078 0.503092
vt 0.841393 0.542483
vt 0.970267 0.571036
vt 0.848986 0.617414
vt 0.836593 0.591480
vt 0.848305 0.577178
vt 0.862892 0.607925
vt 0.651919 0.507623
vt 0.662914 0.555791
vt 0.832202 0.601508
vt 0.844055 0.621257
vt 0.836554 0.631237
vt 0.819486 0.617699
vt 0.946438 0.576667
vt 0.662060 0.635064
vt 0.648599 0.629221
vt 0.660620 0.592239
vt 0.672578 0.603334
vt 0.938710 0.529692
vt 0.938555 0.497497
vt 0.952307 0.538002
vt 0.530064 0.608703
vt 0.499045 0.608554
vt 0.474693 0.574477
vt 0.493258 0.532207
vt 0.530615 0.523059
vt 0.678698 0.614502
vt 0.668142 0.638257
vt 0.693725 0.629216
vt 0.677564 0.647004
vt 0.726159 0.902590
vt 0.710414 0.904701
vt 0.807698 0.891676
vt 0.823635 0.893775
vt 0.727677 0.915594
vt 0.711291 0.916573
vt 0.709053 0.962483
vt 0.721059 0.959471
vt 0.733687 0.980532
vt 0.726045 0.992728
vt 0.767027 0.999921
vt 0.765015 0.984740
vt 0.787856 0.967668
vt 0.796738 0.979090
vt 0.817264 0.935455
vt 0.804133 0.929925
vt 0.504393 0.445855
vt 0.507606 0.435547
vt 0.516142 0.431381
vt 0.532775 0.444047
vt 0.969553 0.460027
vt 0.962084 0.474732
vt 0.959549 0.467328
vt 0.963930 0.460604
vt 0.493375 0.427475
vt 0.500903 0.428317
vt 0.962121 0.446290
vt 0.960535 0.453221
vt 0.505101 0.410242
vt 0.506289 0.419695
vt 0.942752 0.449525
vt 0.952612 0.456290
vt 0.678956 0.462187
vt 0.825253 0.466116
vt 0.530853 0.418550
vt 0.516935 0.424617
vt 0.987762 0.458073
vt 0.973459 0.495970
vt 0.845078 0.496917
vt 0.841395 0.457525
vt 0.970274 0.428982
vt 0.848993 0.382593
vt 0.862899 0.392084
vt 0.848310 0.422830
vt 0.836599 0.408527
vt 0.651919 0.492370
vt 0.662916 0.444202
vt 0.832208 0.398498
vt 0.819492 0.382306
vt 0.836562 0.368769
vt 0.844062 0.378750
vt 0.946444 0.423348
vt 0.662067 0.364927
vt 0.672583 0.396659
vt 0.660625 0.407753
vt 0.648605 0.370769
vt 0.938557 0.502520
vt 0.938714 0.470325
vt 0.952312 0.462016
vt 0.530067 0.391279
vt 0.499048 0.391425
vt 0.474693 0.425501
vt 0.493256 0.467773
vt 0.530614 0.476924
vt 0.678703 0.385491
vt 0.668149 0.361735
vt 0.677572 0.352989
vt 0.693732 0.370778
vt 0.710436 0.095294
vt 0.726181 0.097406
vt 0.807719 0.108327
vt 0.823657 0.106229
vt 0.711314 0.083422
vt 0.727699 0.084402
vt 0.709078 0.037512
vt 0.726072 0.007269
vt 0.733713 0.019465
vt 0.721084 0.040525
vt 0.767055 0.000079
vt 0.796764 0.020913
vt 0.787882 0.032334
vt 0.765041 0.015260
vt 0.817288 0.064549
vt 0.804157 0.070078
vn 0.5421 -0.8403 0.0000
vn 0.7761 -0.6306 -0.0000
vn -0.6108 -0.7918 0.0000
vn 0.7194 0.6946 0.0000
vn -0.7649 0.6441 0.0000
vn -0.6075 0.7939 0.0257
vn 0.0000 -1.0000 0.0000
vn 0.6191 0.7853 0.0076
vn 0.7602 -0.6497 0.0000
vn 0.6000 0.8000 0.0000
vn -0.8880 -0.4598 0.0000
vn 0.7144 0.6997 0.0000
vn -0.5881 0.8086 0.0154
vn -0.7249 0.6889 0.0000
vn -0.5735 -0.8192 -0.0000
vn 0.6135 0.7896 0.0059
vn -0.0000 -0.0000 1.0000
vn -0.0778 0.9970 -0.0006
vn -0.0427 -0.9991 0.0000
vn 0.0774 -0.9970 0.0000
vn 0.0600 0.9982 -0.0013
vn 0.9998 -0.0139 0.0123
vn -0.9982 -0.0416 0.0422
vn -0.0032 -0.0000 1.0000
vn 0.0000 1.0000 -0.0000
vn -0.7144 0.6997 0.0000
vn 0.0000 0.1499 0.9887
vn -0.9998 0.0198 0.0000
vn 0.0000 0.0034 1.0000
vn 0.9998 0.0198 0.0000
vn -0.9994 0.0339 0.0000
vn -1.0000 0.0088 0.0000
vn 0.3560 0.9345 0.0000
vn 0.9919 0.1272 0.0000
vn -0.6592 -0.7520 0.0000
vn -0.4147 0.9100 0.0000
vn 0.8536 0.5209 0.0000
vn -0.0005 0.0035 1.0000
vn -0.6075 0.7939 -0.0257
vn 0.6191 0.7853 -0.0076
vn -0.5881 0.8086 -0.0154
vn 0.6135 0.7896 -0.0059
vn -0.0000 -0.0000 -1.0000
vn -0.0778 0.9970 0.0006
vn 0.0600 0.9982 0.0013
vn 0.9998 -0.0139 -0.0123
vn -0.9982 -0.0416 -0.0422
vn -0.0032 -0.0000 -1.0000
vn 0.0000 0.1499 -0.9887
vn 0.0000 0.0034 -1.0000
vn -0.0005 0.0035 -1.0000
usemtl Material
s off
f 25/1/1 24/2/1 13/3/1 14/4/1
f 20/5/2 7/6/2 6/7/2 19/8/2
f 26/9/3 25/1/3 14/4/3 15/10/3
f 21/11/4 8/12/4 7/6/4 20/5/4
f 27/13/5 26/9/5 15/10/5 16/14/5
f 22/15/6 9/16/6 8/12/6 21/11/6
f 43/17/7 3/18/7 1/19/7 41/20/7
f 28/21/8 27/13/8 16/14/8 17/22/8
f 47/23/2 20/5/2 19/8/2 46/24/2
f 44/25/9 4/26/9 3/18/9 43/17/9
f 48/27/4 21/11/4 20/5/4 47/23/4
f 51/28/10 30/29/10 10/30/10 50/31/10
f 42/32/11 41/20/11 1/19/11 2/33/11
f 11/34/12 89/35/12 92/36/12 32/37/12
f 49/38/13 22/15/13 21/11/13 48/27/13
f 52/39/14 58/40/14 18/41/14 29/42/14
f 46/24/15 19/8/15 23/43/15 45/44/15
f 19/8/15 6/7/15 5/45/15 23/43/15
f 57/46/16 56/47/16 27/13/16 28/21/16
f 56/47/5 55/48/5 26/9/5 27/13/5
f 13/3/17 17/22/17 16/14/17 15/10/17 14/4/17
f 9/16/17 5/45/17 6/7/17 7/6/17 8/12/17
f 55/48/3 54/49/3 25/1/3 26/9/3
f 54/49/1 53/50/1 24/2/1 25/1/1
f 57/46/18 28/21/18 18/41/18 58/40/18
f 2/33/19 24/2/19 53/50/19 42/32/19
f 44/25/20 45/44/20 23/43/20 4/26/20
f 49/38/21 50/31/21 10/30/21 22/15/21
f 24/2/22 28/21/22 17/22/22 13/3/22
f 23/43/23 5/45/23 9/16/23 22/15/23
f 3/18/24 4/26/24 23/43/24 22/15/24 10/30/24 30/29/24 29/42/24 18/41/24 28/21/24 24/2/24 2/33/24 1/19/24
f 11/34/25 12/51/25 29/42/25 30/29/25
f 89/35/25 11/34/25 30/29/25 51/28/25
f 12/51/25 87/52/25 52/39/25 29/42/25
f 87/52/26 12/51/26 31/53/26 91/54/26
f 12/51/27 11/34/27 32/37/27 31/53/27
f 91/54/28 31/53/28 33/55/28 95/56/28
f 31/53/29 32/37/29 34/57/29 33/55/29
f 32/37/30 92/36/30 96/58/30 34/57/30
f 95/56/31 33/55/31 40/59/31 104/60/31
f 103/61/32 39/62/32 38/63/32 102/64/32
f 101/65/33 37/66/33 36/67/33 100/68/33
f 99/69/34 35/70/34 34/57/34 96/58/34
f 104/60/35 40/59/35 39/62/35 103/61/35
f 102/64/36 38/63/36 37/66/36 101/65/36
f 100/68/37 36/67/37 35/70/37 99/69/37
f 33/55/38 34/57/38 35/70/38 36/67/38 37/66/38 38/63/38 39/62/38 40/59/38
f 83/71/1 72/72/1 71/73/1 82/74/1
f 78/75/2 77/76/2 64/77/2 65/78/2
f 84/79/3 73/80/3 72/72/3 83/71/3
f 79/81/4 78/75/4 65/78/4 66/82/4
f 85/83/5 74/84/5 73/80/5 84/79/5
f 80/85/39 79/81/39 66/82/39 67/86/39
f 43/17/7 41/20/7 59/87/7 61/88/7
f 86/89/40 75/90/40 74/84/40 85/83/40
f 47/91/2 46/92/2 77/76/2 78/75/2
f 44/93/9 43/17/9 61/88/9 62/94/9
f 48/95/4 47/91/4 78/75/4 79/81/4
f 51/96/10 50/97/10 68/98/10 90/99/10
f 42/100/11 60/101/11 59/87/11 41/20/11
f 69/102/12 94/103/12 92/104/12 89/105/12
f 49/106/41 48/95/41 79/81/41 80/85/41
f 52/107/14 88/108/14 76/109/14 58/110/14
f 46/92/15 45/111/15 81/112/15 77/76/15
f 77/76/15 81/112/15 63/113/15 64/77/15
f 57/114/42 86/89/42 85/83/42 56/115/42
f 56/115/5 85/83/5 84/79/5 55/116/5
f 71/73/43 72/72/43 73/80/43 74/84/43 75/90/43
f 67/86/43 66/82/43 65/78/43 64/77/43 63/113/43
f 55/116/3 84/79/3 83/71/3 54/117/3
f 54/117/1 83/71/1 82/74/1 53/118/1
f 57/114/44 58/110/44 76/109/44 86/89/44
f 60/101/19 42/100/19 53/118/19 82/74/19
f 44/93/20 62/94/20 81/112/20 45/111/20
f 49/106/45 80/85/45 68/98/45 50/97/45
f 82/74/46 71/73/46 75/90/46 86/89/46
f 81/112/47 80/85/47 67/86/47 63/113/47
f 61/88/48 59/87/48 60/101/48 82/74/48 86/89/48 76/109/48 88/108/48 90/99/48 68/98/48 80/85/48 81/112/48 62/94/48
f 69/102/25 90/99/25 88/108/25 70/119/25
f 89/105/25 51/96/25 90/99/25 69/102/25
f 70/119/25 88/108/25 52/107/25 87/120/25
f 87/120/26 91/121/26 93/122/26 70/119/26
f 70/119/49 93/122/49 94/103/49 69/102/49
f 91/121/28 95/123/28 97/124/28 93/122/28
f 93/122/50 97/124/50 98/125/50 94/103/50
f 94/103/30 98/125/30 96/126/30 92/104/30
f 95/123/31 104/127/31 110/128/31 97/124/31
f 103/129/32 102/130/32 108/131/32 109/132/32
f 101/133/33 100/134/33 106/135/33 107/136/33
f 99/137/34 96/126/34 98/125/34 105/138/34
f 104/127/35 103/129/35 109/132/35 110/128/35
f 102/130/36 101/133/36 107/136/36 108/131/36
f 100/134/37 99/137/37 105/138/37 106/135/37
f 97/124/51 110/128/51 109/132/51 108/131/51 107/136/51 106/135/51 105/138/51 98/125/51
