# Blender v2.79 (sub 0) OBJ File: 'knife30.blend'
# www.blender.org
mtllib knife30_Holder.mtl
o Cube.001_Cube.005
v 0.002784 2.337873 0.100683
v 0.013806 2.588510 0.100683
v 0.085936 2.933087 0.100683
v 0.038898 3.331617 0.100683
v -0.113201 3.448393 0.100683
v -0.195597 3.458850 0.100683
v -0.328856 3.373381 0.100683
v -0.219565 3.131821 0.100683
v -0.168198 3.059181 0.100683
v -0.175377 2.784182 0.100683
v -0.307453 2.708311 0.100683
v -0.307563 2.570275 0.100683
v -0.240905 2.495573 0.100683
v -0.261284 2.381926 0.100683
v -0.188398 2.753088 0.100683
v -0.281228 2.701825 0.100683
v -0.287920 2.580584 0.100683
v -0.191460 2.507205 0.100683
v -0.097326 2.583250 0.100683
v -0.101806 2.697883 0.100683
v -0.195685 3.428923 0.100683
v -0.301421 3.361583 0.100683
v -0.303193 3.235173 0.100683
v -0.181509 3.165470 0.100683
v -0.078726 3.232810 0.100683
v -0.079317 3.365718 0.100683
v -0.328555 3.223066 0.100683
v 0.020646 2.343828 0.000000
v 0.028266 2.587659 0.000000
v 0.094304 2.933087 0.000000
v 0.053665 3.336933 0.000000
v -0.111429 3.461389 0.000000
v -0.200323 3.467710 0.000000
v -0.341261 3.378106 0.000000
v -0.227731 3.122635 0.000000
v -0.180447 3.048973 0.000000
v -0.187626 2.798472 0.000000
v -0.319702 2.713415 0.000000
v -0.323895 2.564151 0.000000
v -0.256144 2.500653 0.000000
v -0.312082 2.366687 0.000000
v -0.188398 2.741860 0.000000
v -0.272042 2.693659 0.000000
v -0.277712 2.588750 0.000000
v -0.188398 2.523537 0.000000
v -0.114678 2.587332 0.000000
v -0.116096 2.688697 0.000000
v -0.196276 3.408839 0.000000
v -0.290789 3.353904 0.000000
v -0.290198 3.242852 0.000000
v -0.183871 3.181419 0.000000
v -0.091722 3.239308 0.000000
v -0.092313 3.358629 0.000000
v 0.002784 2.337873 -0.100683
v 0.013806 2.588510 -0.100683
v 0.085936 2.933087 -0.100683
v 0.038898 3.331617 -0.100683
v -0.113201 3.448393 -0.100683
v -0.195597 3.458850 -0.100683
v -0.328856 3.373381 -0.100683
v -0.219565 3.131821 -0.100683
v -0.168198 3.059181 -0.100683
v -0.175377 2.784182 -0.100683
v -0.307453 2.708311 -0.100683
v -0.307563 2.570275 -0.100683
v -0.240905 2.495573 -0.100683
v -0.261284 2.381926 -0.100683
v -0.188398 2.753088 -0.100683
v -0.281228 2.701825 -0.100683
v -0.287920 2.580584 -0.100683
v -0.191460 2.507205 -0.100683
v -0.097326 2.583250 -0.100683
v -0.101806 2.697883 -0.100683
v -0.195685 3.428923 -0.100683
v -0.301421 3.361583 -0.100683
v -0.303193 3.235173 -0.100683
v -0.181509 3.165470 -0.100683
v -0.078726 3.232810 -0.100683
v -0.079317 3.365718 -0.100683
v -0.338841 3.220835 0.000000
v -0.328555 3.223066 -0.100683
vt 0.579634 0.151421
vt 0.658772 0.175610
vt 0.608313 0.229682
vt 0.546534 0.208649
vt 0.662230 0.266316
vt 0.620750 0.237049
vt 0.694514 0.190931
vt 0.687635 0.248859
vt 0.594801 0.050855
vt 0.666595 0.085512
vt 0.765828 0.254969
vt 0.704568 0.271291
vt 0.922156 0.268078
vt 0.846151 0.268699
vt 0.858755 0.087064
vt 0.930034 0.095535
vt 0.741569 0.339013
vt 0.700766 0.301953
vt 0.943778 0.522628
vt 0.870421 0.524983
vt 0.762918 0.826045
vt 0.777034 0.862037
vt 0.714640 0.858209
vt 0.738781 0.822419
vt 0.938136 0.797773
vt 0.877015 0.778782
vt 0.666191 0.370700
vt 0.675935 0.310955
vt 0.856893 0.913397
vt 0.816992 0.855747
vt 0.681142 0.799585
vt 0.725092 0.800742
vt 0.791754 0.940222
vt 0.783247 0.874585
vt 0.719014 0.718698
vt 0.738028 0.773102
vt 0.672620 0.922391
vt 0.705961 0.870181
vt 0.799282 0.738390
vt 0.765668 0.774140
vt 0.597745 0.826657
vt 0.664885 0.802189
vt 0.820982 0.811189
vt 0.778027 0.801975
vt 0.608071 0.635404
vt 0.694098 0.640593
vt 0.685350 0.711787
vt 0.602584 0.703534
vt 0.585327 0.433919
vt 0.668012 0.399827
vt 0.612630 0.312226
vt 0.660616 0.293187
vt 0.528940 0.319454
vt 0.598462 0.311945
vt 0.608311 0.229683
vt 0.658770 0.175610
vt 0.694512 0.190932
vt 0.620748 0.237050
vt 0.666593 0.085513
vt 0.765826 0.254969
vt 0.858752 0.087064
vt 0.846149 0.268699
vt 0.741568 0.339014
vt 0.870420 0.524983
vt 0.714640 0.858210
vt 0.777035 0.862038
vt 0.877015 0.778782
vt 0.666189 0.370701
vt 0.816992 0.855748
vt 0.681142 0.799586
vt 0.783247 0.874585
vt 0.719014 0.718699
vt 0.705961 0.870181
vt 0.799282 0.738391
vt 0.664885 0.802190
vt 0.820982 0.811190
vt 0.685349 0.711788
vt 0.694098 0.640594
vt 0.668011 0.399828
vt 0.612628 0.312227
vt 0.598460 0.311946
vn -0.7121 -0.6926 0.1152
vn 0.5924 0.7941 0.1356
vn -0.9157 0.2822 0.2861
vn -0.6353 0.7625 0.1224
vn 0.9868 -0.0372 0.1575
vn -0.9874 -0.0270 0.1558
vn 0.9744 -0.1951 0.1113
vn 0.5158 -0.8448 0.1422
vn 0.9873 0.1079 0.1163
vn -0.5592 -0.8199 0.1228
vn 0.6009 0.7901 0.1212
vn 0.9932 -0.0049 0.1165
vn 0.0969 0.9896 0.1060
vn 0.4945 0.8598 0.1270
vn -0.5353 0.8384 0.1021
vn -0.5356 0.8338 0.1338
vn -0.9937 -0.0088 0.1119
vn -0.9918 -0.0046 0.1280
vn -0.8213 -0.5538 0.1366
vn -0.9923 0.0271 0.1213
vn -0.4526 -0.8792 0.1492
vn 0.4883 -0.8663 0.1057
vn -0.5149 0.8451 0.1440
vn -0.9900 0.0148 0.1404
vn 0.9939 -0.0543 0.0957
vn -0.6489 -0.7539 0.1022
vn 0.0000 0.0000 1.0000
vn -0.7121 -0.6926 -0.1152
vn 0.5924 0.7941 -0.1356
vn -0.9157 0.2822 -0.2861
vn -0.6353 0.7625 -0.1224
vn 0.9868 -0.0372 -0.1575
vn -0.9874 -0.0270 -0.1558
vn 0.9744 -0.1951 -0.1113
vn 0.5158 -0.8448 -0.1422
vn 0.9873 0.1079 -0.1163
vn -0.5592 -0.8199 -0.1228
vn 0.6009 0.7901 -0.1212
vn 0.9932 -0.0049 -0.1165
vn 0.0969 0.9896 -0.1060
vn 0.4945 0.8598 -0.1270
vn -0.5353 0.8384 -0.1021
vn -0.5356 0.8338 -0.1338
vn -0.9937 -0.0088 -0.1119
vn -0.9918 -0.0046 -0.1280
vn -0.8213 -0.5538 -0.1366
vn -0.9923 0.0271 -0.1213
vn -0.4526 -0.8792 -0.1492
vn 0.4883 -0.8663 -0.1057
vn -0.5149 0.8451 -0.1440
vn -0.9900 0.0148 -0.1404
vn 0.9939 -0.0543 -0.0957
vn -0.6489 -0.7539 -0.1022
vn 0.0000 0.0000 -1.0000
usemtl Material
s off
f 40/1/1 13/2/1 12/3/1 39/4/1
f 44/5/2 17/6/2 18/7/2 45/8/2
f 41/9/3 14/10/3 13/2/3 40/1/3
f 45/8/4 18/7/4 19/11/4 46/12/4
f 29/13/5 2/14/5 1/15/5 28/16/5
f 46/12/6 19/11/6 20/17/6 47/18/6
f 30/19/7 3/20/7 2/14/7 29/13/7
f 48/21/8 21/22/8 22/23/8 49/24/8
f 31/25/9 4/26/9 3/20/9 30/19/9
f 47/18/10 20/17/10 15/27/10 42/28/10
f 32/29/11 5/30/11 4/26/11 31/25/11
f 49/24/12 22/23/12 23/31/12 50/32/12
f 33/33/13 6/34/13 5/30/13 32/29/13
f 50/32/14 23/31/14 24/35/14 51/36/14
f 34/37/15 7/38/15 6/34/15 33/33/15
f 51/36/16 24/35/16 25/39/16 52/40/16
f 80/41/17 27/42/17 7/38/17 34/37/17
f 52/40/18 25/39/18 26/43/18 53/44/18
f 36/45/19 9/46/19 8/47/19 35/48/19
f 37/49/20 10/50/20 9/46/20 36/45/20
f 53/44/21 26/43/21 21/22/21 48/21/21
f 42/28/22 15/27/22 16/51/22 43/52/22
f 38/53/23 11/54/23 10/50/23 37/49/23
f 39/4/24 12/3/24 11/54/24 38/53/24
f 43/52/25 16/51/25 17/6/25 44/5/25
f 35/48/26 8/47/26 27/42/26 80/41/26
f 13/2/27 18/7/27 17/6/27 12/3/27
f 12/3/27 17/6/27 16/51/27 11/54/27
f 11/54/27 16/51/27 15/27/27 10/50/27
f 23/31/27 27/42/27 8/47/27 24/35/27
f 27/42/27 23/31/27 22/23/27 7/38/27
f 7/38/27 22/23/27 21/22/27 6/34/27
f 6/34/27 21/22/27 26/43/27 5/30/27
f 4/26/27 5/30/27 26/43/27
f 26/43/27 25/39/27 4/26/27
f 4/26/27 25/39/27 3/20/27
f 8/47/27 9/46/27 24/35/27
f 24/35/27 9/46/27 3/20/27 25/39/27
f 3/20/27 9/46/27 10/50/27 2/14/27
f 15/27/27 20/17/27 10/50/27
f 10/50/27 20/17/27 2/14/27
f 20/17/27 19/11/27 2/14/27
f 2/14/27 19/11/27 18/7/27 1/15/27
f 13/2/27 14/10/27 1/15/27 18/7/27
f 40/1/28 39/4/28 65/55/28 66/56/28
f 44/5/29 45/8/29 71/57/29 70/58/29
f 41/9/30 40/1/30 66/56/30 67/59/30
f 45/8/31 46/12/31 72/60/31 71/57/31
f 29/13/32 28/16/32 54/61/32 55/62/32
f 46/12/33 47/18/33 73/63/33 72/60/33
f 30/19/34 29/13/34 55/62/34 56/64/34
f 48/21/35 49/24/35 75/65/35 74/66/35
f 31/25/36 30/19/36 56/64/36 57/67/36
f 47/18/37 42/28/37 68/68/37 73/63/37
f 32/29/38 31/25/38 57/67/38 58/69/38
f 49/24/39 50/32/39 76/70/39 75/65/39
f 33/33/40 32/29/40 58/69/40 59/71/40
f 50/32/41 51/36/41 77/72/41 76/70/41
f 34/37/42 33/33/42 59/71/42 60/73/42
f 51/36/43 52/40/43 78/74/43 77/72/43
f 80/41/44 34/37/44 60/73/44 81/75/44
f 52/40/45 53/44/45 79/76/45 78/74/45
f 36/45/46 35/48/46 61/77/46 62/78/46
f 37/49/47 36/45/47 62/78/47 63/79/47
f 53/44/48 48/21/48 74/66/48 79/76/48
f 42/28/49 43/52/49 69/80/49 68/68/49
f 38/53/50 37/49/50 63/79/50 64/81/50
f 39/4/51 38/53/51 64/81/51 65/55/51
f 43/52/52 44/5/52 70/58/52 69/80/52
f 35/48/53 80/41/53 81/75/53 61/77/53
f 66/56/54 65/55/54 70/58/54 71/57/54
f 65/55/54 64/81/54 69/80/54 70/58/54
f 64/81/54 63/79/54 68/68/54 69/80/54
f 76/70/54 77/72/54 61/77/54 81/75/54
f 81/75/54 60/73/54 75/65/54 76/70/54
f 60/73/54 59/71/54 74/66/54 75/65/54
f 59/71/54 58/69/54 79/76/54 74/66/54
f 57/67/54 79/76/54 58/69/54
f 79/76/54 57/67/54 78/74/54
f 57/67/54 56/64/54 78/74/54
f 61/77/54 77/72/54 62/78/54
f 77/72/54 78/74/54 56/64/54 62/78/54
f 56/64/54 55/62/54 63/79/54 62/78/54
f 68/68/54 63/79/54 73/63/54
f 63/79/54 55/62/54 73/63/54
f 73/63/54 55/62/54 72/60/54
f 55/62/54 54/61/54 71/57/54 72/60/54
f 66/56/54 71/57/54 54/61/54 67/59/54
