# Blender v2.79 (sub 0) OBJ File: 'knife12.blend'
# www.blender.org
mtllib knife12_Holder.mtl
o Cube.001_Cube.000
v 0.227993 2.867918 0.109095
v 0.162323 3.043855 0.164810
v 0.142022 4.654352 0.091226
v 0.250291 5.209229 0.109095
v 0.236758 5.581403 0.109095
v 0.520963 5.635538 0.109095
v 0.974338 5.385166 0.109095
v 0.751034 4.546083 0.088815
v 0.696900 3.774669 0.109095
v 0.798402 3.409262 0.109095
v 0.737500 3.172424 0.109095
v 0.818702 3.030321 0.109095
v 1.042006 2.949120 0.162482
v 1.028473 2.894985 0.162482
v 0.845769 2.894985 0.109095
v 0.200195 2.867918 0.164810
v 0.256509 3.043855 0.194916
v 0.241095 4.654352 0.162255
v 0.323300 5.209229 0.260007
v 0.313024 5.520430 0.260007
v 0.528812 5.574564 0.260007
v 0.873044 5.324193 0.260007
v 0.703497 4.546083 0.159555
v 0.662394 3.774669 0.260006
v 0.739461 3.409262 0.154585
v 0.693221 3.172424 0.190511
v 0.754875 3.030321 0.169783
v 0.182623 2.867918 0.000000
v 0.162323 3.043855 0.000000
v 0.142022 4.654352 0.000000
v 0.250291 5.209229 0.000000
v 0.236758 5.581403 0.000000
v 0.520963 5.635538 0.000000
v 0.974338 5.385166 0.000000
v 0.751034 4.546083 0.000000
v 0.696900 3.774669 0.000000
v 0.798402 3.409262 0.000000
v 0.737500 3.172424 0.000000
v 0.818702 3.030321 0.000000
v 1.042006 2.949120 0.000000
v 1.028473 2.894985 0.000000
v 0.845769 2.894985 0.000000
v 0.227993 2.867918 -0.109095
v 0.162323 3.043855 -0.164810
v 0.142022 4.654352 -0.091226
v 0.250291 5.209229 -0.109095
v 0.236758 5.581403 -0.109095
v 0.520963 5.635538 -0.109095
v 0.974338 5.385166 -0.109095
v 0.751034 4.546083 -0.088815
v 0.696900 3.774669 -0.109095
v 0.798402 3.409262 -0.109095
v 0.737500 3.172424 -0.109095
v 0.818702 3.030321 -0.109095
v 1.042006 2.949120 -0.162482
v 1.028473 2.894985 -0.162482
v 0.845769 2.894985 -0.109095
v 0.200195 2.867918 -0.164810
v 0.256509 3.043855 -0.194916
v 0.241095 4.654352 -0.162255
v 0.323300 5.209229 -0.260007
v 0.313024 5.520430 -0.260007
v 0.528812 5.574564 -0.260007
v 0.873044 5.324193 -0.260007
v 0.703497 4.546083 -0.159555
v 0.662394 3.774669 -0.260006
v 0.739461 3.409262 -0.154585
v 0.693221 3.172424 -0.190511
v 0.754875 3.030321 -0.169783
vt 0.736980 0.949048
vt 0.827569 0.940970
vt 0.811255 0.911941
vt 0.745476 0.918623
vt 0.630140 0.863531
vt 0.657861 0.852103
vt 0.643732 0.623183
vt 0.669735 0.624071
vt 0.645772 0.383476
vt 0.679672 0.384283
vt 0.653647 0.278813
vt 0.681525 0.273088
vt 0.664756 0.196064
vt 0.698468 0.198949
vt 0.662507 0.156353
vt 0.702812 0.145518
vt 0.630140 0.080165
vt 0.677898 0.110333
vt 0.640968 0.066737
vt 0.683036 0.097398
vt 0.709561 0.047611
vt 0.720982 0.088569
vt 0.929832 0.181574
vt 0.911531 0.113537
vt 0.867867 0.134399
vt 0.875874 0.193925
vt 0.929832 0.667910
vt 0.902117 0.666389
vt 0.911572 0.842607
vt 0.878112 0.832009
vt 0.869891 0.123027
vt 0.695427 0.834028
vt 0.695644 0.623540
vt 0.831903 0.822849
vt 0.791519 0.882235
vt 0.728433 0.205177
vt 0.725729 0.168097
vt 0.723964 0.386920
vt 0.753021 0.881603
vt 0.850359 0.194890
vt 0.866310 0.667053
vt 0.702650 0.275925
vt 0.745476 0.918623
vt 0.811255 0.911941
vt 0.657861 0.852103
vt 0.669735 0.624071
vt 0.679672 0.384283
vt 0.681525 0.273088
vt 0.698468 0.198949
vt 0.702812 0.145518
vt 0.677898 0.110333
vt 0.683036 0.097398
vt 0.720982 0.088569
vt 0.875874 0.193925
vt 0.867867 0.134399
vt 0.902117 0.666389
vt 0.878112 0.832009
vt 0.869891 0.123027
vt 0.695644 0.623540
vt 0.695427 0.834028
vt 0.791519 0.882235
vt 0.831903 0.822849
vt 0.725729 0.168097
vt 0.728433 0.205177
vt 0.723964 0.386920
vt 0.753021 0.881603
vt 0.866310 0.667053
vt 0.850359 0.194890
vt 0.702650 0.275925
vn -0.1871 0.9823 0.0000
vn 0.4834 0.8754 0.0000
vn 0.9664 -0.2572 0.0000
vn 0.9975 -0.0700 0.0000
vn 0.9635 0.2676 0.0000
vn 0.9685 -0.2490 0.0000
vn 0.8682 0.4961 0.0000
vn 0.3417 0.9398 0.0000
vn 0.9701 -0.2425 0.0000
vn 0.0000 -1.0000 0.0000
vn -0.9852 -0.1629 0.0525
vn -0.9999 -0.0126 0.0000
vn -0.9815 0.1915 0.0000
vn -0.9993 -0.0363 0.0000
vn 0.0373 -0.9979 -0.0529
vn 0.0027 0.0003 1.0000
vn 0.0756 0.6846 0.7249
vn 0.8352 -0.2398 0.4948
vn -0.8984 -0.0313 0.4380
vn 0.7498 0.3353 0.5704
vn 0.9374 -0.0307 0.3470
vn -0.1927 0.8900 0.4133
vn -0.4635 0.0241 0.8858
vn 0.8918 0.1567 0.4243
vn 0.4743 0.7554 0.4521
vn -0.7883 0.0716 0.6112
vn 0.7695 -0.1266 0.6259
vn -0.0229 -0.9997 0.0077
vn -0.0000 -0.0000 1.0000
vn 0.0036 -0.1477 0.9890
vn -0.1119 0.0567 0.9921
vn 0.1614 -0.1050 0.9813
vn 0.0466 -0.1244 0.9911
vn -0.9852 -0.1629 -0.0525
vn 0.0373 -0.9979 0.0529
vn 0.0027 0.0003 -1.0000
vn 0.0756 0.6846 -0.7249
vn 0.8352 -0.2398 -0.4948
vn -0.8984 -0.0313 -0.4380
vn 0.7498 0.3353 -0.5704
vn 0.9374 -0.0307 -0.3470
vn -0.1927 0.8900 -0.4133
vn -0.4635 0.0241 -0.8858
vn 0.8918 0.1567 -0.4243
vn 0.4743 0.7554 -0.4521
vn -0.7883 0.0716 -0.6112
vn 0.7695 -0.1266 -0.6259
vn -0.0229 -0.9997 -0.0077
vn -0.0000 -0.0000 -1.0000
vn 0.0036 -0.1477 -0.9890
vn -0.1119 0.0567 -0.9921
vn 0.1614 -0.1050 -0.9813
vn 0.0466 -0.1244 -0.9911
usemtl Material
s off
f 33/1/1 32/2/1 5/3/1 6/4/1
f 34/5/2 33/1/2 6/4/2 7/6/2
f 35/7/3 34/5/3 7/6/3 8/8/3
f 36/9/4 35/7/4 8/8/4 9/10/4
f 37/11/5 36/9/5 9/10/5 10/12/5
f 38/13/6 37/11/6 10/12/6 11/14/6
f 39/15/7 38/13/7 11/14/7 12/16/7
f 40/17/8 39/15/8 12/16/8 13/18/8
f 41/19/9 40/17/9 13/18/9 14/20/9
f 42/21/10 41/19/10 14/20/10 15/22/10
f 29/23/11 28/24/11 16/25/11 2/26/11
f 30/27/12 29/23/12 2/26/12 3/28/12
f 31/29/13 30/27/13 3/28/13 4/30/13
f 32/2/14 31/29/14 4/30/14 5/3/14
f 16/25/10 28/24/10 1/31/10
f 16/25/15 1/31/15 15/22/15 14/20/15
f 14/20/16 13/18/16 2/26/16 16/25/16
f 12/16/17 2/26/17 13/18/17
f 8/8/18 7/6/18 22/32/18 23/33/18
f 5/3/19 4/30/19 19/34/19 20/35/19
f 12/16/20 11/14/20 26/36/20 27/37/20
f 9/10/21 8/8/21 23/33/21 24/38/21
f 6/4/22 5/3/22 20/35/22 21/39/22
f 3/28/23 2/26/23 17/40/23 18/41/23
f 10/12/24 9/10/24 24/38/24 25/42/24
f 7/6/25 6/4/25 21/39/25 22/32/25
f 4/30/26 3/28/26 18/41/26 19/34/26
f 11/14/27 10/12/27 25/42/27 26/36/27
f 2/26/28 12/16/28 27/37/28 17/40/28
f 20/35/29 19/34/29 22/32/29 21/39/29
f 19/34/30 18/41/30 23/33/30 22/32/30
f 18/41/31 17/40/31 24/38/31 23/33/31
f 24/38/32 17/40/32 26/36/32 25/42/32
f 26/36/33 17/40/33 27/37/33
f 33/1/1 48/43/1 47/44/1 32/2/1
f 34/5/2 49/45/2 48/43/2 33/1/2
f 35/7/3 50/46/3 49/45/3 34/5/3
f 36/9/4 51/47/4 50/46/4 35/7/4
f 37/11/5 52/48/5 51/47/5 36/9/5
f 38/13/6 53/49/6 52/48/6 37/11/6
f 39/15/7 54/50/7 53/49/7 38/13/7
f 40/17/8 55/51/8 54/50/8 39/15/8
f 41/19/9 56/52/9 55/51/9 40/17/9
f 42/21/10 57/53/10 56/52/10 41/19/10
f 29/23/34 44/54/34 58/55/34 28/24/34
f 30/27/12 45/56/12 44/54/12 29/23/12
f 31/29/13 46/57/13 45/56/13 30/27/13
f 32/2/14 47/44/14 46/57/14 31/29/14
f 58/55/10 43/58/10 28/24/10
f 58/55/35 56/52/35 57/53/35 43/58/35
f 56/52/36 58/55/36 44/54/36 55/51/36
f 54/50/37 55/51/37 44/54/37
f 50/46/38 65/59/38 64/60/38 49/45/38
f 47/44/39 62/61/39 61/62/39 46/57/39
f 54/50/40 69/63/40 68/64/40 53/49/40
f 51/47/41 66/65/41 65/59/41 50/46/41
f 48/43/42 63/66/42 62/61/42 47/44/42
f 45/56/43 60/67/43 59/68/43 44/54/43
f 52/48/44 67/69/44 66/65/44 51/47/44
f 49/45/45 64/60/45 63/66/45 48/43/45
f 46/57/46 61/62/46 60/67/46 45/56/46
f 53/49/47 68/64/47 67/69/47 52/48/47
f 44/54/48 59/68/48 69/63/48 54/50/48
f 62/61/49 63/66/49 64/60/49 61/62/49
f 61/62/50 64/60/50 65/59/50 60/67/50
f 60/67/51 65/59/51 66/65/51 59/68/51
f 66/65/52 67/69/52 68/64/52 59/68/52
f 68/64/53 69/63/53 59/68/53
