# Blender v2.79 (sub 0) OBJ File: 'knife27.blend'
# www.blender.org
mtllib knife27_Blade.mtl
o Cube
v 0.000000 1.473476 0.230628
v 0.000000 1.834096 0.072347
v 0.295267 1.474888 0.000000
v 0.077583 1.834574 0.000000
v 0.000000 0.031203 0.000000
v -0.295267 1.474888 0.000000
v -0.077583 1.834574 0.000000
v 0.000000 1.473476 -0.230628
v 0.000000 1.834096 -0.072347
vt 0.207671 0.009960
vt 0.405382 0.782541
vt 0.207671 0.767645
vt 0.207671 0.973913
vt 0.269048 0.990040
vt 0.009960 0.782541
vt 0.146294 0.990039
vt 0.207671 0.767645
vt 0.009961 0.782541
vt 0.207672 0.973913
vt 0.146295 0.990039
vt 0.405382 0.782541
vt 0.269049 0.990039
vn 0.6111 -0.1250 0.7816
vn 0.5921 0.3395 0.7308
vn -0.6111 -0.1250 0.7816
vn -0.5921 0.3395 0.7308
vn 0.6111 -0.1250 -0.7816
vn 0.5921 0.3395 -0.7308
vn -0.6111 -0.1250 -0.7816
vn -0.5921 0.3395 -0.7308
usemtl Material
s off
f 5/1/1 3/2/1 1/3/1
f 2/4/2 1/3/2 3/2/2 4/5/2
f 5/1/3 1/3/3 6/6/3
f 2/4/4 7/7/4 6/6/4 1/3/4
f 5/1/5 8/8/5 3/9/5
f 9/10/6 4/11/6 3/9/6 8/8/6
f 5/1/7 6/12/7 8/8/7
f 9/10/8 8/8/8 6/12/8 7/13/8
