# Blender v2.79 (sub 0) OBJ File: 'knife23.blend'
# www.blender.org
mtllib knife23_Holder.mtl
o Cube.001
v 0.851491 2.877841 0.095282
v 0.694357 2.846706 0.095282
v 0.672816 2.935264 0.095282
v 0.899360 2.983153 0.095282
v 1.057328 3.028628 0.180333
v 1.045361 3.160269 0.180333
v 0.316191 2.887395 0.180333
v 0.268321 3.042969 0.180333
v 0.504055 3.086646 0.180333
v 0.798835 3.129154 0.180333
v 0.507667 3.184183 0.099392
v 0.731818 3.215318 0.099392
v 0.681555 3.349352 0.113491
v 0.478946 3.313430 0.113491
v 0.383207 3.294282 0.180333
v 0.340125 3.425922 0.180333
v 0.450224 3.445070 0.128251
v 0.222846 4.158320 0.143588
v 0.505274 4.096090 0.143588
v 0.644094 3.478578 0.128251
v 0.756587 3.485759 0.180333
v 0.790095 3.363693 0.180333
v 0.894573 2.880234 0.000000
v 0.545962 2.815591 0.000000
v 0.452618 2.894575 0.000000
v 0.937655 2.985546 0.000000
v 1.057328 3.028628 0.000000
v 1.045361 3.160269 0.000000
v 0.316191 2.887395 0.000000
v 0.268321 3.042969 0.000000
v 0.408317 3.069892 0.000000
v 0.877819 3.141121 0.000000
v 0.455011 3.174609 0.000000
v 0.782080 3.215318 0.000000
v 0.731818 3.349352 0.000000
v 0.431077 3.301463 0.000000
v 0.383207 3.294282 0.000000
v 0.340125 3.425922 0.000000
v 0.390388 3.445070 0.000000
v 0.146255 4.215763 0.000000
v 0.541176 4.115238 0.000000
v 0.682390 3.476185 0.000000
v 0.756587 3.485759 0.000000
v 0.790095 3.363693 0.000000
v 0.851491 2.877841 -0.095282
v 0.694357 2.846706 -0.095282
v 0.672816 2.935264 -0.095282
v 0.899360 2.983153 -0.095282
v 1.057328 3.028628 -0.180333
v 1.045361 3.160269 -0.180333
v 0.316191 2.887395 -0.180333
v 0.268321 3.042969 -0.180333
v 0.504055 3.086646 -0.180333
v 0.798835 3.129154 -0.180333
v 0.507667 3.184183 -0.099392
v 0.731818 3.215318 -0.099392
v 0.681555 3.349352 -0.113491
v 0.478946 3.313430 -0.113491
v 0.383207 3.294282 -0.180333
v 0.340125 3.425922 -0.180333
v 0.450224 3.445070 -0.128251
v 0.222846 4.158320 -0.143588
v 0.505274 4.096090 -0.143588
v 0.644094 3.478578 -0.128251
v 0.756587 3.485759 -0.180333
v 0.790095 3.363693 -0.180333
vt 0.548366 0.350119
vt 0.632595 0.378349
vt 0.642232 0.279950
vt 0.564479 0.261193
vt 0.857420 0.392306
vt 0.795977 0.351124
vt 0.755800 0.436316
vt 0.828705 0.452477
vt 0.764205 0.467756
vt 0.834355 0.475430
vt 0.751123 0.515377
vt 0.818822 0.569815
vt 0.715367 0.530273
vt 0.792849 0.573514
vt 0.636951 0.881269
vt 0.685263 0.959679
vt 0.611299 0.030848
vt 0.643961 0.099063
vt 0.704290 0.085204
vt 0.683404 0.030848
vt 0.562974 0.824484
vt 0.489807 0.860537
vt 0.557307 0.086084
vt 0.618232 0.115704
vt 0.605740 0.509109
vt 0.523077 0.506777
vt 0.925937 0.153474
vt 0.802784 0.124916
vt 0.915626 0.245039
vt 0.972769 0.229486
vt 0.578488 0.462124
vt 0.509197 0.468299
vt 0.910822 0.275670
vt 0.968585 0.305491
vt 0.590426 0.416872
vt 0.519214 0.378063
vt 0.826046 0.279168
vt 0.908575 0.358281
vt 0.548675 0.187189
vt 0.680459 0.208166
vt 0.642232 0.279950
vt 0.632595 0.378349
vt 0.755800 0.436316
vt 0.795977 0.351124
vt 0.764205 0.467756
vt 0.751123 0.515377
vt 0.715367 0.530273
vt 0.636951 0.881269
vt 0.704290 0.085204
vt 0.643961 0.099063
vt 0.562974 0.824484
vt 0.618232 0.115704
vt 0.605740 0.509109
vt 0.915626 0.245039
vt 0.802784 0.124916
vt 0.578488 0.462124
vt 0.910822 0.275670
vt 0.590426 0.416872
vt 0.826046 0.279168
vt 0.680459 0.208166
vn 0.8621 0.3019 0.4071
vn -0.8770 -0.2043 0.4348
vn 0.1848 -0.9827 0.0099
vn -0.9504 -0.3110 0.0000
vn -0.2190 0.9748 0.0425
vn -0.8798 -0.2835 0.3816
vn 0.2946 -0.9551 0.0326
vn 0.2279 0.9484 0.2206
vn 0.9959 0.0905 0.0000
vn 0.9406 0.2063 0.2695
vn 0.1195 -0.9915 0.0509
vn -0.0843 0.9963 -0.0182
vn -0.9558 -0.2941 0.0000
vn 0.9643 0.2647 0.0000
vn -0.1847 0.9828 0.0034
vn -0.1205 0.9927 0.0066
vn 0.1588 -0.9869 0.0272
vn -0.8344 0.3707 0.4078
vn 0.5878 0.7498 0.3037
vn 0.1877 -0.9604 0.2057
vn -0.0014 -0.0234 0.9997
vn -0.1502 0.9818 0.1163
vn 0.1701 -0.9841 -0.0517
vn 0.0000 -0.0000 1.0000
vn 0.0160 -0.1017 0.9947
vn -0.0909 0.6406 0.7625
vn 0.8621 0.3019 -0.4071
vn -0.8770 -0.2043 -0.4348
vn 0.1848 -0.9827 -0.0099
vn -0.2190 0.9748 -0.0425
vn -0.8798 -0.2835 -0.3816
vn 0.2946 -0.9551 -0.0326
vn 0.2279 0.9484 -0.2206
vn 0.9406 0.2063 -0.2695
vn 0.1195 -0.9915 -0.0509
vn -0.0843 0.9963 0.0182
vn -0.1847 0.9828 -0.0034
vn -0.1205 0.9927 -0.0066
vn 0.1588 -0.9869 -0.0272
vn -0.8344 0.3707 -0.4078
vn 0.5878 0.7498 -0.3037
vn 0.1877 -0.9604 -0.2057
vn -0.0014 -0.0234 -0.9997
vn -0.1502 0.9818 -0.1163
vn 0.1701 -0.9841 0.0517
vn 0.0000 -0.0000 -1.0000
vn 0.0160 -0.1017 -0.9947
vn -0.0909 0.6406 -0.7625
usemtl Material
s off
f 35/1/1 13/2/1 12/3/1 34/4/1
f 33/5/2 11/6/2 14/7/2 36/8/2
f 36/8/3 14/7/3 15/9/3 37/10/3
f 37/10/4 15/9/4 16/11/4 38/12/4
f 38/12/5 16/11/5 17/13/5 39/14/5
f 39/14/6 17/13/6 18/15/6 40/16/6
f 27/17/7 5/18/7 4/19/7 26/20/7
f 40/16/8 18/15/8 19/21/8 41/22/8
f 28/23/9 6/24/9 5/18/9 27/17/9
f 41/22/10 19/21/10 20/25/10 42/26/10
f 25/27/11 3/28/11 7/29/11 29/30/11
f 42/26/12 20/25/12 21/31/12 43/32/12
f 29/30/13 7/29/13 8/33/13 30/34/13
f 43/32/14 21/31/14 22/35/14 44/36/14
f 30/34/15 8/33/15 9/37/15 31/38/15
f 32/39/16 10/40/16 6/24/16 28/23/16
f 44/36/17 22/35/17 13/2/17 35/1/17
f 31/38/18 9/37/18 11/6/18 33/5/18
f 34/4/19 12/3/19 10/40/19 32/39/19
f 5/18/20 7/29/20 3/28/20 4/19/20
f 17/13/21 20/25/21 19/21/21 18/15/21
f 16/11/22 21/31/22 20/25/22 17/13/22
f 14/7/23 13/2/23 22/35/23 15/9/23
f 15/9/24 22/35/24 21/31/24 16/11/24
f 13/2/25 14/7/25 11/6/25 12/3/25
f 9/37/26 10/40/26 12/3/26 11/6/26
f 5/18/24 10/40/24 9/37/24 7/29/24
f 8/33/24 7/29/24 9/37/24
f 6/24/24 10/40/24 5/18/24
f 35/1/27 34/4/27 56/41/27 57/42/27
f 33/5/28 36/8/28 58/43/28 55/44/28
f 36/8/29 37/10/29 59/45/29 58/43/29
f 37/10/4 38/12/4 60/46/4 59/45/4
f 38/12/30 39/14/30 61/47/30 60/46/30
f 39/14/31 40/16/31 62/48/31 61/47/31
f 27/17/32 26/20/32 48/49/32 49/50/32
f 40/16/33 41/22/33 63/51/33 62/48/33
f 28/23/9 27/17/9 49/50/9 50/52/9
f 41/22/34 42/26/34 64/53/34 63/51/34
f 25/27/35 29/30/35 51/54/35 47/55/35
f 42/26/36 43/32/36 65/56/36 64/53/36
f 29/30/13 30/34/13 52/57/13 51/54/13
f 43/32/14 44/36/14 66/58/14 65/56/14
f 30/34/37 31/38/37 53/59/37 52/57/37
f 32/39/38 28/23/38 50/52/38 54/60/38
f 44/36/39 35/1/39 57/42/39 66/58/39
f 31/38/40 33/5/40 55/44/40 53/59/40
f 34/4/41 32/39/41 54/60/41 56/41/41
f 49/50/42 48/49/42 47/55/42 51/54/42
f 61/47/43 62/48/43 63/51/43 64/53/43
f 60/46/44 61/47/44 64/53/44 65/56/44
f 58/43/45 59/45/45 66/58/45 57/42/45
f 59/45/46 60/46/46 65/56/46 66/58/46
f 57/42/47 56/41/47 55/44/47 58/43/47
f 53/59/48 55/44/48 56/41/48 54/60/48
f 49/50/46 51/54/46 53/59/46 54/60/46
f 52/57/46 53/59/46 51/54/46
f 50/52/46 49/50/46 54/60/46
l 24 25
l 26 23
l 2 3
l 4 1
l 46 47
l 48 45
