# Blender v2.79 (sub 0) OBJ File: 'knife15.blend'
# www.blender.org
mtllib knife15_Blade.mtl
o Cube_Cube.002
v 0.342803 6.716022 0.217774
v 0.139942 5.887455 0.125357
v 0.083561 1.502614 0.125357
v -0.342803 6.716022 0.217774
v -0.139942 5.887455 0.125357
v 0.000000 0.900319 0.125357
v -0.083561 1.502614 0.125357
v 0.000000 5.887455 0.125357
v 0.000000 0.900319 0.125357
v 0.000000 6.398220 0.221563
v 0.523785 6.716022 0.000000
v 0.355670 5.887455 0.000000
v 0.235588 0.735930 0.000000
v 0.342803 6.716022 -0.217774
v 0.139942 5.887455 -0.125357
v 0.083561 1.502614 -0.125357
v -0.523785 6.716022 0.000000
v -0.355670 5.887455 0.000000
v 0.000000 0.070177 0.000000
v -0.235588 0.735930 0.000000
v -0.342803 6.716022 -0.217774
v -0.139942 5.887455 -0.125357
v 0.000000 0.900319 -0.125357
v -0.083561 1.502614 -0.125357
v 0.000000 5.887455 -0.125357
v 0.000000 0.900319 -0.125357
v 0.000000 6.398220 -0.221563
vt 0.182464 0.112580
vt 0.161670 0.200577
vt 0.148081 0.140413
vt 0.148082 0.024728
vt 0.206063 0.834255
vt 0.168926 0.836056
vt 0.239284 0.953695
vt 0.198191 0.959647
vt 0.148082 0.836114
vt 0.148081 0.145002
vt 0.148082 0.913338
vt 0.113699 0.112580
vt 0.134493 0.200574
vt 0.090101 0.834255
vt 0.127238 0.836056
vt 0.056880 0.953694
vt 0.097973 0.959647
vt 0.113699 0.112580
vt 0.148081 0.140413
vt 0.134493 0.200574
vt 0.090101 0.834255
vt 0.127238 0.836056
vt 0.056881 0.953695
vt 0.097973 0.959647
vt 0.148081 0.145002
vt 0.148082 0.836114
vt 0.148083 0.913338
vt 0.182464 0.112581
vt 0.161670 0.200577
vt 0.206064 0.834255
vt 0.168927 0.836056
vt 0.239284 0.953695
vt 0.198192 0.959647
vn 0.4101 -0.1032 0.9062
vn 0.5487 -0.0102 0.8359
vn 0.6428 -0.1854 0.7432
vn -0.0000 0.0000 1.0000
vn 0.1097 -0.1549 0.9818
vn -0.4101 -0.1032 0.9062
vn -0.5487 -0.0102 0.8359
vn -0.6428 -0.1854 0.7432
vn -0.1097 -0.1549 0.9818
vn 0.4101 -0.1032 -0.9062
vn 0.5487 -0.0102 -0.8359
vn 0.6428 -0.1854 -0.7432
vn -0.0000 0.0000 -1.0000
vn 0.1097 -0.1549 -0.9818
vn -0.4101 -0.1032 -0.9062
vn -0.5487 -0.0102 -0.8359
vn -0.6428 -0.1854 -0.7432
vn -0.1097 -0.1549 -0.9818
usemtl Material.003
s off
f 13/1/1 3/2/1 6/3/1 19/4/1
f 12/5/2 2/6/2 3/2/2 13/1/2
f 11/7/3 1/8/3 2/6/3 12/5/3
f 3/2/4 2/6/4 8/9/4 9/10/4 6/3/4
f 2/6/5 1/8/5 10/11/5 8/9/5
f 20/12/6 19/4/6 6/3/6 7/13/6
f 18/14/7 20/12/7 7/13/7 5/15/7
f 17/16/8 18/14/8 5/15/8 4/17/8
f 7/13/4 6/3/4 9/10/4 8/9/4 5/15/4
f 5/15/9 8/9/9 10/11/9 4/17/9
f 13/18/10 19/4/10 23/19/10 16/20/10
f 12/21/11 13/18/11 16/20/11 15/22/11
f 11/23/12 12/21/12 15/22/12 14/24/12
f 16/20/13 23/19/13 26/25/13 25/26/13 15/22/13
f 15/22/14 25/26/14 27/27/14 14/24/14
f 20/28/15 24/29/15 23/19/15 19/4/15
f 18/30/16 22/31/16 24/29/16 20/28/16
f 17/32/17 21/33/17 22/31/17 18/30/17
f 24/29/13 22/31/13 25/26/13 26/25/13 23/19/13
f 22/31/18 21/33/18 27/27/18 25/26/18
