# Blender v2.79 (sub 0) OBJ File: 'knife6.blend'
# www.blender.org
mtllib knife6_Blade.mtl
o Cube
v -0.241284 1.293697 0.080968
v -0.268769 1.269122 0.064730
v -0.006731 1.028904 0.082224
v -0.168400 0.483460 0.082224
v -0.263788 0.998883 0.082224
v -0.045570 0.281737 0.082224
v 0.021857 0.495235 0.082224
v -0.073768 1.304030 0.080968
v -0.017379 1.277092 0.064730
v -0.241284 1.293697 0.000000
v -0.341902 1.209395 0.000000
v 0.087256 1.038289 0.000000
v -0.216183 0.353354 0.000000
v -0.333744 0.989122 0.000000
v -0.015015 -0.007541 0.000000
v 0.095415 0.342120 0.000000
v -0.073768 1.304030 0.000000
v 0.069817 1.222448 0.000000
v -0.241284 1.293697 -0.080968
v -0.268769 1.269122 -0.064730
v -0.006731 1.028904 -0.082224
v -0.168400 0.483460 -0.082224
v -0.263788 0.998883 -0.082224
v -0.045570 0.281737 -0.082224
v 0.021857 0.495235 -0.082224
v -0.073768 1.304030 -0.080968
v -0.017379 1.277092 -0.064730
vt 0.000120 0.883603
vt 0.000120 0.744226
vt 0.092609 0.745739
vt 0.078264 0.924533
vt 0.361733 0.746346
vt 0.281521 0.746612
vt 0.256333 0.374457
vt 0.326071 0.277846
vt 0.191245 0.000120
vt 0.186934 0.222171
vt 0.122221 0.366264
vt 0.059148 0.242370
vt 0.346223 0.912737
vt 0.294973 0.999880
vt 0.240895 0.968853
vt 0.265817 0.950114
vt 0.062847 0.987891
vt 0.113844 0.954432
vt 0.346223 0.912737
vt 0.265817 0.950114
vt 0.281521 0.746612
vt 0.361733 0.746346
vt 0.000120 0.744226
vt 0.059148 0.242370
vt 0.122221 0.366264
vt 0.092609 0.745739
vt 0.326071 0.277846
vt 0.256333 0.374457
vt 0.186934 0.222171
vt 0.000120 0.883603
vt 0.078264 0.924533
vt 0.113844 0.954432
vt 0.062847 0.987891
vt 0.294973 0.999880
vt 0.240895 0.968853
vn -0.7178 0.0056 0.6963
vn 0.7095 0.0212 0.7044
vn -0.5125 -0.2951 0.8064
vn 0.5506 -0.1739 0.8164
vn -0.7460 -0.1380 0.6515
vn 0.4735 0.8795 -0.0465
vn -0.6485 0.7611 0.0136
vn 0.6391 0.0725 0.7657
vn -0.0016 0.0217 0.9998
vn 0.0229 -0.5240 0.8514
vn -0.7178 0.0056 -0.6963
vn 0.7095 0.0212 -0.7044
vn -0.5125 -0.2951 -0.8064
vn 0.5506 -0.1739 -0.8164
vn -0.7460 -0.1380 -0.6515
vn 0.4735 0.8795 0.0465
vn -0.6485 0.7611 -0.0136
vn 0.6391 0.0725 -0.7657
vn -0.0016 0.0217 -0.9998
vn 0.0229 -0.5240 -0.8514
usemtl Material.001
s off
f 11/1/1 14/2/1 5/3/1 2/4/1
f 12/5/2 3/6/2 7/7/2 16/8/2
f 15/9/3 6/10/3 4/11/3 13/12/3
f 16/8/4 7/7/4 6/10/4 15/9/4
f 14/2/5 13/12/5 4/11/5 5/3/5
f 18/13/6 17/14/6 8/15/6 9/16/6
f 10/17/7 11/1/7 2/4/7 1/18/7
f 12/5/8 18/13/8 9/16/8 3/6/8
f 5/3/9 4/11/9 6/10/9 7/7/9 3/6/9 9/16/9 2/4/9
f 1/18/10 2/4/10 9/16/10 8/15/10
f 11/19/11 20/20/11 23/21/11 14/22/11
f 12/23/12 16/24/12 25/25/12 21/26/12
f 15/9/13 13/27/13 22/28/13 24/29/13
f 16/24/14 15/9/14 24/29/14 25/25/14
f 14/22/15 23/21/15 22/28/15 13/27/15
f 18/30/16 27/31/16 26/32/16 17/33/16
f 10/34/17 19/35/17 20/20/17 11/19/17
f 12/23/18 21/26/18 27/31/18 18/30/18
f 23/21/19 20/20/19 27/31/19 21/26/19 25/25/19 24/29/19 22/28/19
f 19/35/20 26/32/20 27/31/20 20/20/20
