# Blender v2.79 (sub 0) OBJ File: 'knife13.blend'
# www.blender.org
mtllib knife13_Holder.mtl
o Cube.001
v 0.283473 4.011178 0.131610
v 0.485699 4.092412 0.145556
v 0.696518 4.503403 0.112175
v 0.710359 5.586605 0.091887
v 0.633957 5.756491 0.141415
v 0.739194 5.900696 0.104767
v 0.961362 5.900696 0.104767
v 1.066599 5.756491 0.141415
v 0.966811 5.586605 0.091887
v 0.840336 4.503403 0.112175
v 0.973055 4.041504 0.136591
v 1.108238 3.862228 0.092870
v 0.575190 3.820479 0.124057
v 0.903409 3.810292 0.115559
v 0.648151 4.075442 0.214033
v 0.810603 4.058473 0.211045
v 0.741974 4.503403 0.176111
v 0.798509 4.503403 0.173122
v 0.730166 5.756491 0.231017
v 0.952334 5.756491 0.231017
v 0.776245 5.586605 0.123790
v 0.875644 5.586605 0.123790
v 0.191186 4.011178 0.000000
v 0.485699 4.092412 0.000000
v 0.658480 4.503403 0.000000
v 0.680729 5.586605 0.000000
v 0.633957 5.756491 0.000000
v 0.739194 5.900696 0.000000
v 0.961362 5.900696 0.000000
v 1.066599 5.756491 0.000000
v 0.996441 5.586605 0.000000
v 0.878374 4.503403 0.000000
v 0.973055 4.115997 0.000000
v 1.663383 3.976155 0.000000
v 0.283473 4.011178 -0.131610
v 0.485699 4.092412 -0.145556
v 0.696518 4.503403 -0.112175
v 0.710359 5.586605 -0.091887
v 0.633957 5.756491 -0.141415
v 0.739194 5.900696 -0.104767
v 0.961362 5.900696 -0.104767
v 1.066599 5.756491 -0.141415
v 0.966811 5.586605 -0.091887
v 0.840336 4.503403 -0.112175
v 0.973055 4.041504 -0.136591
v 1.108238 3.862228 -0.092870
v 0.575190 3.820479 -0.124057
v 0.903409 3.810292 -0.115559
v 0.648151 4.075442 -0.214033
v 0.810603 4.058473 -0.211045
v 0.741974 4.503403 -0.176111
v 0.798509 4.503403 -0.173122
v 0.730166 5.756491 -0.231017
v 0.952334 5.756491 -0.231017
v 0.776245 5.586605 -0.123790
v 0.875644 5.586605 -0.123790
vt 0.899073 0.190587
vt 0.979063 0.102851
vt 0.917067 0.095189
vt 0.851019 0.158198
vt 0.649231 0.351472
vt 0.631422 0.808471
vt 0.672105 0.804466
vt 0.696779 0.345846
vt 0.828680 0.351112
vt 0.783251 0.344132
vt 0.604435 0.204431
vt 0.643006 0.149572
vt 0.820305 0.804561
vt 0.778891 0.802273
vt 0.449203 0.129645
vt 0.590077 0.089961
vt 0.822231 0.883147
vt 0.773693 0.865606
vt 0.767909 0.935812
vt 0.753110 0.901822
vt 0.687999 0.935812
vt 0.700572 0.905194
vt 0.633194 0.890079
vt 0.679259 0.871227
vt 0.711918 0.156355
vt 0.666234 0.068785
vt 0.788854 0.057153
vt 0.774628 0.158125
vt 0.727238 0.343207
vt 0.750634 0.342199
vt 0.747781 0.861216
vt 0.707323 0.864789
vt 0.749523 0.801283
vt 0.711256 0.798533
vt 0.851019 0.158198
vt 0.917067 0.095189
vt 0.696779 0.345846
vt 0.672105 0.804466
vt 0.783251 0.344132
vt 0.643006 0.149572
vt 0.778891 0.802273
vt 0.590077 0.089961
vt 0.773693 0.865606
vt 0.753110 0.901822
vt 0.700572 0.905194
vt 0.679259 0.871227
vt 0.711918 0.156355
vt 0.666234 0.068785
vt 0.774628 0.158125
vt 0.788854 0.057153
vt 0.750634 0.342199
vt 0.727238 0.343207
vt 0.707323 0.864789
vt 0.747781 0.861216
vt 0.711256 0.798533
vt 0.749523 0.801283
vn -0.3118 0.9445 0.1038
vn 0.9441 -0.1036 0.3131
vn -0.8961 0.4236 0.1323
vn 0.9405 0.2582 0.2211
vn -0.9490 0.0188 0.3147
vn 0.2142 0.4343 0.8749
vn -0.9280 -0.3536 0.1179
vn -0.8078 0.5895 0.0000
vn 0.0000 1.0000 0.0000
vn 0.8078 0.5895 0.0000
vn 0.8821 -0.4575 0.1120
vn 0.2669 -0.1667 0.9492
vn -0.1946 -0.1408 0.9707
vn 0.0028 -0.3458 0.9383
vn 0.0336 0.0834 0.9959
vn -0.5048 0.2535 0.8252
vn 0.5550 0.1449 0.8191
vn 0.0000 0.6587 0.7524
vn 0.0000 -0.5337 0.8456
vn 0.0191 0.0459 0.9988
vn -0.6518 0.0399 0.7573
vn -0.5176 -0.5052 0.6905
vn -0.5627 0.5642 0.6042
vn 0.5722 -0.0274 0.8196
vn 0.4246 -0.5517 0.7179
vn 0.5173 0.5452 0.6597
vn -0.3118 0.9445 -0.1038
vn 0.9441 -0.1036 -0.3131
vn -0.8961 0.4236 -0.1323
vn 0.9405 0.2582 -0.2211
vn -0.9490 0.0188 -0.3147
vn 0.2142 0.4343 -0.8749
vn -0.9280 -0.3536 -0.1179
vn 0.8821 -0.4575 -0.1120
vn 0.2669 -0.1667 -0.9492
vn -0.1946 -0.1408 -0.9707
vn 0.0028 -0.3458 -0.9383
vn 0.0336 0.0834 -0.9959
vn -0.5048 0.2535 -0.8252
vn 0.5550 0.1449 -0.8191
vn 0.0000 0.6587 -0.7524
vn 0.0000 -0.5337 -0.8456
vn 0.0191 0.0459 -0.9988
vn -0.6518 0.0399 -0.7573
vn -0.5176 -0.5052 -0.6905
vn -0.5627 0.5642 -0.6042
vn 0.5722 -0.0274 -0.8196
vn 0.4246 -0.5517 -0.7179
vn 0.5173 0.5452 -0.6597
usemtl Material.001
s off
f 24/1/1 23/2/1 1/3/1 2/4/1
f 32/5/2 31/6/2 9/7/2 10/8/2
f 25/9/3 24/1/3 2/4/3 3/10/3
f 33/11/4 32/5/4 10/8/4 11/12/4
f 26/13/5 25/9/5 3/10/5 4/14/5
f 34/15/6 33/11/6 11/12/6 12/16/6
f 27/17/7 26/13/7 4/14/7 5/18/7
f 28/19/8 27/17/8 5/18/8 6/20/8
f 29/21/9 28/19/9 6/20/9 7/22/9
f 30/23/10 29/21/10 7/22/10 8/24/10
f 31/6/11 30/23/11 8/24/11 9/7/11
f 16/25/12 14/26/12 12/16/12 11/12/12
f 2/4/13 1/3/13 13/27/13 15/28/13
f 15/28/14 13/27/14 14/26/14 16/25/14
f 15/28/15 16/25/15 18/29/15 17/30/15
f 2/4/16 15/28/16 17/30/16 3/10/16
f 10/8/17 18/29/17 16/25/17 11/12/17
f 7/22/18 6/20/18 19/31/18 20/32/18
f 20/32/19 19/31/19 21/33/19 22/34/19
f 22/34/20 21/33/20 17/30/20 18/29/20
f 3/10/21 17/30/21 21/33/21 4/14/21
f 4/14/22 21/33/22 19/31/22 5/18/22
f 5/18/23 19/31/23 6/20/23
f 9/7/24 22/34/24 18/29/24 10/8/24
f 8/24/25 20/32/25 22/34/25 9/7/25
f 7/22/26 20/32/26 8/24/26
f 24/1/27 36/35/27 35/36/27 23/2/27
f 32/5/28 44/37/28 43/38/28 31/6/28
f 25/9/29 37/39/29 36/35/29 24/1/29
f 33/11/30 45/40/30 44/37/30 32/5/30
f 26/13/31 38/41/31 37/39/31 25/9/31
f 34/15/32 46/42/32 45/40/32 33/11/32
f 27/17/33 39/43/33 38/41/33 26/13/33
f 28/19/8 40/44/8 39/43/8 27/17/8
f 29/21/9 41/45/9 40/44/9 28/19/9
f 30/23/10 42/46/10 41/45/10 29/21/10
f 31/6/34 43/38/34 42/46/34 30/23/34
f 50/47/35 45/40/35 46/42/35 48/48/35
f 36/35/36 49/49/36 47/50/36 35/36/36
f 49/49/37 50/47/37 48/48/37 47/50/37
f 49/49/38 51/51/38 52/52/38 50/47/38
f 36/35/39 37/39/39 51/51/39 49/49/39
f 44/37/40 45/40/40 50/47/40 52/52/40
f 41/45/41 54/53/41 53/54/41 40/44/41
f 54/53/42 56/55/42 55/56/42 53/54/42
f 56/55/43 52/52/43 51/51/43 55/56/43
f 37/39/44 38/41/44 55/56/44 51/51/44
f 38/41/45 39/43/45 53/54/45 55/56/45
f 39/43/46 40/44/46 53/54/46
f 43/38/47 44/37/47 52/52/47 56/55/47
f 42/46/48 43/38/48 56/55/48 54/53/48
f 41/45/49 42/46/49 54/53/49
