# Blender v2.79 (sub 0) OBJ File: 'knife14.blend'
# www.blender.org
mtllib knife14_Blade.mtl
o Cube
v 0.256499 0.526916 0.082647
v 0.264555 1.329748 0.081828
v 0.212685 0.403357 0.071984
v 0.293150 0.519890 0.080989
v 0.279359 0.620020 0.081849
v 0.450736 0.923893 0.082416
v 0.419058 1.031094 0.082668
v 0.568843 1.468931 0.084305
v 0.459645 1.450645 0.084347
v 0.588634 1.950597 0.083549
v 0.476555 1.951412 0.083717
v 0.566896 2.322064 0.082521
v 0.369516 2.575986 0.080550
v 0.365937 2.986351 0.081432
v 0.456480 3.119820 0.080486
v 0.249241 3.215677 0.066986
v 0.481202 3.475399 0.163293
v 0.225248 3.074721 0.066986
v 0.306223 2.363942 0.066986
v 0.396195 2.234982 0.066986
v 0.312221 1.965066 0.066986
v 0.212679 0.559898 0.000000
v 0.217139 1.274788 0.000000
v -0.005383 0.010565 0.000000
v 0.347019 0.429937 0.000000
v 0.321107 0.575044 0.000000
v 0.533585 0.911899 0.000000
v 0.492126 1.031094 0.000000
v 0.652780 1.564880 0.000000
v 0.549132 1.528604 0.000000
v 0.678692 2.010566 0.000000
v 0.559497 2.005383 0.000000
v 0.642415 2.337056 0.000000
v 0.462471 2.596975 0.000000
v 0.449975 2.989353 0.000000
v 0.544946 3.131809 0.000000
v 0.327513 3.294258 0.000000
v 0.462471 3.431715 0.000000
v 0.256499 0.526916 -0.082647
v 0.264555 1.329748 -0.081828
v 0.212685 0.403357 -0.071984
v 0.293150 0.519890 -0.080989
v 0.279359 0.620020 -0.081849
v 0.450736 0.923893 -0.082416
v 0.419058 1.031094 -0.082668
v 0.568843 1.468931 -0.084305
v 0.459645 1.450645 -0.084347
v 0.588634 1.950597 -0.083549
v 0.476555 1.951412 -0.083717
v 0.566896 2.322064 -0.082521
v 0.369516 2.575986 -0.080550
v 0.365937 2.986351 -0.081432
v 0.456480 3.119820 -0.080486
v 0.249241 3.215677 -0.066986
v 0.481202 3.475399 -0.163293
v 0.225248 3.074721 -0.066986
v 0.306223 2.363942 -0.066986
v 0.396195 2.234982 -0.066986
v 0.312221 1.965066 -0.066986
vt 0.264028 0.462483
vt 0.230203 0.439811
vt 0.186318 0.320134
vt 0.219382 0.318717
vt 0.232689 0.466871
vt 0.200553 0.440688
vt 0.246095 0.591414
vt 0.217861 0.573897
vt 0.216486 0.598392
vt 0.190352 0.577112
vt 0.214702 0.677949
vt 0.190500 0.668671
vt 0.167840 0.734447
vt 0.139132 0.723323
vt 0.151496 0.830293
vt 0.122571 0.825815
vt 0.159957 0.870452
vt 0.134702 0.860161
vt 0.193196 0.185139
vt 0.167354 0.201895
vt 0.169066 0.172594
vt 0.191297 0.144398
vt 0.105891 0.903603
vt 0.086136 0.877797
vt 0.096289 0.026397
vt 0.148606 0.140239
vt 0.134549 0.172332
vt 0.108365 0.183147
vt 0.111261 0.951619
vt 0.071567 0.967238
vt 0.103615 0.381289
vt 0.132835 0.412181
vt 0.225802 0.282921
vt 0.193365 0.289359
vt 0.084314 0.841824
vt 0.131361 0.669532
vt 0.156667 0.642907
vt 0.148500 0.576445
vt 0.186318 0.320134
vt 0.230203 0.439811
vt 0.200553 0.440688
vt 0.217861 0.573897
vt 0.190352 0.577112
vt 0.190500 0.668671
vt 0.139132 0.723323
vt 0.122571 0.825815
vt 0.134702 0.860161
vt 0.169066 0.172594
vt 0.167354 0.201895
vt 0.086136 0.877797
vt 0.134549 0.172332
vt 0.148606 0.140239
vt 0.071567 0.967238
vt 0.132835 0.412181
vt 0.193365 0.289359
vt 0.148500 0.576445
vt 0.156667 0.642907
vt 0.131361 0.669532
vt 0.084314 0.841824
vn 0.7728 -0.2479 0.5842
vn -0.1991 0.7773 0.5968
vn 0.7458 -0.1959 0.6367
vn -0.0153 0.8337 0.5520
vn 0.7484 -0.1836 0.6373
vn 0.5796 0.4283 0.6933
vn 0.6741 0.0127 0.7385
vn 0.6383 -0.4270 0.6405
vn 0.9009 0.1444 0.4093
vn 0.3336 0.5870 0.7377
vn -0.7431 0.2796 0.6080
vn 0.7220 -0.6870 0.0826
vn 0.4925 -0.4107 0.7674
vn -0.8749 0.0075 0.4843
vn 0.6602 -0.3961 0.6381
vn 0.7157 0.2305 0.6592
vn -0.0528 0.0023 0.9986
vn 0.7728 -0.2479 -0.5842
vn -0.1991 0.7773 -0.5968
vn 0.7458 -0.1959 -0.6367
vn -0.0153 0.8337 -0.5520
vn 0.7484 -0.1836 -0.6373
vn 0.5796 0.4283 -0.6933
vn 0.6741 0.0127 -0.7385
vn 0.6383 -0.4270 -0.6405
vn 0.9009 0.1444 -0.4093
vn 0.3336 0.5870 -0.7377
vn -0.7431 0.2796 -0.6080
vn 0.7220 -0.6870 -0.0826
vn 0.4925 -0.4107 -0.7674
vn -0.8749 0.0075 -0.4843
vn 0.6602 -0.3961 -0.6381
vn 0.7157 0.2305 -0.6592
vn -0.0528 0.0023 -0.9986
usemtl Material.002
s off
f 29/1/1 8/2/1 7/3/1 28/4/1
f 30/5/2 9/6/2 8/2/2 29/1/2
f 31/7/3 10/8/3 9/6/3 30/5/3
f 32/9/4 11/10/4 10/8/4 31/7/4
f 33/11/5 12/12/5 11/10/5 32/9/5
f 34/13/6 13/14/6 12/12/6 33/11/6
f 35/15/7 14/16/7 13/14/7 34/13/7
f 36/17/8 15/18/8 14/16/8 35/15/8
f 26/19/9 5/20/9 4/21/9 25/22/9
f 37/23/10 16/24/10 15/18/10 36/17/10
f 24/25/11 3/26/11 1/27/11 22/28/11
f 38/29/12 17/30/12 16/24/12 37/23/12
f 25/22/13 4/21/13 3/26/13 24/25/13
f 23/31/14 22/28/14 1/27/14 2/32/14
f 27/33/15 6/34/15 5/20/15 26/19/15
f 28/4/16 7/3/16 6/34/16 27/33/16
f 5/20/17 6/34/17 7/3/17 8/2/17 9/6/17 10/8/17 11/10/17 12/12/17 13/14/17 14/16/17 15/18/17 16/24/17 18/35/17 19/36/17 20/37/17 21/38/17 2/32/17 1/27/17 3/26/17 4/21/17
f 29/1/18 28/4/18 45/39/18 46/40/18
f 30/5/19 29/1/19 46/40/19 47/41/19
f 31/7/20 30/5/20 47/41/20 48/42/20
f 32/9/21 31/7/21 48/42/21 49/43/21
f 33/11/22 32/9/22 49/43/22 50/44/22
f 34/13/23 33/11/23 50/44/23 51/45/23
f 35/15/24 34/13/24 51/45/24 52/46/24
f 36/17/25 35/15/25 52/46/25 53/47/25
f 26/19/26 25/22/26 42/48/26 43/49/26
f 37/23/27 36/17/27 53/47/27 54/50/27
f 24/25/28 22/28/28 39/51/28 41/52/28
f 38/29/29 37/23/29 54/50/29 55/53/29
f 25/22/30 24/25/30 41/52/30 42/48/30
f 23/31/31 40/54/31 39/51/31 22/28/31
f 27/33/32 26/19/32 43/49/32 44/55/32
f 28/4/33 27/33/33 44/55/33 45/39/33
f 43/49/34 42/48/34 41/52/34 39/51/34 40/54/34 59/56/34 58/57/34 57/58/34 56/59/34 54/50/34 53/47/34 52/46/34 51/45/34 50/44/34 49/43/34 48/42/34 47/41/34 46/40/34 45/39/34 44/55/34
