# Blender v2.79 (sub 0) OBJ File: 'knife10.blend'
# www.blender.org
mtllib knife10_Holder.mtl
o Cube.001
v 0.825191 3.577017 0.265822
v -0.221820 3.582656 0.265822
v 0.283849 3.577017 0.265822
v 0.987777 3.676184 0.218109
v 0.966166 3.734909 0.218109
v 0.819552 3.650324 0.265822
v 0.419184 3.655963 0.265822
v 0.351516 3.983024 0.082292
v 0.469935 4.259335 0.082292
v 0.453018 4.417226 0.082292
v 0.345877 4.704814 0.082292
v 0.317682 5.212323 0.082292
v 0.509408 5.889002 0.082292
v 0.531964 6.058171 0.082292
v -0.189826 6.058171 0.082292
v -0.291328 5.308186 0.082292
v -0.313884 4.428504 0.082292
v -0.218021 4.022497 0.082292
v -0.251855 3.695436 0.265822
v -0.635306 3.706713 0.265822
v -0.832671 3.560100 0.193719
v -0.781920 3.492432 0.193719
v -0.612751 3.622129 0.265822
v 0.283849 3.577017 0.120296
v -0.221820 3.582656 0.153992
v 0.168886 3.991862 0.128261
v 0.351795 4.335284 0.128261
v 0.293409 4.475561 0.128261
v 0.187391 4.721551 0.141995
v 0.140952 5.181955 0.128261
v 0.414870 5.857017 0.128261
v 0.317018 5.933438 0.128261
v -0.065298 5.933438 0.128261
v -0.156137 5.267123 0.128261
v -0.182786 4.485580 0.128261
v -0.039218 4.026930 0.128261
v -0.251855 3.695436 0.132308
v 0.419184 3.655963 0.141844
v 0.825191 3.577017 0.000000
v -0.221820 3.582656 0.000000
v 0.283849 3.577017 0.000000
v 0.987777 3.676184 0.000000
v 0.966166 3.734909 0.000000
v 0.819552 3.650324 0.000000
v 0.419184 3.655963 0.000000
v 0.351516 3.983024 0.000000
v 0.469935 4.259335 0.000000
v 0.453018 4.417226 0.000000
v 0.345877 4.704814 0.000000
v 0.317682 5.212323 0.000000
v 0.509408 5.889002 0.000000
v 0.531964 6.058171 0.000000
v -0.189826 6.058171 0.000000
v -0.291328 5.308186 0.000000
v -0.313884 4.428504 0.000000
v -0.218021 4.022497 0.000000
v -0.251855 3.695436 0.000000
v -0.635306 3.706713 0.000000
v -0.832671 3.560100 0.000000
v -0.781920 3.492432 0.000000
v -0.612751 3.622129 0.000000
v 0.825191 3.577017 -0.265822
v -0.221820 3.582656 -0.265822
v 0.283849 3.577017 -0.265822
v 0.987777 3.676184 -0.218109
v 0.966166 3.734909 -0.218109
v 0.819552 3.650324 -0.265822
v 0.419184 3.655963 -0.265822
v 0.351516 3.983024 -0.082292
v 0.469935 4.259335 -0.082292
v 0.453018 4.417226 -0.082292
v 0.345877 4.704814 -0.082292
v 0.317682 5.212323 -0.082292
v 0.509408 5.889002 -0.082292
v 0.531964 6.058171 -0.082292
v -0.189826 6.058171 -0.082292
v -0.291328 5.308186 -0.082292
v -0.313884 4.428504 -0.082292
v -0.218021 4.022497 -0.082292
v -0.251855 3.695436 -0.265822
v -0.635306 3.706713 -0.265822
v -0.832671 3.560100 -0.193719
v -0.781920 3.492432 -0.193719
v -0.612751 3.622129 -0.265822
v 0.283849 3.577017 -0.120296
v -0.221820 3.582656 -0.153992
v 0.168886 3.991862 -0.128261
v 0.351795 4.335284 -0.128261
v 0.293409 4.475561 -0.128261
v 0.187391 4.721551 -0.141995
v 0.140952 5.181955 -0.128261
v 0.414870 5.857017 -0.128261
v 0.317018 5.933438 -0.128261
v -0.065298 5.933438 -0.128261
v -0.156137 5.267123 -0.128261
v -0.182786 4.485580 -0.128261
v -0.039218 4.026930 -0.128261
v -0.251855 3.695436 -0.132308
v 0.419184 3.655963 -0.141844
vt 0.529186 0.227912
vt 0.552485 0.242726
vt 0.550168 0.250270
vt 0.521968 0.244120
vt 0.939937 0.182868
vt 0.906681 0.242826
vt 0.791703 0.231450
vt 0.776491 0.198971
vt 0.784008 0.178145
vt 0.565302 0.220892
vt 0.577558 0.251708
vt 0.641367 0.177211
vt 0.670813 0.198473
vt 0.671666 0.231975
vt 0.802521 0.553558
vt 0.786051 0.550724
vt 0.802599 0.491572
vt 0.817806 0.494792
vt 0.948765 0.298183
vt 0.909557 0.256119
vt 0.933846 0.253237
vt 0.972056 0.255838
vt 0.793956 0.658785
vt 0.776830 0.658503
vt 0.799067 0.804104
vt 0.782778 0.799445
vt 0.774078 0.837762
vt 0.767840 0.820588
vt 0.751010 0.554129
vt 0.770452 0.503317
vt 0.655991 0.809742
vt 0.668757 0.799257
vt 0.851263 0.335722
vt 0.824916 0.304989
vt 0.633374 0.669919
vt 0.649338 0.668718
vt 0.632074 0.496034
vt 0.648383 0.496690
vt 0.932402 0.246155
vt 0.972056 0.238709
vt 0.806466 0.463626
vt 0.822609 0.464215
vt 0.637994 0.408283
vt 0.657432 0.405115
vt 0.796812 0.398004
vt 0.817022 0.401691
vt 0.745078 0.792127
vt 0.764406 0.784208
vt 0.537723 0.294414
vt 0.573329 0.264152
vt 0.637731 0.316889
vt 0.611054 0.339494
vt 0.819405 0.270301
vt 0.643851 0.282430
vt 0.700568 0.402333
vt 0.676312 0.506472
vt 0.782347 0.474848
vt 0.688509 0.782278
vt 0.739614 0.648035
vt 0.750085 0.395072
vt 0.677918 0.661056
vt 0.550168 0.250270
vt 0.552485 0.242726
vt 0.776491 0.198971
vt 0.791703 0.231450
vt 0.906681 0.242826
vt 0.577558 0.251708
vt 0.671666 0.231975
vt 0.670813 0.198473
vt 0.802599 0.491572
vt 0.786051 0.550724
vt 0.933846 0.253237
vt 0.909557 0.256119
vt 0.776830 0.658503
vt 0.782778 0.799445
vt 0.767840 0.820588
vt 0.770452 0.503317
vt 0.751010 0.554129
vt 0.668757 0.799257
vt 0.824916 0.304989
vt 0.649338 0.668718
vt 0.648383 0.496690
vt 0.932402 0.246155
vt 0.806466 0.463626
vt 0.657432 0.405115
vt 0.796812 0.398004
vt 0.764406 0.784208
vt 0.745078 0.792127
vt 0.637731 0.316889
vt 0.573329 0.264152
vt 0.819405 0.270301
vt 0.643851 0.282430
vt 0.676312 0.506472
vt 0.700568 0.402333
vt 0.782347 0.474848
vt 0.688509 0.782278
vt 0.739614 0.648035
vt 0.750085 0.395072
vt 0.677918 0.661056
vn -0.8000 -0.6000 0.0000
vn 0.0000 -1.0000 0.0000
vn 0.6084 -0.7936 0.0000
vn -0.1005 -0.9949 0.0000
vn 0.9371 0.3491 0.0000
vn -0.4997 0.8662 0.0000
vn 0.9985 0.0555 0.0000
vn 0.9621 -0.2726 0.0000
vn 0.9912 -0.1322 0.0000
vn 0.3367 0.1104 0.9351
vn 0.0000 1.0000 0.0000
vn 0.0141 0.9999 0.0000
vn -0.9910 0.1341 0.0000
vn -0.9997 0.0256 0.0000
vn 0.9385 0.3454 0.0000
vn 0.9943 0.1065 0.0000
vn -0.9732 -0.2298 0.0000
vn 0.9191 -0.3939 0.0000
vn 0.2483 0.0761 0.9657
vn 0.5207 -0.8537 0.0000
vn 0.0294 0.9996 0.0000
vn -0.5963 0.8027 0.0000
vn -0.0112 -0.9999 0.0000
vn -0.0145 -0.0123 0.9998
vn -0.2700 -0.0748 0.9600
vn 0.3514 0.0887 0.9320
vn 0.0000 0.3458 0.9383
vn 0.2991 0.0366 0.9535
vn 0.2576 -0.1252 0.9581
vn -0.3095 0.0420 0.9500
vn 0.3430 -0.1182 0.9319
vn -0.3269 0.0097 0.9450
vn -0.0066 -0.0014 1.0000
vn -0.9947 0.1029 0.0000
vn 0.9793 0.2026 0.0000
vn 0.2481 0.2230 0.9427
vn -0.2493 0.1715 0.9531
vn -0.0086 0.0259 0.9996
vn 0.0587 0.9983 0.0000
vn 0.3367 0.1104 -0.9351
vn 0.2483 0.0761 -0.9657
vn -0.0145 -0.0123 -0.9998
vn -0.2700 -0.0748 -0.9600
vn 0.3514 0.0887 -0.9320
vn 0.0000 0.3458 -0.9383
vn 0.2991 0.0366 -0.9535
vn 0.2576 -0.1252 -0.9581
vn -0.3095 0.0420 -0.9500
vn 0.3430 -0.1182 -0.9319
vn -0.3269 0.0097 -0.9450
vn -0.0066 -0.0014 -1.0000
vn 0.2481 0.2230 -0.9427
vn -0.2493 0.1715 -0.9531
vn -0.0086 0.0259 -0.9996
usemtl Material
s off
f 60/1/1 22/2/1 21/3/1 59/4/1
f 39/5/2 1/6/2 3/7/2 24/8/2 41/9/2
f 61/10/3 23/11/3 22/2/3 60/1/3
f 40/12/4 25/13/4 2/14/4 23/11/4 61/10/4
f 49/15/5 11/16/5 10/17/5 48/18/5
f 44/19/6 6/20/6 5/21/6 43/22/6
f 50/23/7 12/24/7 11/16/7 49/15/7
f 51/25/8 13/26/8 12/24/8 50/23/8
f 52/27/9 14/28/9 13/26/9 51/25/9
f 10/17/10 11/16/10 29/29/10 28/30/10
f 53/31/11 15/32/11 14/28/11 52/27/11
f 45/33/12 38/34/12 6/20/12 44/19/12
f 54/35/13 16/36/13 15/32/13 53/31/13
f 55/37/14 17/38/14 16/36/14 54/35/14
f 43/22/15 5/21/15 4/39/15 42/40/15
f 48/18/16 10/17/16 9/41/16 47/42/16
f 56/43/17 18/44/17 17/38/17 55/37/17
f 47/42/18 9/41/18 8/45/18 46/46/18
f 13/26/19 14/28/19 32/47/19 31/48/19
f 42/40/20 4/39/20 1/6/20 39/5/20
f 58/49/21 20/50/21 37/51/21 57/52/21
f 59/4/22 21/3/22 20/50/22 58/49/22
f 2/14/23 25/13/23 24/8/23 3/7/23
f 7/53/24 19/54/24 20/50/24 21/3/24 22/2/24 23/11/24 2/14/24 3/7/24 1/6/24 4/39/24 5/21/24 6/20/24
f 17/38/25 18/44/25 36/55/25 35/56/25
f 9/41/26 10/17/26 28/30/26 27/57/26
f 14/28/27 15/32/27 33/58/27 32/47/27
f 11/16/28 12/24/28 30/59/28 29/29/28
f 8/45/29 9/41/29 27/57/29 26/60/29
f 15/32/30 16/36/30 34/61/30 33/58/30
f 12/24/31 13/26/31 31/48/31 30/59/31
f 16/36/32 17/38/32 35/56/32 34/61/32
f 30/59/33 31/48/33 32/47/33 33/58/33 34/61/33 35/56/33 36/55/33 26/60/33 27/57/33 28/30/33 29/29/33
f 37/51/21 20/50/21 19/54/21
f 56/43/34 57/52/34 37/51/34 18/44/34
f 6/20/12 38/34/12 7/53/12
f 8/45/35 38/34/35 45/33/35 46/46/35
f 8/45/36 26/60/36 38/34/36
f 36/55/37 18/44/37 37/51/37
f 36/55/38 37/51/38 38/34/38 26/60/38
f 38/34/39 37/51/39 19/54/39 7/53/39
f 60/1/1 59/4/1 82/62/1 83/63/1
f 39/5/2 41/9/2 85/64/2 64/65/2 62/66/2
f 61/10/3 60/1/3 83/63/3 84/67/3
f 40/12/4 61/10/4 84/67/4 63/68/4 86/69/4
f 49/15/5 48/18/5 71/70/5 72/71/5
f 44/19/6 43/22/6 66/72/6 67/73/6
f 50/23/7 49/15/7 72/71/7 73/74/7
f 51/25/8 50/23/8 73/74/8 74/75/8
f 52/27/9 51/25/9 74/75/9 75/76/9
f 71/70/40 89/77/40 90/78/40 72/71/40
f 53/31/11 52/27/11 75/76/11 76/79/11
f 45/33/12 44/19/12 67/73/12 99/80/12
f 54/35/13 53/31/13 76/79/13 77/81/13
f 55/37/14 54/35/14 77/81/14 78/82/14
f 43/22/15 42/40/15 65/83/15 66/72/15
f 48/18/16 47/42/16 70/84/16 71/70/16
f 56/43/17 55/37/17 78/82/17 79/85/17
f 47/42/18 46/46/18 69/86/18 70/84/18
f 74/75/41 92/87/41 93/88/41 75/76/41
f 42/40/20 39/5/20 62/66/20 65/83/20
f 58/49/21 57/52/21 98/89/21 81/90/21
f 59/4/22 58/49/22 81/90/22 82/62/22
f 63/68/23 64/65/23 85/64/23 86/69/23
f 68/91/42 67/73/42 66/72/42 65/83/42 62/66/42 64/65/42 63/68/42 84/67/42 83/63/42 82/62/42 81/90/42 80/92/42
f 78/82/43 96/93/43 97/94/43 79/85/43
f 70/84/44 88/95/44 89/77/44 71/70/44
f 75/76/45 93/88/45 94/96/45 76/79/45
f 72/71/46 90/78/46 91/97/46 73/74/46
f 69/86/47 87/98/47 88/95/47 70/84/47
f 76/79/48 94/96/48 95/99/48 77/81/48
f 73/74/49 91/97/49 92/87/49 74/75/49
f 77/81/50 95/99/50 96/93/50 78/82/50
f 91/97/51 90/78/51 89/77/51 88/95/51 87/98/51 97/94/51 96/93/51 95/99/51 94/96/51 93/88/51 92/87/51
f 98/89/21 80/92/21 81/90/21
f 56/43/34 79/85/34 98/89/34 57/52/34
f 67/73/12 68/91/12 99/80/12
f 69/86/35 46/46/35 45/33/35 99/80/35
f 69/86/52 99/80/52 87/98/52
f 97/94/53 98/89/53 79/85/53
f 97/94/54 87/98/54 99/80/54 98/89/54
f 99/80/39 68/91/39 80/92/39 98/89/39
