# Blender v2.79 (sub 0) OBJ File: 'knife22.blend'
# www.blender.org
mtllib knife22_Blade.mtl
o Cube_Cube.004
v 1.115266 0.925441 0.271914
v 0.764678 0.543206 0.271914
v 0.408545 0.247714 0.150344
v 0.635792 0.595024 0.271914
v 0.568526 1.025111 0.227886
v 0.417695 1.245597 0.271914
v 0.454381 1.521669 0.207411
v 0.366676 1.691718 0.271914
v 0.122667 3.185374 0.271915
v 0.284057 1.873038 0.271914
v 1.319083 1.364284 0.175826
v 1.195807 1.358805 0.271914
v 0.950152 1.408883 0.271914
v 0.598358 1.853600 0.193042
v 0.479026 2.422141 0.271914
v 0.684093 2.930633 0.271914
v 0.618039 3.565360 0.271914
v 0.533334 3.571803 0.109058
v -1.115266 0.925441 0.271914
v -0.764678 0.543206 0.271914
v -0.408545 0.247714 0.150344
v -0.635792 0.595024 0.271914
v -0.568526 1.025111 0.227886
v -0.417695 1.245597 0.271914
v -0.454381 1.521669 0.207411
v -0.366676 1.691718 0.271914
v -0.122667 3.185374 0.271915
v -0.284057 1.873038 0.271914
v -1.319083 1.364284 0.175826
v -1.195807 1.358805 0.271914
v -0.950152 1.408883 0.271914
v -0.598358 1.853600 0.193042
v -0.479026 2.422141 0.271914
v -0.684093 2.930633 0.271914
v -0.618039 3.565360 0.271914
v -0.533334 3.571803 0.109058
v 1.115266 0.925441 -0.271914
v 0.764678 0.543206 -0.271914
v 0.408545 0.247714 -0.150344
v 0.635792 0.595024 -0.271914
v 0.568526 1.025111 -0.227886
v 0.417695 1.245597 -0.271914
v 0.454381 1.521669 -0.207411
v 0.366676 1.691718 -0.271914
v 0.122667 3.185374 -0.271915
v 0.284057 1.873038 -0.271914
v 1.319083 1.364284 -0.175826
v 1.195807 1.358805 -0.271914
v 0.950152 1.408883 -0.271914
v 0.598358 1.853600 -0.193042
v 0.479026 2.422141 -0.271914
v 0.684093 2.930633 -0.271914
v 0.618039 3.565360 -0.271914
v 0.533334 3.571803 -0.109058
v -1.115266 0.925441 -0.271914
v -0.764678 0.543206 -0.271914
v -0.408545 0.247714 -0.150344
v -0.635792 0.595024 -0.271914
v -0.568526 1.025111 -0.227886
v -0.417695 1.245597 -0.271914
v -0.454381 1.521669 -0.207411
v -0.366676 1.691718 -0.271914
v -0.122667 3.185374 -0.271915
v -0.284057 1.873038 -0.271914
v -1.319083 1.364284 -0.175826
v -1.195807 1.358805 -0.271914
v -0.950152 1.408883 -0.271914
v -0.598358 1.853600 -0.193042
v -0.479026 2.422141 -0.271914
v -0.684093 2.930633 -0.271914
v -0.618039 3.565360 -0.271914
v -0.533334 3.571803 -0.109058
v 1.254980 0.867911 0.000000
v 0.819467 0.389795 0.000000
v 0.227739 0.091564 0.000000
v 0.510819 0.612065 0.000000
v 0.460595 0.991027 0.000000
v 0.275680 1.251278 0.000000
v 0.346450 1.493266 0.000000
v 0.298509 1.657635 0.000000
v 0.070617 2.968955 0.000000
v 0.170445 1.713982 0.000000
v 1.491671 1.525913 0.000000
v 1.245118 1.424553 0.000000
v 1.013160 1.471891 0.000000
v 0.672324 1.883734 0.000000
v 0.577648 2.413923 0.000000
v 0.823807 2.873104 0.000000
v 0.686526 3.853006 0.000000
v 0.615518 3.777265 0.000000
v -1.254980 0.867911 0.000000
v -0.819467 0.389795 0.000000
v -0.227739 0.091564 0.000000
v -0.510819 0.612065 0.000000
v -0.460595 0.991027 0.000000
v -0.275680 1.251278 0.000000
v -0.346450 1.493266 0.000000
v -0.298509 1.657635 0.000000
v -0.070617 2.968955 0.000000
v -0.170445 1.713982 0.000000
v -1.491671 1.525913 0.000000
v -1.245118 1.424553 0.000000
v -1.013160 1.471891 0.000000
v -0.672324 1.883734 0.000000
v -0.577648 2.413923 0.000000
v -0.823807 2.873104 0.000000
v -0.686526 3.853006 0.000000
v -0.615518 3.777265 0.000000
vt 0.085369 0.394844
vt 0.156275 0.390743
vt 0.139508 0.445574
vt 0.084299 0.435863
vt 0.132034 0.495000
vt 0.055718 0.459359
vt 0.126419 0.833439
vt 0.054266 0.778155
vt 0.337512 0.360414
vt 0.276686 0.319441
vt 0.321255 0.281826
vt 0.378549 0.318201
vt 0.429139 0.282933
vt 0.359181 0.263858
vt 0.274313 0.199375
vt 0.329790 0.154136
vt 0.276400 0.481976
vt 0.215946 0.469154
vt 0.181706 0.132034
vt 0.212715 0.064237
vt 0.275305 0.619879
vt 0.198778 0.632907
vt 0.084339 0.245049
vt 0.152618 0.255945
vt 0.131449 0.317940
vt 0.060642 0.328385
vt 0.322994 0.740703
vt 0.284184 0.755677
vt 0.304830 0.956777
vt 0.249692 0.885930
vt 0.086632 0.153622
vt 0.155191 0.145715
vt 0.276774 0.955101
vt 0.229607 0.919299
vt 0.106697 0.072750
vt 0.065483 0.029504
vt 0.085369 0.394844
vt 0.084299 0.435863
vt 0.139508 0.445574
vt 0.156275 0.390743
vt 0.055718 0.459359
vt 0.132034 0.495000
vt 0.054266 0.778155
vt 0.126419 0.833439
vt 0.337512 0.360414
vt 0.378549 0.318201
vt 0.321255 0.281826
vt 0.276686 0.319441
vt 0.429139 0.282933
vt 0.329790 0.154136
vt 0.274313 0.199375
vt 0.359181 0.263858
vt 0.276400 0.481976
vt 0.215946 0.469154
vt 0.212715 0.064237
vt 0.181706 0.132034
vt 0.275305 0.619879
vt 0.198778 0.632907
vt 0.084339 0.245049
vt 0.060642 0.328385
vt 0.131449 0.317940
vt 0.152618 0.255945
vt 0.322994 0.740703
vt 0.284184 0.755677
vt 0.304830 0.956777
vt 0.249692 0.885930
vt 0.086632 0.153622
vt 0.155191 0.145715
vt 0.276774 0.955101
vt 0.229607 0.919299
vt 0.065483 0.029504
vt 0.106697 0.072750
vt 0.139508 0.445574
vt 0.156275 0.390743
vt 0.132034 0.495000
vt 0.126419 0.833439
vt 0.321255 0.281826
vt 0.276686 0.319441
vt 0.274313 0.199375
vt 0.359181 0.263858
vt 0.215946 0.469154
vt 0.181706 0.132034
vt 0.198778 0.632907
vt 0.131449 0.317940
vt 0.152618 0.255945
vt 0.284184 0.755677
vt 0.249692 0.885930
vt 0.155191 0.145715
vt 0.229607 0.919299
vt 0.106697 0.072750
vt 0.156275 0.390743
vt 0.139508 0.445574
vt 0.132034 0.495000
vt 0.126419 0.833439
vt 0.276686 0.319441
vt 0.321255 0.281826
vt 0.359181 0.263858
vt 0.274313 0.199375
vt 0.215946 0.469154
vt 0.181706 0.132034
vt 0.198778 0.632907
vt 0.152618 0.255945
vt 0.131449 0.317940
vt 0.284184 0.755677
vt 0.249692 0.885930
vt 0.155191 0.145715
vt 0.229607 0.919299
vt 0.106697 0.072750
vn -0.8378 -0.4095 0.3612
vn -0.6731 -0.5967 0.4369
vn -0.9321 -0.0948 0.3494
vn 0.1928 0.9452 0.2636
vn 0.8162 -0.2837 0.5033
vn 0.7177 0.6111 0.3339
vn 0.6535 -0.5971 0.4653
vn 0.9238 0.1548 0.3502
vn -0.7344 -0.5494 0.3985
vn 0.8270 -0.3856 0.4091
vn -0.8665 0.2346 0.4407
vn 0.9106 0.1147 0.3971
vn -0.8997 -0.1076 0.4229
vn -0.7064 0.5551 0.4392
vn 0.4337 -0.7835 0.4450
vn -0.1639 0.9100 0.3809
vn -0.7982 0.4072 0.4439
vn 0.8378 -0.4095 0.3612
vn 0.6731 -0.5967 0.4369
vn 0.9321 -0.0948 0.3494
vn -0.1928 0.9452 0.2636
vn -0.8162 -0.2837 0.5033
vn -0.7177 0.6111 0.3339
vn -0.6535 -0.5971 0.4653
vn -0.9238 0.1548 0.3502
vn 0.7344 -0.5494 0.3985
vn -0.8270 -0.3856 0.4091
vn 0.8665 0.2346 0.4407
vn -0.9106 0.1147 0.3971
vn 0.8997 -0.1076 0.4229
vn 0.7064 0.5551 0.4392
vn -0.4337 -0.7835 0.4450
vn 0.1639 0.9100 0.3809
vn 0.7982 0.4072 0.4439
vn -0.1068 -0.2655 0.9582
vn -0.0490 0.0711 0.9963
vn 0.6139 -0.1141 0.7811
vn -0.0593 -0.0202 0.9980
vn -0.0118 0.0385 0.9992
vn 0.0173 0.0357 0.9992
vn 0.2411 -0.0371 0.9698
vn 0.0000 -0.0000 1.0000
vn -0.1593 0.2077 0.9651
vn 0.1068 -0.2655 0.9582
vn 0.0490 0.0711 0.9963
vn -0.6139 -0.1141 0.7811
vn 0.0593 -0.0202 0.9980
vn 0.0118 0.0385 0.9992
vn -0.0173 0.0357 0.9992
vn -0.2411 -0.0371 0.9698
vn 0.1593 0.2077 0.9651
vn -0.8378 -0.4095 -0.3612
vn -0.6731 -0.5967 -0.4369
vn -0.9321 -0.0948 -0.3494
vn 0.1928 0.9452 -0.2636
vn 0.8162 -0.2837 -0.5033
vn 0.7177 0.6111 -0.3339
vn 0.6535 -0.5971 -0.4653
vn 0.9238 0.1548 -0.3502
vn -0.7344 -0.5494 -0.3985
vn 0.8270 -0.3856 -0.4091
vn -0.8665 0.2346 -0.4407
vn 0.9106 0.1147 -0.3971
vn -0.8997 -0.1076 -0.4229
vn -0.7064 0.5551 -0.4392
vn 0.4337 -0.7835 -0.4450
vn -0.1639 0.9100 -0.3809
vn -0.7982 0.4072 -0.4439
vn 0.8378 -0.4095 -0.3612
vn 0.6731 -0.5967 -0.4369
vn 0.9321 -0.0948 -0.3494
vn -0.1928 0.9452 -0.2636
vn -0.8162 -0.2837 -0.5033
vn -0.7177 0.6111 -0.3339
vn -0.6535 -0.5971 -0.4653
vn -0.9238 0.1548 -0.3502
vn 0.7344 -0.5494 -0.3985
vn -0.8270 -0.3856 -0.4091
vn 0.8665 0.2346 -0.4407
vn -0.9106 0.1147 -0.3971
vn 0.8997 -0.1076 -0.4229
vn 0.7064 0.5551 -0.4392
vn -0.4337 -0.7835 -0.4450
vn 0.1639 0.9100 -0.3809
vn 0.7982 0.4072 -0.4439
vn -0.1068 -0.2655 -0.9582
vn -0.0490 0.0711 -0.9963
vn 0.6139 -0.1141 -0.7811
vn -0.0593 -0.0202 -0.9980
vn -0.0118 0.0385 -0.9992
vn 0.0173 0.0357 -0.9992
vn 0.2411 -0.0371 -0.9698
vn 0.0000 -0.0000 -1.0000
vn -0.1593 0.2077 -0.9651
vn 0.1068 -0.2655 -0.9582
vn 0.0490 0.0711 -0.9963
vn -0.6139 -0.1141 -0.7811
vn 0.0593 -0.0202 -0.9980
vn 0.0118 0.0385 -0.9992
vn -0.0173 0.0357 -0.9992
vn -0.2411 -0.0371 -0.9698
vn 0.1593 0.2077 -0.9651
usemtl Material.001
s off
f 79/1/1 7/2/1 8/3/1 80/4/1
f 80/4/2 8/3/2 10/5/2 82/6/2
f 82/6/3 10/5/3 9/7/3 81/8/3
f 85/9/4 13/10/4 12/11/4 84/12/4
f 83/13/5 11/14/5 1/15/5 73/16/5
f 86/17/6 14/18/6 13/10/6 85/9/6
f 73/16/7 1/15/7 2/19/7 74/20/7
f 87/21/8 15/22/8 14/18/8 86/17/8
f 77/23/9 5/24/9 6/25/9 78/26/9
f 88/27/10 16/28/10 15/22/10 87/21/10
f 78/26/11 6/25/11 7/2/11 79/1/11
f 89/29/12 17/30/12 16/28/12 88/27/12
f 76/31/13 4/32/13 5/24/13 77/23/13
f 90/33/14 18/34/14 17/30/14 89/29/14
f 74/20/15 2/19/15 3/35/15 75/36/15
f 84/12/16 12/11/16 11/14/16 83/13/16
f 75/36/17 3/35/17 4/32/17 76/31/17
f 97/37/18 98/38/18 26/39/18 25/40/18
f 98/38/19 100/41/19 28/42/19 26/39/19
f 100/41/20 99/43/20 27/44/20 28/42/20
f 103/45/21 102/46/21 30/47/21 31/48/21
f 101/49/22 91/50/22 19/51/22 29/52/22
f 104/53/23 103/45/23 31/48/23 32/54/23
f 91/50/24 92/55/24 20/56/24 19/51/24
f 105/57/25 104/53/25 32/54/25 33/58/25
f 95/59/26 96/60/26 24/61/26 23/62/26
f 106/63/27 105/57/27 33/58/27 34/64/27
f 96/60/28 97/37/28 25/40/28 24/61/28
f 107/65/29 106/63/29 34/64/29 35/66/29
f 94/67/30 95/59/30 23/62/30 22/68/30
f 108/69/31 107/65/31 35/66/31 36/70/31
f 92/55/32 93/71/32 21/72/32 20/56/32
f 102/46/33 101/49/33 29/52/33 30/47/33
f 93/71/34 94/67/34 22/68/34 21/72/34
f 3/35/35 2/19/35 4/32/35
f 1/15/36 5/24/36 4/32/36 2/19/36
f 11/14/37 12/11/37 1/15/37
f 13/10/38 5/24/38 1/15/38 12/11/38
f 5/24/39 13/10/39 7/2/39 6/25/39
f 7/2/40 13/10/40 14/18/40 8/3/40
f 8/3/41 14/18/41 15/22/41 10/5/41
f 9/7/42 10/5/42 15/22/42
f 15/22/42 16/28/42 9/7/42
f 16/28/43 17/30/43 18/34/43 9/7/43
f 21/72/44 22/68/44 20/56/44
f 19/51/45 20/56/45 22/68/45 23/62/45
f 29/52/46 19/51/46 30/47/46
f 31/48/47 30/47/47 19/51/47 23/62/47
f 23/62/48 24/61/48 25/40/48 31/48/48
f 25/40/49 26/39/49 32/54/49 31/48/49
f 26/39/50 28/42/50 33/58/50 32/54/50
f 27/44/42 33/58/42 28/42/42
f 33/58/42 27/44/42 34/64/42
f 34/64/51 27/44/51 36/70/51 35/66/51
f 79/1/52 80/4/52 44/73/52 43/74/52
f 80/4/53 82/6/53 46/75/53 44/73/53
f 82/6/54 81/8/54 45/76/54 46/75/54
f 85/9/55 84/12/55 48/77/55 49/78/55
f 83/13/56 73/16/56 37/79/56 47/80/56
f 86/17/57 85/9/57 49/78/57 50/81/57
f 73/16/58 74/20/58 38/82/58 37/79/58
f 87/21/59 86/17/59 50/81/59 51/83/59
f 77/23/60 78/26/60 42/84/60 41/85/60
f 88/27/61 87/21/61 51/83/61 52/86/61
f 78/26/62 79/1/62 43/74/62 42/84/62
f 89/29/63 88/27/63 52/86/63 53/87/63
f 76/31/64 77/23/64 41/85/64 40/88/64
f 90/33/65 89/29/65 53/87/65 54/89/65
f 74/20/66 75/36/66 39/90/66 38/82/66
f 84/12/67 83/13/67 47/80/67 48/77/67
f 75/36/68 76/31/68 40/88/68 39/90/68
f 97/37/69 61/91/69 62/92/69 98/38/69
f 98/38/70 62/92/70 64/93/70 100/41/70
f 100/41/71 64/93/71 63/94/71 99/43/71
f 103/45/72 67/95/72 66/96/72 102/46/72
f 101/49/73 65/97/73 55/98/73 91/50/73
f 104/53/74 68/99/74 67/95/74 103/45/74
f 91/50/75 55/98/75 56/100/75 92/55/75
f 105/57/76 69/101/76 68/99/76 104/53/76
f 95/59/77 59/102/77 60/103/77 96/60/77
f 106/63/78 70/104/78 69/101/78 105/57/78
f 96/60/79 60/103/79 61/91/79 97/37/79
f 107/65/80 71/105/80 70/104/80 106/63/80
f 94/67/81 58/106/81 59/102/81 95/59/81
f 108/69/82 72/107/82 71/105/82 107/65/82
f 92/55/83 56/100/83 57/108/83 93/71/83
f 102/46/84 66/96/84 65/97/84 101/49/84
f 93/71/85 57/108/85 58/106/85 94/67/85
f 39/90/86 40/88/86 38/82/86
f 37/79/87 38/82/87 40/88/87 41/85/87
f 47/80/88 37/79/88 48/77/88
f 49/78/89 48/77/89 37/79/89 41/85/89
f 41/85/90 42/84/90 43/74/90 49/78/90
f 43/74/91 44/73/91 50/81/91 49/78/91
f 44/73/92 46/75/92 51/83/92 50/81/92
f 45/76/93 51/83/93 46/75/93
f 51/83/93 45/76/93 52/86/93
f 52/86/94 45/76/94 54/89/94 53/87/94
f 57/108/95 56/100/95 58/106/95
f 55/98/96 59/102/96 58/106/96 56/100/96
f 65/97/97 66/96/97 55/98/97
f 67/95/98 59/102/98 55/98/98 66/96/98
f 59/102/99 67/95/99 61/91/99 60/103/99
f 61/91/100 67/95/100 68/99/100 62/92/100
f 62/92/101 68/99/101 69/101/101 64/93/101
f 63/94/93 64/93/93 69/101/93
f 69/101/93 70/104/93 63/94/93
f 70/104/102 71/105/102 72/107/102 63/94/102
