# Blender v2.79 (sub 0) OBJ File: 'knife12.blend'
# www.blender.org
mtllib knife12_Blade.mtl
o Cube_Cube.004
v 0.154600 0.250507 0.109095
v 0.187835 0.412604 0.109095
v 0.255266 0.280592 0.109095
v 0.356067 0.428268 0.109095
v 0.202894 1.062656 0.109095
v 0.225483 2.662527 0.109095
v 0.227993 2.867918 0.109095
v 0.845769 2.894985 0.109095
v 0.620182 2.662527 0.109095
v 0.603316 1.230353 0.109095
v 0.521677 0.720461 0.109095
v 0.269187 2.595642 0.072546
v 0.269187 1.576992 0.072546
v 0.373432 1.576992 0.072546
v 0.373432 2.595642 0.072546
v 0.841633 2.662527 0.109095
v 0.019719 0.005621 0.000000
v 0.119968 0.412604 0.000000
v 0.407905 0.212384 0.000000
v 0.565327 0.428268 0.000000
v 0.143463 1.062656 0.000000
v 0.178707 2.662527 0.000000
v 0.182623 2.867918 0.000000
v 0.845769 2.894985 0.000000
v 0.839002 2.662527 0.000000
v 0.839002 1.230353 0.000000
v 0.730226 0.720461 0.000000
v 0.285981 2.554645 0.000000
v 0.285981 1.617989 0.000000
v 0.356638 1.617989 0.000000
v 0.356638 2.554645 0.000000
v 0.154600 0.250507 -0.109095
v 0.187835 0.412604 -0.109095
v 0.255266 0.280592 -0.109095
v 0.356067 0.428268 -0.109095
v 0.202894 1.062656 -0.109095
v 0.225483 2.662527 -0.109095
v 0.227993 2.867918 -0.109095
v 0.845769 2.894985 -0.109095
v 0.620182 2.662527 -0.109095
v 0.603316 1.230353 -0.109095
v 0.521677 0.720461 -0.109095
v 0.269187 2.595642 -0.072546
v 0.269187 1.576992 -0.072546
v 0.373432 1.576992 -0.072546
v 0.373432 2.595642 -0.072546
v 0.841633 2.662527 -0.109095
vt 0.261218 0.198032
vt 0.305592 0.292305
vt 0.233887 0.291416
vt 0.188605 0.199519
vt 0.127976 0.783517
vt 0.108021 0.804917
vt 0.127099 0.570556
vt 0.137885 0.594147
vt 0.177997 0.568387
vt 0.158964 0.591765
vt 0.161960 0.812442
vt 0.150850 0.782730
vt 0.085642 0.392180
vt 0.096471 0.187325
vt 0.136841 0.190975
vt 0.120966 0.395147
vt 0.214873 0.128061
vt 0.161603 0.154569
vt 0.134823 0.142317
vt 0.050443 0.060231
vt 0.060168 0.818055
vt 0.089774 0.819564
vt 0.050443 0.875302
vt 0.082566 0.881331
vt 0.294521 0.835731
vt 0.274319 0.857975
vt 0.223036 0.839864
vt 0.328273 0.447551
vt 0.255270 0.444603
vt 0.328273 0.924381
vt 0.286832 0.938070
vt 0.188605 0.199519
vt 0.233887 0.291416
vt 0.127099 0.570556
vt 0.108021 0.804917
vt 0.177997 0.568387
vt 0.161960 0.812442
vt 0.120966 0.395147
vt 0.136841 0.190975
vt 0.134823 0.142317
vt 0.161603 0.154569
vt 0.089774 0.819564
vt 0.082566 0.881331
vt 0.223036 0.839864
vt 0.274319 0.857975
vt 0.255270 0.444603
vt 0.286832 0.938070
vn 0.4478 -0.2533 0.8575
vn 0.9742 0.0000 0.2255
vn 0.0000 0.8706 0.4920
vn -0.9742 0.0000 0.2255
vn -0.8635 0.0256 0.5038
vn 0.2624 -0.5416 0.7986
vn 0.0000 -0.8706 0.4920
vn 0.4454 -0.3163 0.8376
vn -0.8169 0.1916 0.5440
vn -0.8990 0.0162 0.4376
vn -0.9211 0.0144 0.3890
vn 0.0000 -1.0000 0.0000
vn 0.4328 -0.0025 0.9015
vn 0.4394 -0.0820 0.8946
vn 0.9997 -0.0234 -0.0121
vn -0.1510 0.0010 0.9885
vn -0.0791 0.0288 0.9965
vn -0.0000 0.0000 1.0000
vn 0.5672 -0.0049 0.8236
vn 0.0667 0.0622 0.9958
vn -0.0000 -0.4795 0.8775
vn 0.4478 -0.2533 -0.8575
vn 0.9742 0.0000 -0.2255
vn 0.0000 0.8706 -0.4920
vn -0.9742 0.0000 -0.2255
vn -0.8635 0.0256 -0.5038
vn 0.2624 -0.5416 -0.7986
vn 0.0000 -0.8706 -0.4920
vn 0.4454 -0.3163 -0.8376
vn -0.8169 0.1916 -0.5440
vn -0.8990 0.0162 -0.4376
vn -0.9211 0.0144 -0.3890
vn 0.4328 -0.0025 -0.9015
vn 0.4394 -0.0820 -0.8946
vn 0.9997 -0.0234 0.0121
vn -0.1510 0.0010 -0.9885
vn -0.0791 0.0288 -0.9965
vn -0.0000 0.0000 -1.0000
vn 0.5672 -0.0049 -0.8236
vn 0.0667 0.0622 -0.9958
vn -0.0000 -0.4795 -0.8775
usemtl Material
s off
f 20/1/1 27/2/1 11/3/1 4/4/1
f 28/5/2 12/6/2 13/7/2 29/8/2
f 29/8/3 13/7/3 14/9/3 30/10/3
f 30/10/4 14/9/4 15/11/4 31/12/4
f 21/13/5 18/14/5 2/15/5 5/16/5
f 19/17/6 3/18/6 1/19/6 17/20/6
f 31/12/7 15/11/7 12/6/7 28/5/7
f 20/1/8 4/4/8 3/18/8 19/17/8
f 18/14/9 17/20/9 1/19/9 2/15/9
f 22/21/10 21/13/10 5/16/10 6/22/10
f 23/23/11 22/21/11 6/22/11 7/24/11
f 25/25/12 16/26/12 9/27/12
f 26/28/13 25/25/13 9/27/13 10/29/13
f 27/2/14 26/28/14 10/29/14 11/3/14
f 16/26/15 25/25/15 24/30/15 8/31/15
f 9/27/16 15/11/16 14/9/16 10/29/16
f 10/29/17 14/9/17 13/7/17 11/3/17
f 1/19/18 3/18/18 4/4/18 2/15/18
f 5/16/18 2/15/18 4/4/18 11/3/18
f 5/16/19 13/7/19 12/6/19 6/22/19
f 11/3/20 13/7/20 5/16/20
f 12/6/21 15/11/21 9/27/21 6/22/21
f 7/24/18 6/22/18 9/27/18 16/26/18 8/31/18
f 20/1/22 35/32/22 42/33/22 27/2/22
f 28/5/23 29/8/23 44/34/23 43/35/23
f 29/8/24 30/10/24 45/36/24 44/34/24
f 30/10/25 31/12/25 46/37/25 45/36/25
f 21/13/26 36/38/26 33/39/26 18/14/26
f 19/17/27 17/20/27 32/40/27 34/41/27
f 31/12/28 28/5/28 43/35/28 46/37/28
f 20/1/29 19/17/29 34/41/29 35/32/29
f 18/14/30 33/39/30 32/40/30 17/20/30
f 22/21/31 37/42/31 36/38/31 21/13/31
f 23/23/32 38/43/32 37/42/32 22/21/32
f 25/25/12 40/44/12 47/45/12
f 26/28/33 41/46/33 40/44/33 25/25/33
f 27/2/34 42/33/34 41/46/34 26/28/34
f 47/45/35 39/47/35 24/30/35 25/25/35
f 40/44/36 41/46/36 45/36/36 46/37/36
f 41/46/37 42/33/37 44/34/37 45/36/37
f 32/40/38 33/39/38 35/32/38 34/41/38
f 36/38/38 42/33/38 35/32/38 33/39/38
f 36/38/39 37/42/39 43/35/39 44/34/39
f 42/33/40 36/38/40 44/34/40
f 43/35/41 37/42/41 40/44/41 46/37/41
f 38/43/38 39/47/38 47/45/38 40/44/38 37/42/38
