# Blender v2.79 (sub 0) OBJ File: 'knife19.blend'
# www.blender.org
mtllib knife19_Holder.mtl
o Cube.001_Cube.006
v 0.659904 7.876754 0.097812
v 0.588330 7.850366 0.097813
v 0.799778 8.207359 0.270886
v 0.614376 8.509640 0.087069
v 0.430988 8.187609 0.270887
v 0.525858 8.513266 0.087070
v 0.475347 10.299435 0.164131
v 0.651054 10.133175 0.164131
v 0.648446 0.743586 0.009152
v 0.734565 7.886708 0.000000
v 0.424075 7.800592 0.000000
v 0.863148 8.210239 0.000000
v 0.649621 8.502590 0.000000
v 0.361858 8.190489 0.000000
v 0.474166 8.520314 0.000000
v 0.403336 10.529870 0.000000
v 0.714424 10.164860 0.000000
v 0.659904 7.876754 -0.097812
v 0.588330 7.850366 -0.097813
v 0.799778 8.207359 -0.270886
v 0.614376 8.509640 -0.087069
v 0.430988 8.187609 -0.270887
v 0.525858 8.513266 -0.087070
v 0.475347 10.299435 -0.164131
v 0.651054 10.133175 -0.164131
vt 0.953074 0.164393
vt 0.881034 0.157762
vt 0.868414 0.271649
vt 0.906993 0.277778
vt 0.865885 0.873576
vt 0.923924 0.973432
vt 0.813934 0.830097
vt 0.751237 0.870594
vt 0.833750 0.272851
vt 0.797505 0.272351
vt 0.751237 0.142452
vt 0.824354 0.151665
vt 0.848196 0.060128
vt 0.808618 0.050936
vt 0.932895 0.042020
vt 0.873283 0.059258
vt 0.868414 0.271649
vt 0.881034 0.157762
vt 0.865885 0.873576
vt 0.813934 0.830097
vt 0.833750 0.272851
vt 0.848196 0.060128
vt 0.824354 0.151665
vt 0.873283 0.059258
vn -0.8794 0.3640 0.3069
vn -0.9101 -0.0375 0.4127
vn 0.6541 0.5994 0.4614
vn 0.9314 -0.0373 0.3620
vn 0.8506 -0.4294 0.3035
vn 0.7812 0.5885 0.2084
vn -0.7676 -0.3583 0.5315
vn -0.0291 -0.0453 0.9986
vn -0.0177 0.5033 0.8640
vn 0.0481 -0.4586 0.8873
vn -0.8794 0.3640 -0.3069
vn -0.9101 -0.0375 -0.4127
vn 0.6541 0.5994 -0.4614
vn 0.9314 -0.0373 -0.3620
vn 0.8506 -0.4294 -0.3035
vn 0.7812 0.5885 -0.2084
vn -0.7676 -0.3583 -0.5315
vn -0.0291 -0.0453 -0.9986
vn -0.0177 0.5033 -0.8640
vn 0.0481 -0.4586 -0.8873
usemtl Material.005
s off
f 14/1/1 5/2/1 6/3/1 15/4/1
f 15/4/2 6/3/2 7/5/2 16/6/2
f 16/6/3 7/5/3 8/7/3 17/8/3
f 17/8/4 8/7/4 4/9/4 13/10/4
f 12/11/5 3/12/5 1/13/5 10/14/5
f 13/10/6 4/9/6 3/12/6 12/11/6
f 11/15/7 2/16/7 5/2/7 14/1/7
f 6/3/8 4/9/8 8/7/8 7/5/8
f 3/12/9 4/9/9 6/3/9 5/2/9
f 5/2/10 2/16/10 1/13/10 3/12/10
f 14/1/11 15/4/11 23/17/11 22/18/11
f 15/4/12 16/6/12 24/19/12 23/17/12
f 16/6/13 17/8/13 25/20/13 24/19/13
f 17/8/14 13/10/14 21/21/14 25/20/14
f 12/11/15 10/14/15 18/22/15 20/23/15
f 13/10/16 12/11/16 20/23/16 21/21/16
f 11/15/17 14/1/17 22/18/17 19/24/17
f 23/17/18 24/19/18 25/20/18 21/21/18
f 20/23/19 22/18/19 23/17/19 21/21/19
f 22/18/20 20/23/20 18/22/20 19/24/20
