# Blender v2.79 (sub 0) OBJ File: 'knife2.blend'
# www.blender.org
mtllib knife2_Holder.mtl
o Cube.001_Cube.003
v 0.160933 3.228516 0.118771
v -0.477047 3.219784 0.118771
v 0.200406 3.288457 0.118771
v 0.469411 3.298691 0.118771
v 0.562977 3.256293 0.118771
v 0.628766 3.363018 0.118771
v 0.552743 3.465356 0.118771
v 0.472335 3.436117 0.118771
v 0.175553 3.453660 0.118771
v 0.054208 3.539917 0.118771
v 0.030817 3.855705 0.118771
v -0.016330 4.798642 0.118771
v -0.100147 4.913890 0.118771
v -0.414459 4.835312 0.118771
v -0.555900 4.699110 0.118771
v -0.383028 4.625770 0.118771
v -0.309688 4.311458 0.118771
v -0.351597 3.646163 0.118771
v -0.419698 3.494246 0.118771
v -0.781157 3.426145 0.118771
v -0.880689 3.457576 0.118771
v -0.974983 3.352805 0.118771
v -0.854497 3.248034 0.118771
v -0.775918 3.279465 0.118771
v -0.519230 3.274227 0.118771
v -0.477047 3.218132 -0.000000
v 0.160933 3.218132 -0.000000
v 0.200406 3.288457 -0.000000
v 0.469411 3.298691 -0.000000
v 0.562977 3.256293 -0.000000
v 0.628766 3.363018 -0.000000
v 0.552743 3.465356 -0.000000
v 0.472335 3.436117 -0.000000
v 0.175553 3.453660 -0.000000
v 0.054208 3.539917 -0.000000
v 0.030817 3.855705 -0.000000
v -0.016330 4.798642 -0.000000
v -0.100147 4.913890 -0.000000
v -0.414459 4.835312 -0.000000
v -0.555900 4.699110 -0.000000
v -0.383028 4.625770 -0.000000
v -0.309688 4.311458 -0.000000
v -0.351597 3.646163 -0.000000
v -0.419698 3.494246 -0.000000
v -0.781157 3.426145 -0.000000
v -0.880689 3.457576 -0.000000
v -0.974983 3.352805 -0.000000
v -0.854497 3.248034 -0.000000
v -0.775918 3.279465 -0.000000
v -0.519230 3.274227 -0.000000
v 0.160933 3.228516 -0.118771
v -0.477047 3.219784 -0.118771
v 0.200406 3.288457 -0.118771
v 0.469411 3.298691 -0.118771
v 0.562977 3.256293 -0.118771
v 0.628766 3.363018 -0.118771
v 0.552743 3.465356 -0.118771
v 0.472335 3.436117 -0.118771
v 0.175553 3.453660 -0.118771
v 0.054208 3.539917 -0.118771
v 0.030817 3.855705 -0.118771
v -0.016330 4.798642 -0.118771
v -0.100147 4.913890 -0.118771
v -0.414459 4.835312 -0.118771
v -0.555900 4.699110 -0.118771
v -0.383028 4.625770 -0.118771
v -0.309688 4.311458 -0.118771
v -0.351597 3.646163 -0.118771
v -0.419698 3.494246 -0.118771
v -0.781157 3.426145 -0.118771
v -0.880689 3.457576 -0.118771
v -0.974983 3.352805 -0.118771
v -0.854497 3.248034 -0.118771
v -0.775918 3.279465 -0.118771
v -0.519230 3.274227 -0.118771
v 0.160933 3.228516 0.118771
v 0.200406 3.288457 0.118771
v 0.469411 3.298691 0.118771
v 0.562977 3.256293 0.118771
v 0.628766 3.363018 0.118771
v 0.552743 3.465356 0.118771
v 0.472335 3.436117 0.118771
v 0.175553 3.453660 0.118771
v 0.054208 3.539917 0.118771
v 0.030817 3.855705 0.118771
v -0.016330 4.798642 0.118771
v -0.100147 4.913890 0.118771
v -0.414459 4.835312 0.118771
v -0.555900 4.699110 0.118771
v -0.383028 4.625770 0.118771
v -0.309688 4.311458 0.118771
v -0.351597 3.646163 0.118771
v -0.419698 3.494246 0.118771
v -0.781157 3.426145 0.118771
v -0.880689 3.457576 0.118771
v -0.974983 3.352805 0.118771
v -0.854497 3.248034 0.118771
v -0.775918 3.279465 0.118771
v -0.519230 3.274227 0.118771
v -0.477047 3.219784 0.118771
vt 0.493949 0.672389
vt 0.478178 0.649180
vt 0.493259 0.640647
vt 0.506214 0.655153
vt 0.818649 0.948920
vt 0.788956 0.951461
vt 0.793776 0.929982
vt 0.808035 0.926316
vt 0.814720 0.453813
vt 0.833059 0.434647
vt 0.846288 0.453422
vt 0.834949 0.474906
vt 0.483913 0.597905
vt 0.498529 0.608735
vt 0.764787 0.931112
vt 0.784054 0.917145
vt 0.863142 0.419245
vt 0.867799 0.443659
vt 0.508310 0.570701
vt 0.517246 0.588180
vt 0.754999 0.908772
vt 0.783335 0.898046
vt 0.905190 0.421449
vt 0.894875 0.458667
vt 0.542214 0.560617
vt 0.544142 0.582759
vt 0.748514 0.821190
vt 0.787371 0.811438
vt 0.937567 0.462486
vt 0.935661 0.495922
vt 0.893618 0.495187
vt 0.601566 0.572830
vt 0.598530 0.600666
vt 0.730985 0.777245
vt 0.763154 0.751270
vt 0.931178 0.590012
vt 0.882300 0.579889
vt 0.908290 0.825191
vt 0.892747 0.851403
vt 0.853115 0.825800
vt 0.869011 0.787401
vt 0.738292 0.564127
vt 0.749361 0.597304
vt 0.668652 0.723392
vt 0.680307 0.695882
vt 0.844956 0.930408
vt 0.821493 0.901928
vt 0.775590 0.536808
vt 0.803822 0.564164
vt 0.886812 0.621879
vt 0.886137 0.621868
vt 0.881483 0.579840
vt 0.475518 0.693675
vt 0.454561 0.658623
vt 0.829641 0.994919
vt 0.775668 0.992025
vt 0.793217 0.430701
vt 0.815387 0.406198
vt 0.462972 0.584148
vt 0.736534 0.955556
vt 0.855488 0.385473
vt 0.496166 0.546454
vt 0.723100 0.924156
vt 0.902991 0.382188
vt 0.540029 0.534110
vt 0.717496 0.830582
vt 0.978645 0.465410
vt 0.976817 0.498106
vt 0.603057 0.546191
vt 0.705265 0.795563
vt 0.971947 0.594094
vt 0.944041 0.845536
vt 0.932187 0.873928
vt 0.727953 0.537101
vt 0.656066 0.748179
vt 0.871093 0.971730
vt 0.754006 0.515084
vt 0.988973 0.134484
vt 0.986345 0.310011
vt 0.971039 0.321183
vt 0.967575 0.391737
vt 0.975600 0.413596
vt 0.945836 0.445906
vt 0.917765 0.419147
vt 0.927194 0.392021
vt 0.911314 0.292075
vt 0.870070 0.272149
vt 0.687430 0.255378
vt 0.600409 0.273070
vt 0.578876 0.320036
vt 0.542532 0.280063
vt 0.523399 0.193000
vt 0.555756 0.170857
vt 0.815456 0.165325
vt 0.902489 0.161381
vt 0.927168 0.128688
vt 0.934333 0.047205
vt 0.926925 0.024861
vt 0.955670 0.004759
vt 0.984503 0.023694
vt 0.972105 0.049093
vt 0.972799 0.123155
vt 0.930025 0.619040
vt 0.970078 0.621157
vt 0.988826 0.134482
vt 0.972652 0.123153
vt 0.971958 0.049091
vt 0.984356 0.023692
vt 0.955523 0.004757
vt 0.926778 0.024858
vt 0.934186 0.047203
vt 0.927022 0.128686
vt 0.902343 0.161379
vt 0.815310 0.165323
vt 0.555610 0.170856
vt 0.523253 0.192999
vt 0.542386 0.280061
vt 0.578730 0.320034
vt 0.600263 0.273069
vt 0.687283 0.255377
vt 0.869924 0.272147
vt 0.911168 0.292073
vt 0.927048 0.392020
vt 0.917619 0.419146
vt 0.945690 0.445904
vt 0.975454 0.413594
vt 0.967429 0.391735
vt 0.970893 0.321181
vt 0.986198 0.310009
vt 0.821008 0.901658
vt 0.852378 0.825428
vt 0.804869 0.565029
vt 0.749626 0.598788
vt 0.506375 0.654788
vt 0.680902 0.693869
vt 0.807820 0.926043
vt 0.835359 0.475111
vt 0.493702 0.640537
vt 0.793859 0.929611
vt 0.846564 0.453773
vt 0.499043 0.608986
vt 0.784356 0.917005
vt 0.867766 0.444232
vt 0.868207 0.787203
vt 0.517486 0.588674
vt 0.783756 0.898052
vt 0.894251 0.459152
vt 0.544069 0.583480
vt 0.788509 0.811230
vt 0.892885 0.495103
vt 0.598422 0.602097
vt 0.764010 0.750270
vt 0.887653 0.621908
vt 0.870363 0.787097
vn 0.8087 0.5882 0.0000
vn 0.8513 -0.5247 0.0000
vn 0.3011 0.9536 0.0000
vn -0.2425 0.9701 0.0000
vn 0.8027 0.5963 0.0000
vn -0.7433 0.6690 0.0000
vn -0.6936 0.7203 0.0000
vn -0.3417 0.9398 0.0000
vn -0.6562 -0.7546 0.0000
vn -0.3905 -0.9206 0.0000
vn 0.0590 0.9983 0.0000
vn 0.3714 -0.9285 0.0000
vn -0.9738 -0.2272 0.0000
vn 0.5794 0.8151 0.0000
vn -0.0204 -0.9998 0.0000
vn 0.8550 -0.5182 0.0226
vn -0.9980 0.0629 0.0000
vn 0.9973 0.0739 0.0000
vn 0.0380 -0.9993 0.0000
vn -0.9125 0.4091 0.0000
vn 0.9988 0.0499 0.0000
vn -0.4127 -0.9109 0.0000
vn -0.1851 0.9827 0.0000
vn 0.0000 0.0000 1.0000
vn 0.8550 -0.5182 -0.0226
vn 0.0000 -0.0000 -1.0000
vn 0.0068 -0.9987 -0.0506
vn 0.0068 -0.9987 0.0506
vn -0.7949 -0.6067 -0.0042
vn -0.7949 -0.6067 0.0042
usemtl Material.002
s off
f 37/1/1 38/2/1 13/3/1 12/4/1
f 30/5/2 31/6/2 6/7/2 5/8/2
f 45/9/3 46/10/3 21/11/3 20/12/3
f 38/2/4 39/13/4 14/14/4 13/3/4
f 31/6/5 32/15/5 7/16/5 6/7/5
f 46/10/6 47/17/6 22/18/6 21/11/6
f 39/13/7 40/19/7 15/20/7 14/14/7
f 32/15/8 33/21/8 8/22/8 7/16/8
f 47/17/9 48/23/9 23/24/9 22/18/9
f 40/19/10 41/25/10 16/26/10 15/20/10
f 33/21/11 34/27/11 9/28/11 8/22/11
f 48/29/12 49/30/12 24/31/12 23/24/12
f 41/25/13 42/32/13 17/33/13 16/26/13
f 34/27/14 35/34/14 10/35/14 9/28/14
f 49/30/15 50/36/15 25/37/15 24/31/15
f 27/38/16 28/39/16 3/40/16 1/41/16
f 42/32/17 43/42/17 18/43/17 17/33/17
f 35/34/18 36/44/18 11/45/18 10/35/18
f 28/39/19 29/46/19 4/47/19 3/40/19
f 43/42/20 44/48/20 19/49/20 18/43/20
f 36/44/21 37/1/21 12/4/21 11/45/21
f 29/46/22 30/5/22 5/8/22 4/47/22
f 44/48/23 45/9/23 20/12/23 19/49/23
f 25/37/24 2/50/24 100/51/24 99/52/24
f 37/1/1 62/53/1 63/54/1 38/2/1
f 30/5/2 55/55/2 56/56/2 31/6/2
f 45/9/3 70/57/3 71/58/3 46/10/3
f 38/2/4 63/54/4 64/59/4 39/13/4
f 31/6/5 56/56/5 57/60/5 32/15/5
f 46/10/6 71/58/6 72/61/6 47/17/6
f 39/13/7 64/59/7 65/62/7 40/19/7
f 32/15/8 57/60/8 58/63/8 33/21/8
f 47/17/9 72/61/9 73/64/9 48/23/9
f 40/19/10 65/62/10 66/65/10 41/25/10
f 33/21/11 58/63/11 59/66/11 34/27/11
f 48/29/12 73/67/12 74/68/12 49/30/12
f 41/25/13 66/65/13 67/69/13 42/32/13
f 34/27/14 59/66/14 60/70/14 35/34/14
f 49/30/15 74/68/15 75/71/15 50/36/15
f 27/38/25 51/72/25 53/73/25 28/39/25
f 42/32/17 67/69/17 68/74/17 43/42/17
f 35/34/18 60/70/18 61/75/18 36/44/18
f 28/39/19 53/73/19 54/76/19 29/46/19
f 43/42/20 68/74/20 69/77/20 44/48/20
f 36/44/21 61/75/21 62/53/21 37/1/21
f 29/46/22 54/76/22 55/55/22 30/5/22
f 44/48/23 69/77/23 70/57/23 45/9/23
f 51/78/26 52/79/26 75/80/26 74/81/26 73/82/26 72/83/26 71/84/26 70/85/26 69/86/26 68/87/26 67/88/26 66/89/26 65/90/26 64/91/26 63/92/26 62/93/26 61/94/26 60/95/26 59/96/26 58/97/26 57/98/26 56/99/26 55/100/26 54/101/26 53/102/26
f 27/38/27 26/103/27 52/104/27 51/72/27
f 76/105/24 77/106/24 78/107/24 79/108/24 80/109/24 81/110/24 82/111/24 83/112/24 84/113/24 85/114/24 86/115/24 87/116/24 88/117/24 89/118/24 90/119/24 91/120/24 92/121/24 93/122/24 94/123/24 95/124/24 96/125/24 97/126/24 98/127/24 99/128/24 100/129/24
f 3/40/24 4/47/24 78/130/24 77/131/24
f 18/43/24 19/49/24 93/132/24 92/133/24
f 11/45/24 12/4/24 86/134/24 85/135/24
f 4/47/24 5/8/24 79/136/24 78/130/24
f 19/49/24 20/12/24 94/137/24 93/132/24
f 12/4/24 13/3/24 87/138/24 86/134/24
f 5/8/24 6/7/24 80/139/24 79/136/24
f 20/12/24 21/11/24 95/140/24 94/137/24
f 13/3/24 14/14/24 88/141/24 87/138/24
f 6/7/24 7/16/24 81/142/24 80/139/24
f 21/11/24 22/18/24 96/143/24 95/140/24
f 2/50/24 1/41/24 76/144/24 100/51/24
f 14/14/24 15/20/24 89/145/24 88/141/24
f 7/16/24 8/22/24 82/146/24 81/142/24
f 22/18/24 23/24/24 97/147/24 96/143/24
f 15/20/24 16/26/24 90/148/24 89/145/24
f 8/22/24 9/28/24 83/149/24 82/146/24
f 23/24/24 24/31/24 98/150/24 97/147/24
f 1/41/24 3/40/24 77/131/24 76/144/24
f 16/26/24 17/33/24 91/151/24 90/148/24
f 9/28/24 10/35/24 84/152/24 83/149/24
f 24/31/24 25/37/24 99/52/24 98/150/24
f 17/33/24 18/43/24 92/133/24 91/151/24
f 10/35/24 11/45/24 85/135/24 84/152/24
f 100/153/28 26/103/28 27/38/28 76/154/28
f 52/104/29 26/103/29 50/36/29 75/71/29
f 25/37/30 50/36/30 26/103/30 100/153/30
