# Blender v2.79 (sub 0) OBJ File: 'knife22.blend'
# www.blender.org
mtllib knife22_Holder.mtl
o Cube.001_Cube.005
v 0.220280 7.654155 0.271914
v 0.122667 3.185374 0.271915
v 0.533334 3.571803 0.109058
v 0.588891 4.293493 0.194161
v 0.884382 5.051891 0.271915
v 1.332007 5.361318 0.134183
v 0.960584 5.318016 0.271915
v 0.617199 5.147934 0.271915
v 0.605112 5.903089 0.271915
v 0.183436 6.198700 0.271915
v 0.100441 6.816885 0.180510
v 0.148619 7.431611 0.271915
v 0.128508 7.545489 0.200843
v 0.108355 5.842223 0.160156
v 0.207281 5.701444 0.160156
v 0.249134 5.261985 0.160156
v 0.108355 5.102182 0.160156
v 0.000000 2.941129 0.271914
v -0.220280 7.654155 0.271914
v -0.122667 3.185374 0.271915
v -0.533334 3.571803 0.109058
v -0.588891 4.293493 0.194161
v -0.884382 5.051891 0.271915
v -1.332007 5.361318 0.134183
v -0.960584 5.318016 0.271915
v -0.617199 5.147934 0.271915
v -0.605112 5.903089 0.271915
v -0.183436 6.198700 0.271915
v -0.100441 6.816885 0.180510
v -0.148619 7.431611 0.271915
v -0.128508 7.545489 0.200843
v 0.000000 7.823090 0.271914
v -0.108355 5.842223 0.160156
v -0.207281 5.701444 0.160156
v -0.249134 5.261985 0.160156
v -0.108355 5.102182 0.160156
v 0.000000 5.077451 0.160156
v 0.000000 5.851735 0.176052
v 0.008429 6.077442 0.215883
v 0.220280 7.654155 -0.271914
v 0.122667 3.185374 -0.271915
v 0.533334 3.571803 -0.109058
v 0.588891 4.293493 -0.194161
v 0.884382 5.051891 -0.271915
v 1.332007 5.361318 -0.134183
v 0.960584 5.318016 -0.271915
v 0.617199 5.147934 -0.271915
v 0.605112 5.903089 -0.271915
v 0.183436 6.198700 -0.271915
v 0.100441 6.816885 -0.180510
v 0.148619 7.431611 -0.271915
v 0.128508 7.545489 -0.200843
v 0.108355 5.842223 -0.160156
v 0.207281 5.701444 -0.160156
v 0.249134 5.261985 -0.160156
v 0.108355 5.102182 -0.160156
v 0.000000 2.941129 -0.271914
v -0.220280 7.654155 -0.271914
v -0.122667 3.185374 -0.271915
v -0.533334 3.571803 -0.109058
v -0.588891 4.293493 -0.194161
v -0.884382 5.051891 -0.271915
v -1.332007 5.361318 -0.134183
v -0.960584 5.318016 -0.271915
v -0.617199 5.147934 -0.271915
v -0.605112 5.903089 -0.271915
v -0.183436 6.198700 -0.271915
v -0.100441 6.816885 -0.180510
v -0.148619 7.431611 -0.271915
v -0.128508 7.545489 -0.200843
v 0.000000 7.823090 -0.271914
v -0.108355 5.842223 -0.160156
v -0.207281 5.701444 -0.160156
v -0.249134 5.261985 -0.160156
v -0.108355 5.102182 -0.160156
v 0.000000 5.077451 -0.160156
v 0.000000 5.851735 -0.176052
v 0.389215 7.587951 0.000000
v 0.070617 2.968955 0.000000
v 0.615518 3.777265 0.000000
v 0.662857 4.274316 0.000000
v 0.961088 5.008060 0.000000
v 1.377665 5.377298 0.000000
v 0.946886 5.353629 0.000000
v 0.662857 5.192678 0.000000
v 0.643921 5.912220 0.000000
v 0.340956 6.200984 0.000000
v 0.189474 6.830583 0.000000
v 0.260481 7.427045 0.000000
v 0.208409 7.483851 0.000000
v 0.108355 5.842223 0.000000
v 0.207281 5.701444 0.000000
v 0.249134 5.261985 0.000000
v 0.108355 5.102182 0.000000
v 0.000000 2.779500 0.000000
v -0.389215 7.587951 0.000000
v -0.070617 2.968955 0.000000
v -0.615518 3.777265 0.000000
v -0.662857 4.274316 0.000000
v -0.961088 5.008060 0.000000
v -1.377665 5.377298 0.000000
v -0.946886 5.353629 0.000000
v -0.662857 5.192678 0.000000
v -0.643921 5.912220 0.000000
v -0.340956 6.200984 0.000000
v -0.189474 6.830583 0.000000
v -0.260481 7.427045 0.000000
v -0.208409 7.483851 0.000000
v 0.000000 8.039966 0.000000
v -0.108355 5.842223 0.000000
v -0.207281 5.701444 0.000000
v -0.249134 5.261985 0.000000
v -0.108355 5.102182 0.000000
v 0.000000 5.077451 0.000000
v 0.000000 5.851735 0.000000
v 0.008429 6.077442 -0.215883
vt 0.977786 0.504476
vt 0.959566 0.498710
vt 0.906302 0.457722
vt 0.949589 0.439937
vt 0.928299 0.535567
vt 0.919861 0.496897
vt 0.873497 0.538970
vt 0.849259 0.483585
vt 0.894645 0.053525
vt 0.867485 0.099205
vt 0.859691 0.064492
vt 0.875069 0.025832
vt 0.793977 0.629061
vt 0.766922 0.597117
vt 0.734477 0.661445
vt 0.688559 0.626573
vt 0.638918 0.909752
vt 0.591005 0.888387
vt 0.592286 0.866438
vt 0.635998 0.866634
vt 0.665767 0.756241
vt 0.631825 0.739035
vt 0.642019 0.856133
vt 0.597282 0.840778
vt 0.537332 0.955149
vt 0.556180 0.898326
vt 0.916822 0.308723
vt 0.879395 0.312152
vt 0.903366 0.187043
vt 0.921665 0.224232
vt 0.686940 0.530738
vt 0.698032 0.533377
vt 0.698137 0.556660
vt 0.678371 0.553198
vt 0.731834 0.482132
vt 0.724226 0.458749
vt 0.741132 0.440887
vt 0.759486 0.479325
vt 0.712270 0.524908
vt 0.728318 0.545040
vt 0.714204 0.451871
vt 0.722176 0.430597
vt 0.476477 0.317231
vt 0.543959 0.289923
vt 0.565178 0.331563
vt 0.498102 0.328020
vt 0.497823 0.376399
vt 0.529418 0.352481
vt 0.537330 0.414724
vt 0.591637 0.388191
vt 0.841821 0.032512
vt 0.825032 0.087672
vt 0.540152 0.535395
vt 0.581635 0.528453
vt 0.564671 0.598946
vt 0.622267 0.601817
vt 0.480510 0.857218
vt 0.509693 0.822394
vt 0.539268 0.841334
vt 0.533944 0.869396
vt 0.557198 0.716055
vt 0.594889 0.724517
vt 0.510724 0.810857
vt 0.556123 0.826611
vt 0.654041 0.211964
vt 0.703096 0.146359
vt 0.739618 0.130138
vt 0.679982 0.238396
vt 0.657965 0.540288
vt 0.677430 0.524912
vt 0.680946 0.461766
vt 0.662156 0.442222
vt 0.701111 0.425839
vt 0.702065 0.450516
vt 0.645656 0.513686
vt 0.671298 0.508015
vt 0.665154 0.592567
vt 0.476477 0.317231
vt 0.543959 0.289923
vt 0.565178 0.331563
vt 0.498102 0.328020
vt 0.497823 0.376399
vt 0.529418 0.352481
vt 0.537330 0.414724
vt 0.591637 0.388191
vt 0.841821 0.032512
vt 0.859691 0.064492
vt 0.825032 0.087672
vt 0.540152 0.535395
vt 0.581635 0.528453
vt 0.564671 0.598946
vt 0.622267 0.601817
vt 0.480510 0.857218
vt 0.509693 0.822394
vt 0.539268 0.841334
vt 0.533944 0.869396
vt 0.557198 0.716055
vt 0.594889 0.724517
vt 0.510724 0.810857
vt 0.556123 0.826611
vt 0.556180 0.898326
vt 0.654041 0.211964
vt 0.703096 0.146359
vt 0.739618 0.130138
vt 0.679982 0.238396
vt 0.678371 0.553198
vt 0.657965 0.540288
vt 0.677430 0.524912
vt 0.680946 0.461766
vt 0.662156 0.442222
vt 0.701111 0.425839
vt 0.702065 0.450516
vt 0.645656 0.513686
vt 0.671298 0.508015
vt 0.722176 0.430597
vt 0.977786 0.504476
vt 0.959566 0.498710
vt 0.906302 0.457722
vt 0.949589 0.439937
vt 0.928299 0.535567
vt 0.919861 0.496897
vt 0.873497 0.538970
vt 0.849259 0.483585
vt 0.894645 0.053525
vt 0.867485 0.099205
vt 0.793977 0.629061
vt 0.766922 0.597117
vt 0.734477 0.661445
vt 0.688559 0.626573
vt 0.638918 0.909752
vt 0.591005 0.888387
vt 0.592286 0.866438
vt 0.635998 0.866634
vt 0.665767 0.756241
vt 0.631825 0.739035
vt 0.642019 0.856133
vt 0.597282 0.840778
vt 0.916822 0.308723
vt 0.879395 0.312152
vt 0.903366 0.187043
vt 0.921665 0.224232
vt 0.698032 0.533377
vt 0.698137 0.556660
vt 0.731834 0.482132
vt 0.724226 0.458749
vt 0.741132 0.440887
vt 0.759486 0.479325
vt 0.712270 0.524908
vt 0.728318 0.545040
vt 0.665154 0.592567
vn 0.6230 -0.7449 0.2388
vn -0.0619 0.9907 0.1210
vn -0.4642 0.8798 0.1027
vn 0.8964 -0.3995 0.1919
vn 0.9876 0.0208 0.1555
vn 0.6100 0.7564 0.2361
vn 0.4722 -0.7562 0.4530
vn 0.8581 0.1960 0.4746
vn 0.9083 -0.1196 0.4009
vn 0.8392 0.4693 0.2747
vn 0.6590 0.6468 0.3839
vn 0.9089 -0.1049 0.4036
vn 0.8708 -0.3637 0.3307
vn -0.0874 -0.9962 0.0000
vn -0.7504 0.6610 0.0000
vn -0.8182 -0.5749 0.0000
vn -0.2225 0.9749 0.0000
vn -0.9955 -0.0948 0.0000
vn -0.6230 -0.7449 0.2388
vn 0.0619 0.9907 0.1210
vn 0.4642 0.8798 0.1027
vn -0.8964 -0.3995 0.1919
vn -0.9876 0.0208 0.1555
vn -0.6100 0.7564 0.2361
vn -0.4722 -0.7562 0.4530
vn -0.8581 0.1960 0.4746
vn -0.9083 -0.1196 0.4009
vn -0.8392 0.4693 0.2747
vn -0.6590 0.6468 0.3839
vn -0.9089 -0.1049 0.4036
vn -0.8708 -0.3637 0.3307
vn 0.0874 -0.9962 0.0000
vn 0.7504 0.6610 0.0000
vn 0.8182 -0.5749 0.0000
vn 0.2225 0.9749 0.0000
vn 0.9955 -0.0948 0.0000
vn 0.2008 -0.1411 0.9694
vn -0.2008 -0.1411 0.9694
vn 0.0000 0.0000 1.0000
vn 0.0000 -0.5474 0.8369
vn 0.0000 0.5295 0.8483
vn 0.0000 -0.1471 0.9891
vn 0.0000 0.1463 0.9892
vn -0.1550 -0.2212 0.9628
vn -0.2788 -0.0126 0.9603
vn 0.2788 -0.0126 0.9603
vn 0.1260 -0.2875 0.9495
vn 0.1484 -0.2116 0.9660
vn 0.0000 -0.4195 0.9078
vn -0.1271 -0.2795 0.9517
vn 0.2058 -0.0589 0.9768
vn -0.2058 -0.0589 0.9768
vn 0.0000 0.3884 0.9215
vn 0.0000 -0.1171 0.9931
vn 0.0322 -0.0895 0.9955
vn -0.0322 -0.0895 0.9955
vn -0.2109 -0.0397 0.9767
vn 0.2109 -0.0397 0.9767
vn 0.0084 0.0370 0.9993
vn -0.0084 0.0370 0.9993
vn 0.0000 0.0433 0.9991
vn 0.6230 -0.7449 -0.2388
vn -0.0619 0.9907 -0.1210
vn -0.4642 0.8798 -0.1027
vn 0.8964 -0.3995 -0.1919
vn 0.9876 0.0208 -0.1555
vn 0.6100 0.7564 -0.2361
vn 0.4722 -0.7562 -0.4530
vn 0.8581 0.1960 -0.4746
vn 0.9083 -0.1196 -0.4009
vn 0.8392 0.4693 -0.2747
vn 0.6590 0.6468 -0.3839
vn 0.9089 -0.1049 -0.4036
vn 0.8708 -0.3637 -0.3307
vn -0.6230 -0.7449 -0.2388
vn 0.0619 0.9907 -0.1210
vn 0.4642 0.8798 -0.1027
vn -0.8964 -0.3995 -0.1919
vn -0.9876 0.0208 -0.1555
vn -0.6100 0.7564 -0.2361
vn -0.4722 -0.7562 -0.4530
vn -0.8581 0.1960 -0.4746
vn -0.9083 -0.1196 -0.4009
vn -0.8392 0.4693 -0.2747
vn -0.6590 0.6468 -0.3839
vn -0.9089 -0.1049 -0.4036
vn -0.8708 -0.3637 -0.3307
vn 0.2008 -0.1411 -0.9694
vn -0.2008 -0.1411 -0.9694
vn 0.0000 0.0000 -1.0000
vn 0.0000 -0.5474 -0.8369
vn 0.0000 0.5295 -0.8483
vn 0.0000 -0.1471 -0.9891
vn 0.0000 0.1463 -0.9892
vn -0.1550 -0.2212 -0.9628
vn -0.2788 -0.0126 -0.9603
vn 0.2788 -0.0126 -0.9603
vn 0.1260 -0.2875 -0.9495
vn 0.1484 -0.2116 -0.9660
vn 0.0000 -0.4195 -0.9078
vn -0.1271 -0.2795 -0.9517
vn 0.2058 -0.0589 -0.9768
vn -0.2058 -0.0589 -0.9768
vn 0.0000 0.3884 -0.9215
vn 0.0000 -0.1171 -0.9931
vn 0.0322 -0.0895 -0.9955
vn -0.0322 -0.0895 -0.9955
vn -0.2109 -0.0397 -0.9767
vn 0.2109 -0.0397 -0.9767
vn 0.0084 0.0370 -0.9993
vn -0.0084 0.0370 -0.9993
vn 0.0000 0.0433 -0.9991
usemtl Material.001
s off
f 83/1/1 6/2/1 5/3/1 82/4/1
f 84/5/2 7/6/2 6/2/2 83/1/2
f 85/7/3 8/8/3 7/6/3 84/5/3
f 79/9/4 2/10/4 18/11/4 95/12/4
f 86/13/5 9/14/5 8/8/5 85/7/5
f 87/15/6 10/16/6 9/14/6 86/13/6
f 78/17/7 1/18/7 13/19/7 90/20/7
f 88/21/8 11/22/8 10/16/8 87/15/8
f 89/23/9 12/24/9 11/22/9 88/21/9
f 90/20/10 13/19/10 12/24/10 89/23/10
f 109/25/11 32/26/11 1/18/11 78/17/11
f 81/27/12 4/28/12 3/29/12 80/30/12
f 82/4/13 5/3/13 4/28/13 81/27/13
f 115/31/14 91/32/14 14/33/14 38/34/14
f 93/35/15 94/36/15 17/37/15 16/38/15
f 91/32/16 92/39/16 15/40/16 14/33/16
f 94/36/17 114/41/17 37/42/17 17/37/17
f 92/39/18 93/35/18 16/38/18 15/40/18
f 101/43/19 100/44/19 23/45/19 24/46/19
f 102/47/20 101/43/20 24/46/20 25/48/20
f 103/49/21 102/47/21 25/48/21 26/50/21
f 97/51/22 95/12/22 18/11/22 20/52/22
f 104/53/23 103/49/23 26/50/23 27/54/23
f 105/55/24 104/53/24 27/54/24 28/56/24
f 96/57/25 108/58/25 31/59/25 19/60/25
f 106/61/26 105/55/26 28/56/26 29/62/26
f 107/63/27 106/61/27 29/62/27 30/64/27
f 108/58/28 107/63/28 30/64/28 31/59/28
f 109/25/29 96/57/29 19/60/29 32/26/29
f 99/65/30 98/66/30 21/67/30 22/68/30
f 100/44/31 99/65/31 22/68/31 23/45/31
f 115/31/32 38/34/32 33/69/32 110/70/32
f 112/71/33 35/72/33 36/73/33 113/74/33
f 110/70/34 33/69/34 34/75/34 111/76/34
f 113/74/35 36/73/35 37/42/35 114/41/35
f 111/76/36 34/75/36 35/72/36 112/71/36
f 34/75/37 33/69/37 27/54/37
f 15/40/38 9/14/38 14/33/38
f 1/18/39 32/26/39 19/60/39
f 13/19/40 1/18/40 19/60/40 31/59/40
f 12/24/41 13/19/41 31/59/41 30/64/41
f 11/22/42 12/24/42 30/64/42 29/62/42
f 10/16/43 11/22/43 29/62/43 28/56/43
f 9/14/44 10/16/44 39/77/44
f 8/8/45 9/14/45 15/40/45 16/38/45
f 26/50/46 35/72/46 34/75/46 27/54/46
f 33/69/47 38/34/47 39/77/47 27/54/47
f 39/77/48 28/56/48 27/54/48
f 28/56/49 39/77/49 10/16/49
f 38/34/50 14/33/50 9/14/50 39/77/50
f 6/2/51 7/6/51 8/8/51 5/3/51
f 24/46/52 23/45/52 26/50/52 25/48/52
f 18/11/39 2/10/39 20/52/39
f 2/10/53 3/29/53 21/67/53 20/52/53
f 3/29/54 4/28/54 22/68/54 21/67/54
f 22/68/55 26/50/55 23/45/55
f 4/28/56 5/3/56 8/8/56
f 16/38/57 17/37/57 4/28/57 8/8/57
f 35/72/58 26/50/58 22/68/58 36/73/58
f 37/42/59 36/73/59 22/68/59
f 37/42/60 4/28/60 17/37/60
f 4/28/61 37/42/61 22/68/61
f 83/78/62 82/79/62 44/80/62 45/81/62
f 84/82/63 83/78/63 45/81/63 46/83/63
f 85/84/64 84/82/64 46/83/64 47/85/64
f 79/86/65 95/12/65 57/87/65 41/88/65
f 86/89/66 85/84/66 47/85/66 48/90/66
f 87/91/67 86/89/67 48/90/67 49/92/67
f 78/93/68 90/94/68 52/95/68 40/96/68
f 88/97/69 87/91/69 49/92/69 50/98/69
f 89/99/70 88/97/70 50/98/70 51/100/70
f 90/94/71 89/99/71 51/100/71 52/95/71
f 109/25/72 78/93/72 40/96/72 71/101/72
f 81/102/73 80/103/73 42/104/73 43/105/73
f 82/79/74 81/102/74 43/105/74 44/80/74
f 115/31/14 77/106/14 53/107/14 91/108/14
f 93/109/15 55/110/15 56/111/15 94/112/15
f 91/108/16 53/107/16 54/113/16 92/114/16
f 94/112/17 56/111/17 76/115/17 114/41/17
f 92/114/18 54/113/18 55/110/18 93/109/18
f 101/116/75 63/117/75 62/118/75 100/119/75
f 102/120/76 64/121/76 63/117/76 101/116/76
f 103/122/77 65/123/77 64/121/77 102/120/77
f 97/124/78 59/125/78 57/87/78 95/12/78
f 104/126/79 66/127/79 65/123/79 103/122/79
f 105/128/80 67/129/80 66/127/80 104/126/80
f 96/130/81 58/131/81 70/132/81 108/133/81
f 106/134/82 68/135/82 67/129/82 105/128/82
f 107/136/83 69/137/83 68/135/83 106/134/83
f 108/133/84 70/132/84 69/137/84 107/136/84
f 109/25/85 71/101/85 58/131/85 96/130/85
f 99/138/86 61/139/86 60/140/86 98/141/86
f 100/119/87 62/118/87 61/139/87 99/138/87
f 115/31/32 110/142/32 72/143/32 77/106/32
f 112/144/33 113/145/33 75/146/33 74/147/33
f 110/142/34 111/148/34 73/149/34 72/143/34
f 113/145/35 114/41/35 76/115/35 75/146/35
f 111/148/36 112/144/36 74/147/36 73/149/36
f 73/149/88 66/127/88 72/143/88
f 54/113/89 53/107/89 48/90/89
f 40/96/90 58/131/90 71/101/90
f 52/95/91 70/132/91 58/131/91 40/96/91
f 51/100/92 69/137/92 70/132/92 52/95/92
f 50/98/93 68/135/93 69/137/93 51/100/93
f 49/92/94 67/129/94 68/135/94 50/98/94
f 48/90/95 116/150/95 49/92/95
f 47/85/96 55/110/96 54/113/96 48/90/96
f 65/123/97 66/127/97 73/149/97 74/147/97
f 72/143/98 66/127/98 116/150/98 77/106/98
f 116/150/99 66/127/99 67/129/99
f 67/129/100 49/92/100 116/150/100
f 77/106/101 116/150/101 48/90/101 53/107/101
f 45/81/102 44/80/102 47/85/102 46/83/102
f 63/117/103 64/121/103 65/123/103 62/118/103
f 57/87/90 59/125/90 41/88/90
f 41/88/104 59/125/104 60/140/104 42/104/104
f 42/104/105 60/140/105 61/139/105 43/105/105
f 61/139/106 62/118/106 65/123/106
f 43/105/107 47/85/107 44/80/107
f 55/110/108 47/85/108 43/105/108 56/111/108
f 74/147/109 75/146/109 61/139/109 65/123/109
f 76/115/110 61/139/110 75/146/110
f 76/115/111 56/111/111 43/105/111
f 43/105/112 61/139/112 76/115/112
