# Blender v2.79 (sub 0) OBJ File: 'knife21.blend'
# www.blender.org
mtllib knife21_Holder.mtl
o Cube.002_Cube.003
v -0.561101 8.861505 0.232903
v -0.580563 8.893957 0.232903
v -0.710849 8.691927 0.232903
v -0.545760 8.868079 0.000000
v -0.578371 8.920257 0.000000
v -0.728382 8.698502 0.000000
v -0.561101 8.861505 -0.232903
v -0.580563 8.893957 -0.232903
v -0.710849 8.691927 -0.232903
v -0.206606 6.872287 0.099842
v 0.112982 6.846199 0.099842
v 0.041235 5.185134 0.096788
v -0.516510 6.823694 0.099842
v -0.376183 7.002731 0.099842
v -0.050073 7.009254 0.099842
v 0.276036 7.002731 0.099842
v 0.406480 6.774455 0.099842
v 0.347781 6.193979 0.099842
v 0.184726 5.476538 0.099842
v 0.156135 5.207788 0.099842
v -0.056596 9.182225 0.100878
v 0.031584 9.082060 0.100878
v 0.025985 7.537551 0.100878
v 0.072556 7.380966 0.232903
v 0.365261 7.343920 0.232903
v 0.480416 7.537289 0.232903
v 0.580335 7.304839 0.232903
v 0.545533 6.644011 0.232903
v 0.253658 5.194865 0.232903
v -0.177679 9.101863 0.100878
v -0.148744 7.550595 0.100878
v -0.188235 7.376582 0.232903
v -0.415422 7.372199 0.232903
v -0.535013 7.454849 0.232903
v -0.693737 7.957057 0.232903
v -0.643698 8.646324 0.232903
v -0.782593 7.904985 0.232903
v -0.634721 7.094094 0.232903
v -0.739076 6.702763 0.232903
v -0.665351 6.672502 0.232903
v 0.184216 5.091529 0.159312
v -0.580668 6.774560 0.232903
v -0.380566 7.022456 0.232903
v -0.197840 6.892012 0.232903
v -0.045690 7.026786 0.232903
v 0.112982 6.865923 0.232903
v 0.282611 7.031222 0.232903
v 0.424013 6.781029 0.232903
v 0.363122 6.180830 0.232903
v 0.197875 5.480921 0.232903
v 0.169552 5.194179 0.206581
v 0.399905 5.901656 0.232903
v -0.056596 9.233321 0.000000
v 0.106459 9.155055 0.000000
v 0.067326 7.537551 0.000000
v 0.158637 7.387541 0.000000
v 0.354303 7.361453 0.000000
v 0.478224 7.570163 0.000000
v 0.589102 7.315797 0.000000
v 0.577167 6.638842 0.000000
v 0.277146 5.158061 0.000000
v 0.228785 5.065640 0.000000
v -0.245739 9.142011 0.000000
v -0.206606 7.550595 0.000000
v -0.265306 7.387540 0.000000
v -0.402272 7.387540 0.000000
v -0.519671 7.465806 0.000000
v -0.676204 7.968016 0.000000
v -0.630549 8.646324 0.000000
v -0.800126 7.902794 0.000000
v -0.656637 7.087520 0.000000
v -0.760993 6.696188 0.000000
v -0.663160 6.644011 0.000000
v -0.565327 6.761410 0.000000
v 0.041235 5.185134 -0.096788
v -0.516510 6.823694 -0.099842
v -0.376183 7.002731 -0.099842
v -0.206606 6.872287 -0.099842
v -0.050073 7.009254 -0.099842
v 0.112982 6.846199 -0.099842
v 0.276036 7.002731 -0.099842
v 0.406480 6.774455 -0.099842
v 0.347781 6.193979 -0.099842
v 0.184726 5.476538 -0.099842
v 0.156135 5.207788 -0.099842
v -0.056596 9.182225 -0.100878
v 0.031584 9.082060 -0.100878
v 0.025985 7.537551 -0.100878
v 0.072556 7.380966 -0.232903
v 0.365261 7.343920 -0.232903
v 0.480416 7.537289 -0.232903
v 0.580335 7.304839 -0.232903
v 0.545533 6.644011 -0.232903
v 0.253658 5.194865 -0.232903
v -0.177679 9.101863 -0.100878
v -0.148744 7.550595 -0.100878
v -0.188235 7.376582 -0.232903
v -0.415422 7.372199 -0.232903
v -0.535013 7.454849 -0.232903
v -0.693737 7.957057 -0.232903
v -0.643698 8.646324 -0.232903
v -0.782593 7.904985 -0.232903
v -0.634721 7.094094 -0.232903
v -0.739076 6.702763 -0.232903
v -0.665351 6.672502 -0.232903
v 0.184216 5.091529 -0.159312
v -0.580668 6.774560 -0.232903
v -0.380566 7.022456 -0.232903
v -0.197840 6.892012 -0.232903
v -0.045690 7.026786 -0.232903
v 0.112982 6.865923 -0.232903
v 0.282611 7.031222 -0.232903
v 0.424013 6.781029 -0.232903
v 0.363122 6.180830 -0.232903
v 0.197875 5.480921 -0.232903
v 0.169552 5.194179 -0.206581
v 0.421988 5.911375 0.000000
v 0.399905 5.901656 -0.232903
vt 0.568375 0.947675
vt 0.603652 0.929808
vt 0.608541 0.950282
vt 0.610705 0.976823
vt 0.611417 0.948738
vt 0.621520 0.973728
vt 0.608541 0.950282
vt 0.603652 0.929808
vt 0.611417 0.948738
vt 0.867962 0.429081
vt 0.904028 0.594556
vt 0.878762 0.629742
vt 0.827637 0.467207
vt 0.848442 0.610598
vt 0.809250 0.547975
vt 0.800951 0.650361
vt 0.761842 0.551419
vt 0.728406 0.668856
vt 0.739399 0.583641
vt 0.687551 0.695113
vt 0.703070 0.583839
vt 0.666594 0.722746
vt 0.673915 0.610935
vt 0.614037 0.639061
vt 0.605262 0.589805
vt 0.763006 0.731957
vt 0.778811 0.714097
vt 0.873742 0.967384
vt 0.860098 0.987131
vt 0.930822 0.989506
vt 0.923169 0.969472
vt 0.928735 0.949964
vt 0.957038 0.958984
vt 0.703407 0.748494
vt 0.719010 0.733862
vt 0.866578 0.662420
vt 0.912523 0.660921
vt 0.564164 0.804166
vt 0.607297 0.805371
vt 0.831784 0.694982
vt 0.810186 0.696064
vt 0.841032 0.671334
vt 0.957038 0.609079
vt 0.569387 0.643997
vt 0.934055 0.418781
vt 0.564164 0.580147
vt 0.588511 0.591870
vt 0.613596 0.926448
vt 0.649017 0.940187
vt 0.575704 0.565886
vt 0.592536 0.586550
vt 0.644012 0.824693
vt 0.683400 0.831758
vt 0.738307 0.723126
vt 0.898744 0.221545
vt 0.834720 0.231099
vt 0.813177 0.067029
vt 0.855897 0.031974
vt 0.757020 0.128390
vt 0.789506 0.128335
vt 0.822558 0.305227
vt 0.789416 0.312210
vt 0.775201 0.518735
vt 0.740413 0.529086
vt 0.682275 0.558284
vt 0.666100 0.583970
vt 0.763544 0.060941
vt 0.789629 0.063801
vt 0.792590 0.461452
vt 0.713979 0.553101
vt 0.764239 0.029757
vt 0.628223 0.581525
vt 0.802487 0.044077
vt 0.600843 0.556739
vt 0.833453 0.009659
vt 0.867962 0.429081
vt 0.827637 0.467207
vt 0.878762 0.629742
vt 0.904028 0.594556
vt 0.809250 0.547975
vt 0.848442 0.610598
vt 0.761842 0.551419
vt 0.800951 0.650361
vt 0.739399 0.583641
vt 0.728406 0.668856
vt 0.703070 0.583839
vt 0.687551 0.695113
vt 0.673915 0.610935
vt 0.666594 0.722746
vt 0.605262 0.589805
vt 0.614037 0.639061
vt 0.873742 0.967384
vt 0.778811 0.714097
vt 0.928735 0.949964
vt 0.923169 0.969472
vt 0.607297 0.805371
vt 0.810186 0.696064
vt 0.588511 0.591870
vt 0.613596 0.926448
vt 0.592536 0.586550
vt 0.644012 0.824693
vt 0.813177 0.067029
vt 0.834720 0.231099
vt 0.757020 0.128390
vt 0.789416 0.312210
vt 0.822558 0.305227
vt 0.789506 0.128335
vt 0.775201 0.518735
vt 0.740413 0.529086
vt 0.682275 0.558284
vt 0.666100 0.583970
vt 0.763544 0.060941
vt 0.789629 0.063801
vt 0.792590 0.461452
vt 0.713979 0.553101
vt 0.764239 0.029757
vt 0.628223 0.581525
vt 0.802487 0.044077
vn -0.8322 0.5504 0.0663
vn 0.8497 0.5228 0.0689
vn -0.8322 0.5504 -0.0663
vn 0.8497 0.5228 -0.0689
vn -0.0000 -0.0000 1.0000
vn -0.8498 -0.0184 0.5267
vn 0.4707 0.6628 0.5823
vn 0.5599 0.8246 0.0808
vn -0.8568 0.5095 0.0793
vn -0.9931 0.0900 0.0756
vn 0.8061 0.4993 0.3176
vn 0.9165 0.3969 0.0503
vn -0.9806 -0.1757 0.0864
vn 0.9957 -0.0348 0.0859
vn 0.1279 0.9892 0.0718
vn -0.9629 0.2568 0.0834
vn 0.9326 -0.3573 0.0520
vn 0.8684 -0.0123 0.4958
vn -0.4315 -0.8980 0.0859
vn -0.4226 0.7637 0.4880
vn 0.9955 -0.0697 0.0639
vn -0.0120 0.9982 0.0580
vn 0.9510 0.2985 0.0812
vn -0.8503 0.3873 0.3564
vn 0.9751 -0.1944 0.1067
vn -0.9682 0.2243 0.1110
vn 0.6909 -0.7142 0.1123
vn -0.5902 -0.7970 0.1279
vn -0.9889 0.0960 0.1132
vn -0.8606 -0.4890 0.1424
vn 0.6590 -0.7486 0.0722
vn -0.9872 0.1000 0.1244
vn -0.1951 0.9695 0.1482
vn -0.7052 -0.7005 0.1097
vn 0.7751 -0.6180 0.1313
vn 0.7544 -0.6323 0.1760
vn 0.7548 -0.6503 0.0859
vn 0.0124 0.6242 0.7812
vn -0.2932 -0.1676 0.9412
vn 0.9737 -0.1993 0.1103
vn -0.5767 -0.4082 0.7076
vn -0.0537 -0.9879 0.1455
vn -0.0000 -0.0000 -1.0000
vn -0.8498 -0.0184 -0.5267
vn 0.4707 0.6628 -0.5823
vn 0.5599 0.8246 -0.0808
vn -0.8568 0.5095 -0.0793
vn -0.9931 0.0900 -0.0756
vn 0.8061 0.4993 -0.3176
vn 0.9165 0.3969 -0.0503
vn -0.9806 -0.1757 -0.0864
vn 0.9957 -0.0348 -0.0859
vn 0.1279 0.9892 -0.0718
vn -0.9629 0.2568 -0.0834
vn 0.9326 -0.3573 -0.0520
vn 0.8684 -0.0123 -0.4958
vn -0.4315 -0.8980 -0.0859
vn -0.4226 0.7637 -0.4880
vn 0.9955 -0.0697 -0.0639
vn -0.0120 0.9982 -0.0580
vn 0.9510 0.2985 -0.0812
vn -0.8503 0.3873 -0.3564
vn 0.9751 -0.1944 -0.1067
vn -0.9682 0.2243 -0.1110
vn 0.6909 -0.7142 -0.1123
vn -0.5902 -0.7970 -0.1279
vn -0.9889 0.0960 -0.1132
vn -0.8606 -0.4890 -0.1424
vn 0.6590 -0.7486 -0.0722
vn -0.9872 0.1000 -0.1244
vn -0.1951 0.9695 -0.1482
vn -0.7052 -0.7005 -0.1097
vn 0.7751 -0.6180 -0.1313
vn 0.7544 -0.6323 -0.1760
vn 0.7548 -0.6503 -0.0859
vn 0.0124 0.6242 -0.7812
vn -0.2932 -0.1676 -0.9412
vn 0.9737 -0.1993 -0.1103
vn -0.5767 -0.4082 -0.7076
vn -0.0537 -0.9879 -0.1455
usemtl Material
s off
f 6/1/1 3/2/1 2/3/1 5/4/1
f 5/4/2 2/3/2 1/5/2 4/6/2
f 6/1/3 5/4/3 8/7/3 9/8/3
f 5/4/4 4/6/4 7/9/4 8/7/4
f 28/10/5 27/11/5 26/12/5 48/13/5
f 48/13/5 26/12/5 25/14/5 47/15/5
f 25/14/5 24/16/5 46/17/5 47/15/5
f 46/17/5 24/16/5 32/18/5 45/19/5
f 45/19/5 32/18/5 33/20/5 44/21/5
f 33/20/5 34/22/5 43/23/5 44/21/5
f 43/23/5 34/22/5 38/24/5 42/25/5
f 64/26/6 31/27/6 30/28/6 63/29/6
f 53/30/7 21/31/7 22/32/7 54/33/7
f 67/34/8 34/22/8 33/20/8 66/35/8
f 57/36/9 25/14/9 26/12/9 58/37/9
f 70/38/10 37/39/10 3/2/10 6/1/10
f 55/40/11 23/41/11 24/16/11 56/42/11
f 58/37/12 26/12/12 27/11/12 59/43/12
f 71/44/13 38/24/13 37/39/13 70/38/13
f 59/43/14 27/11/14 28/10/14 60/45/14
f 56/42/15 24/16/15 25/14/15 57/36/15
f 72/46/16 39/47/16 38/24/16 71/44/16
f 4/6/17 1/5/17 36/48/17 69/49/17
f 54/33/18 22/32/18 23/41/18 55/40/18
f 73/50/19 40/51/19 39/47/19 72/46/19
f 63/29/20 30/28/20 21/31/20 53/30/20
f 69/49/21 36/48/21 35/52/21 68/53/21
f 66/35/22 33/20/22 32/18/22 65/54/22
f 68/53/23 35/52/23 34/22/23 67/34/23
f 65/54/24 32/18/24 31/27/24 64/26/24
f 117/55/25 52/56/25 29/57/25 61/58/25
f 19/59/26 50/60/26 49/61/26 18/62/26
f 16/63/27 47/15/27 46/17/27 11/64/27
f 10/65/28 44/21/28 43/23/28 14/66/28
f 20/67/29 51/68/29 50/60/29 19/59/29
f 17/69/30 48/13/30 47/15/30 16/63/30
f 15/70/31 45/19/31 44/21/31 10/65/31
f 18/62/32 49/61/32 48/13/32 17/69/32
f 20/67/33 12/71/33 51/68/33
f 11/64/34 46/17/34 45/19/34 15/70/34
f 14/66/35 43/23/35 42/25/35 13/72/35
f 41/73/36 61/58/36 29/57/36
f 74/74/37 13/72/37 42/25/37 40/51/37 73/50/37
f 30/28/5 31/27/5 23/41/5 22/32/5 21/31/5
f 32/18/38 24/16/38 23/41/38 31/27/38
f 2/3/5 3/2/5 36/48/5 1/5/5
f 36/48/5 3/2/5 37/39/5 35/52/5
f 35/52/5 37/39/5 38/24/5 34/22/5
f 38/24/5 39/47/5 40/51/5 42/25/5
f 51/68/39 41/73/39 29/57/39 50/60/39
f 60/45/40 28/10/40 52/56/40 117/55/40
f 52/56/5 49/61/5 50/60/5 29/57/5
f 48/13/5 49/61/5 52/56/5 28/10/5
f 51/68/41 12/71/41 41/73/41
f 61/58/42 41/73/42 12/71/42 62/75/42
f 93/76/43 113/77/43 91/78/43 92/79/43
f 113/77/43 112/80/43 90/81/43 91/78/43
f 90/81/43 112/80/43 111/82/43 89/83/43
f 111/82/43 110/84/43 97/85/43 89/83/43
f 110/84/43 109/86/43 98/87/43 97/85/43
f 98/87/43 109/86/43 108/88/43 99/89/43
f 108/88/43 107/90/43 103/91/43 99/89/43
f 64/26/44 63/29/44 95/92/44 96/93/44
f 53/30/45 54/33/45 87/94/45 86/95/45
f 67/34/46 66/35/46 98/87/46 99/89/46
f 57/36/47 58/37/47 91/78/47 90/81/47
f 70/38/48 6/1/48 9/8/48 102/96/48
f 55/40/49 56/42/49 89/83/49 88/97/49
f 58/37/50 59/43/50 92/79/50 91/78/50
f 71/44/51 70/38/51 102/96/51 103/91/51
f 59/43/52 60/45/52 93/76/52 92/79/52
f 56/42/53 57/36/53 90/81/53 89/83/53
f 72/46/54 71/44/54 103/91/54 104/98/54
f 4/6/55 69/49/55 101/99/55 7/9/55
f 54/33/56 55/40/56 88/97/56 87/94/56
f 73/50/57 72/46/57 104/98/57 105/100/57
f 63/29/58 53/30/58 86/95/58 95/92/58
f 69/49/59 68/53/59 100/101/59 101/99/59
f 66/35/60 65/54/60 97/85/60 98/87/60
f 68/53/61 67/34/61 99/89/61 100/101/61
f 65/54/62 64/26/62 96/93/62 97/85/62
f 117/55/63 61/58/63 94/102/63 118/103/63
f 84/104/64 83/105/64 114/106/64 115/107/64
f 81/108/65 80/109/65 111/82/65 112/80/65
f 78/110/66 77/111/66 108/88/66 109/86/66
f 85/112/67 84/104/67 115/107/67 116/113/67
f 82/114/68 81/108/68 112/80/68 113/77/68
f 79/115/69 78/110/69 109/86/69 110/84/69
f 83/105/70 82/114/70 113/77/70 114/106/70
f 85/112/71 116/113/71 75/116/71
f 80/109/72 79/115/72 110/84/72 111/82/72
f 77/111/73 76/117/73 107/90/73 108/88/73
f 106/118/74 94/102/74 61/58/74
f 74/74/75 73/50/75 105/100/75 107/90/75 76/117/75
f 95/92/43 86/95/43 87/94/43 88/97/43 96/93/43
f 97/85/76 96/93/76 88/97/76 89/83/76
f 8/7/43 7/9/43 101/99/43 9/8/43
f 101/99/43 100/101/43 102/96/43 9/8/43
f 100/101/43 99/89/43 103/91/43 102/96/43
f 103/91/43 107/90/43 105/100/43 104/98/43
f 116/113/77 115/107/77 94/102/77 106/118/77
f 60/45/78 117/55/78 118/103/78 93/76/78
f 118/103/43 94/102/43 115/107/43 114/106/43
f 113/77/43 93/76/43 118/103/43 114/106/43
f 116/113/79 106/118/79 75/116/79
f 61/58/80 62/75/80 75/116/80 106/118/80
