# Blender v2.79 (sub 0) OBJ File: 'knife30.blend'
# www.blender.org
mtllib knife30_Blade.mtl
o Cube_Cube.004
v 0.002784 2.337873 0.100683
v 0.130630 2.140599 0.062506
v 0.078981 1.591175 0.062506
v -0.022767 0.154694 0.062506
v -0.098801 0.818995 0.062506
v 0.076429 1.007322 0.062506
v -0.027612 0.779159 0.062506
v -0.261284 2.381926 0.100683
v -0.281603 2.315889 0.062506
v -0.319702 1.291458 0.062506
v -0.218105 0.569277 0.062506
v -0.173062 1.521158 0.062506
v -0.062823 1.455014 0.062506
v -0.074459 1.316603 0.062506
v -0.174491 1.252705 0.062506
v -0.282076 1.317011 0.062506
v -0.285547 1.454810 0.062506
v 0.020646 2.343828 0.000000
v 0.147642 2.148255 0.000000
v 0.096844 1.589474 0.000000
v -0.020382 0.032285 0.000000
v -0.083490 0.827501 0.000000
v 0.096844 1.117051 0.000000
v -0.027612 0.797022 0.000000
v -0.312082 2.366687 0.000000
v -0.345101 2.346368 0.000000
v -0.444157 1.258439 0.000000
v -0.309542 0.505779 0.000000
v -0.179186 1.483390 0.000000
v -0.093445 1.435620 0.000000
v -0.095895 1.346204 0.000000
v -0.175512 1.299659 0.000000
v -0.257579 1.342529 0.000000
v -0.253904 1.434395 0.000000
v 0.002784 2.337873 -0.100683
v 0.130630 2.140599 -0.062506
v 0.078981 1.591175 -0.062506
v -0.022767 0.154694 -0.062506
v -0.098801 0.818995 -0.062506
v 0.076429 1.007322 -0.062506
v -0.027612 0.779159 -0.062506
v -0.261284 2.381926 -0.100683
v -0.281603 2.315889 -0.062506
v -0.319702 1.291458 -0.062506
v -0.218105 0.569277 -0.062506
v -0.173062 1.521158 -0.062506
v -0.062823 1.455014 -0.062506
v -0.074459 1.316603 -0.062506
v -0.174491 1.252705 -0.062506
v -0.282076 1.317011 -0.062506
v -0.285547 1.454810 -0.062506
vt 0.264631 0.340501
vt 0.259344 0.308507
vt 0.327776 0.357886
vt 0.378563 0.400094
vt 0.246494 0.352772
vt 0.221050 0.336775
vt 0.061855 0.947602
vt 0.097779 0.940638
vt 0.111937 0.968877
vt 0.069617 0.959222
vt 0.061855 0.527669
vt 0.117875 0.543614
vt 0.104454 0.204779
vt 0.150530 0.225178
vt 0.169548 0.024058
vt 0.175965 0.082590
vt 0.167551 0.607226
vt 0.190184 0.598430
vt 0.210851 0.611095
vt 0.163957 0.632608
vt 0.192021 0.574775
vt 0.211269 0.559700
vt 0.169601 0.559842
vt 0.172608 0.534002
vt 0.150935 0.569591
vt 0.130111 0.553551
vt 0.256541 0.949734
vt 0.219344 0.940106
vt 0.257406 0.863628
vt 0.280364 0.867999
vt 0.151352 0.592529
vt 0.128932 0.603665
vt 0.254823 0.664325
vt 0.279924 0.663210
vt 0.327776 0.357886
vt 0.259344 0.308507
vt 0.221050 0.336775
vt 0.111937 0.968877
vt 0.097779 0.940638
vt 0.117875 0.543614
vt 0.150530 0.225178
vt 0.175965 0.082590
vt 0.167841 0.631745
vt 0.210851 0.611095
vt 0.211269 0.559700
vt 0.172608 0.534002
vt 0.130111 0.553551
vt 0.257406 0.863628
vt 0.219344 0.940106
vt 0.128932 0.603665
vt 0.254823 0.664325
vn -0.8971 0.3739 0.2352
vn 0.4704 0.8501 0.2369
vn -0.7863 0.2326 0.5724
vn -0.5538 0.0360 0.8319
vn -0.4740 -0.0759 0.8772
vn -0.5257 -0.2868 0.8009
vn -0.4416 -0.7598 0.4772
vn -0.9200 0.0569 0.3878
vn -0.4460 0.7254 0.5243
vn 0.4224 0.7475 0.5127
vn 0.8280 0.5158 0.2200
vn 0.9122 -0.0008 0.4096
vn 0.9605 -0.0888 0.2637
vn 0.9456 -0.2207 0.2389
vn 0.4686 -0.7605 0.4496
vn 0.9759 -0.1090 0.1890
vn 0.0000 -0.0000 1.0000
vn -0.1023 -0.3153 0.9435
vn -0.8971 0.3739 -0.2352
vn 0.4704 0.8501 -0.2369
vn -0.7863 0.2326 -0.5724
vn -0.5538 0.0360 -0.8319
vn -0.4740 -0.0759 -0.8772
vn -0.5257 -0.2868 -0.8009
vn -0.4416 -0.7598 -0.4772
vn -0.9200 0.0569 -0.3878
vn -0.4460 0.7254 -0.5243
vn 0.4224 0.7475 -0.5127
vn 0.8280 0.5158 -0.2200
vn 0.9122 -0.0008 -0.4096
vn 0.9605 -0.0888 -0.2637
vn 0.9456 -0.2207 -0.2389
vn 0.4686 -0.7605 -0.4496
vn 0.9759 -0.1090 -0.1890
vn 0.0000 -0.0000 -1.0000
vn -0.1023 -0.3153 -0.9435
usemtl Material
s off
f 24/1/1 7/2/1 6/3/1 23/4/1
f 22/5/2 5/6/2 7/2/2 24/1/2
f 26/7/3 9/8/3 8/9/3 25/10/3
f 27/11/4 10/12/4 9/8/4 26/7/4
f 28/13/5 11/14/5 10/12/5 27/11/5
f 21/15/6 4/16/6 11/14/6 28/13/6
f 29/17/7 30/18/7 13/19/7 12/20/7
f 30/18/8 31/21/8 14/22/8 13/19/8
f 31/21/9 32/23/9 15/24/9 14/22/9
f 32/23/10 33/25/10 16/26/10 15/24/10
f 18/27/11 1/28/11 2/29/11 19/30/11
f 33/25/12 34/31/12 17/32/12 16/26/12
f 19/30/13 2/29/13 3/33/13 20/34/13
f 20/34/14 3/33/14 5/6/14 22/5/14
f 34/31/15 29/17/15 12/20/15 17/32/15
f 23/4/16 6/3/16 4/16/16 21/15/16
f 6/3/17 7/2/17 4/16/17
f 5/6/17 11/14/17 4/16/17 7/2/17
f 11/14/17 5/6/17 10/12/17
f 15/24/17 16/26/17 10/12/17 5/6/17
f 17/32/17 10/12/17 16/26/17
f 15/24/17 5/6/17 14/22/17
f 5/6/17 3/33/17 13/19/17 14/22/17
f 10/12/17 17/32/17 9/8/17
f 17/32/17 12/20/17 9/8/17
f 13/19/17 3/33/17 12/20/17
f 3/33/17 2/29/17 12/20/17
f 12/20/17 2/29/17 9/8/17
f 1/28/18 8/9/18 9/8/18 2/29/18
f 24/1/19 23/4/19 40/35/19 41/36/19
f 22/5/20 24/1/20 41/36/20 39/37/20
f 26/7/21 25/10/21 42/38/21 43/39/21
f 27/11/22 26/7/22 43/39/22 44/40/22
f 28/13/23 27/11/23 44/40/23 45/41/23
f 21/15/24 28/13/24 45/41/24 38/42/24
f 29/17/25 46/43/25 47/44/25 30/18/25
f 30/18/26 47/44/26 48/45/26 31/21/26
f 31/21/27 48/45/27 49/46/27 32/23/27
f 32/23/28 49/46/28 50/47/28 33/25/28
f 18/27/29 19/30/29 36/48/29 35/49/29
f 33/25/30 50/47/30 51/50/30 34/31/30
f 19/30/31 20/34/31 37/51/31 36/48/31
f 20/34/32 22/5/32 39/37/32 37/51/32
f 34/31/33 51/50/33 46/43/33 29/17/33
f 23/4/34 21/15/34 38/42/34 40/35/34
f 40/35/35 38/42/35 41/36/35
f 39/37/35 41/36/35 38/42/35 45/41/35
f 45/41/35 44/40/35 39/37/35
f 49/46/35 39/37/35 44/40/35 50/47/35
f 51/50/35 50/47/35 44/40/35
f 49/46/35 48/45/35 39/37/35
f 39/37/35 48/45/35 47/44/35 37/51/35
f 44/40/35 43/39/35 51/50/35
f 51/50/35 43/39/35 46/43/35
f 47/44/35 46/43/35 37/51/35
f 37/51/35 46/43/35 36/48/35
f 46/43/35 43/39/35 36/48/35
f 35/49/36 36/48/36 43/39/36 42/38/36
