# Blender v2.79 (sub 0) OBJ File: 'knife24.blend'
# www.blender.org
mtllib knife24_Blade.mtl
o Cube_Cube.002
v 0.394750 2.173656 0.152612
v 0.407770 0.623957 0.148586
v 0.459688 2.882000 0.155153
v 0.501165 1.572137 0.115316
v 0.163533 2.343485 0.184895
v 0.755817 3.139204 0.178949
v 0.155404 2.329231 0.000000
v 0.226872 1.001112 0.000000
v 0.755817 3.139204 0.000000
v 0.600969 2.906932 0.000000
v 0.000556 0.036290 0.000000
v 0.565235 2.138649 0.000000
v 0.458032 0.530612 0.000000
v 0.702215 1.471611 0.000000
v 0.394750 2.173656 -0.152612
v 0.407770 0.623957 -0.148586
v 0.459688 2.882000 -0.155153
v 0.185728 1.765711 0.000000
v 0.501165 1.572137 -0.115316
v 0.163533 2.343485 -0.184895
v 0.755817 3.139204 -0.178949
vt 0.160490 0.296250
vt 0.190694 0.036469
vt 0.241919 0.219667
vt 0.282395 0.452000
vt 0.210816 0.468535
vt 0.282395 0.194630
vt 0.221518 0.862432
vt 0.160215 0.854640
vt 0.147406 0.641864
vt 0.216335 0.637575
vt 0.107684 0.501448
vt 0.050167 0.654833
vt 0.079127 0.697715
vt 0.256455 0.936214
vt 0.209158 0.958610
vt 0.241919 0.219667
vt 0.210816 0.468535
vt 0.147407 0.641864
vt 0.160216 0.854640
vt 0.079127 0.697715
vt 0.209159 0.958610
vn -0.4799 0.1126 0.8701
vn 0.6789 -0.1085 0.7262
vn 0.7009 -0.0490 0.7116
vn -0.4757 -0.0839 0.8756
vn 0.6083 -0.5630 0.5595
vn -0.5817 -0.8087 0.0879
vn 0.7062 -0.6627 0.2492
vn 0.6044 0.0927 0.7913
vn -0.4413 0.0309 0.8968
vn 0.1273 -0.0152 0.9917
vn -0.4799 0.1126 -0.8701
vn 0.6789 -0.1085 -0.7262
vn 0.7009 -0.0490 -0.7116
vn -0.4757 -0.0839 -0.8756
vn 0.6083 -0.5630 -0.5595
vn -0.5817 -0.8087 -0.0879
vn 0.7062 -0.6627 -0.2492
vn 0.6044 0.0927 -0.7913
vn -0.4413 0.0309 -0.8968
vn 0.1273 -0.0152 -0.9917
usemtl Material.002
s off
f 8/1/1 11/2/1 2/3/1
f 14/4/2 4/5/2 2/3/2 13/6/2
f 10/7/3 3/8/3 1/9/3 12/10/3
f 18/11/4 4/5/4 1/9/4 7/12/4
f 13/6/5 2/3/5 11/2/5
f 7/12/6 1/9/6 5/13/6
f 9/14/7 6/15/7 3/8/7 10/7/7
f 12/10/8 1/9/8 4/5/8 14/4/8
f 8/1/9 2/3/9 4/5/9 18/11/9
f 1/9/10 3/8/10 5/13/10
f 8/1/11 16/16/11 11/2/11
f 14/4/12 13/6/12 16/16/12 19/17/12
f 10/7/13 12/10/13 15/18/13 17/19/13
f 18/11/14 7/12/14 15/18/14 19/17/14
f 13/6/15 11/2/15 16/16/15
f 7/12/16 20/20/16 15/18/16
f 9/14/17 10/7/17 17/19/17 21/21/17
f 12/10/18 14/4/18 19/17/18 15/18/18
f 8/1/19 18/11/19 19/17/19 16/16/19
f 15/18/20 20/20/20 17/19/20
