# Blender v2.79 (sub 0) OBJ File: 'knife7.blend'
# www.blender.org
mtllib knife7_Blade.mtl
o Cube_Cube.002
v 0.637913 0.414161 0.135830
v 0.959695 0.978894 0.135830
v 0.428315 0.215404 0.069340
v 0.625740 0.312151 0.135830
v 0.911541 0.531563 0.135830
v 1.177696 0.896286 0.135830
v 1.230337 1.004073 0.135830
v 0.567636 0.443578 0.000000
v 0.860863 1.056390 0.000000
v 0.097763 -0.030096 0.000000
v 0.627827 0.182348 0.000000
v 0.983083 0.441741 0.000000
v 1.298866 0.808275 0.000000
v 1.230337 1.004073 0.000000
v 0.637913 0.414161 -0.135830
v 0.959695 0.978894 -0.135830
v 0.428315 0.215404 -0.069340
v 0.625740 0.312151 -0.135830
v 0.911541 0.531563 -0.135830
v 1.177696 0.896286 -0.135830
v 1.230337 1.004073 -0.135830
vt 0.288887 0.931192
vt 0.222451 0.904159
vt 0.245252 0.842074
vt 0.356097 0.844629
vt 0.356097 0.584790
vt 0.262114 0.600245
vt 0.229772 0.422066
vt 0.301678 0.358929
vt 0.161260 0.060834
vt 0.190522 0.301635
vt 0.197881 0.462898
vt 0.121777 0.439098
vt 0.030954 0.780791
vt 0.126628 0.791549
vt 0.245252 0.842074
vt 0.222451 0.904159
vt 0.229772 0.422066
vt 0.262114 0.600245
vt 0.197881 0.462898
vt 0.190522 0.301635
vt 0.126628 0.791549
vn 0.9179 0.0480 0.3939
vn 0.4650 -0.6226 0.6294
vn -0.5957 0.5435 0.5914
vn 0.1773 -0.5870 0.7899
vn -0.7146 0.3732 0.5917
vn 0.5637 -0.4486 0.6935
vn -0.0233 0.0028 0.9997
vn 0.9179 0.0480 -0.3939
vn 0.4650 -0.6226 -0.6294
vn -0.5957 0.5435 -0.5914
vn 0.1773 -0.5870 -0.7899
vn -0.7146 0.3732 -0.5917
vn 0.5637 -0.4486 -0.6935
vn -0.0233 0.0028 -0.9997
usemtl Material.002
s off
f 14/1/1 7/2/1 6/3/1 13/4/1
f 12/5/2 5/6/2 4/7/2 11/8/2
f 10/9/3 3/10/3 1/11/3 8/12/3
f 11/8/4 4/7/4 3/10/4 10/9/4
f 9/13/5 8/12/5 1/11/5 2/14/5
f 13/4/6 6/3/6 5/6/6 12/5/6
f 5/6/7 6/3/7 7/2/7 2/14/7 1/11/7 3/10/7 4/7/7
f 14/1/8 13/4/8 20/15/8 21/16/8
f 12/5/9 11/8/9 18/17/9 19/18/9
f 10/9/10 8/12/10 15/19/10 17/20/10
f 11/8/11 10/9/11 17/20/11 18/17/11
f 9/13/12 16/21/12 15/19/12 8/12/12
f 13/4/13 12/5/13 19/18/13 20/15/13
f 19/18/14 18/17/14 17/20/14 15/19/14 16/21/14 21/16/14 20/15/14
