# Blender v2.79 (sub 0) OBJ File: 'knife28.blend'
# www.blender.org
mtllib knife28_Blade.mtl
o Cube_Cube.002
v 1.244557 0.670034 0.123380
v 1.101796 0.638945 0.123380
v 0.713805 0.621773 0.123380
v 0.251403 0.270370 0.075707
v 0.410774 0.700337 0.123380
v 0.399551 0.958474 0.123380
v 0.253648 1.185746 0.123380
v 1.281032 1.260269 0.123380
v 1.014703 1.879237 0.123380
v 0.730752 2.164871 0.123380
v 0.580023 2.453423 0.123380
v 0.525477 2.128619 0.168039
v 0.430528 1.860718 0.168039
v 0.714590 1.543322 0.231798
v 0.450056 1.348822 0.231798
v -1.244557 0.670034 0.123380
v -1.101796 0.638945 0.123380
v -0.713805 0.621773 0.123380
v -0.251403 0.270370 0.075707
v -0.410774 0.700337 0.123380
v -0.399551 0.958474 0.123380
v 0.000000 1.072169 0.122706
v -0.253648 1.185746 0.123380
v 0.000000 1.182940 0.070560
v -1.281032 1.260269 0.123380
v -1.014703 1.879237 0.123380
v -0.730752 2.164871 0.123380
v -0.580023 2.453423 0.123380
v -0.525477 2.128619 0.168039
v -0.430528 1.860718 0.168039
v -0.714590 1.543322 0.231798
v -0.450056 1.348822 0.231798
v 0.000000 1.603928 0.231798
v 1.393266 0.571829 0.000000
v 1.082155 0.543546 0.000000
v 0.730640 0.551627 0.000000
v 0.060606 0.054321 0.000000
v 0.312570 0.677890 0.000000
v 0.346240 0.913580 0.000000
v 0.236812 1.138047 0.000000
v 0.149832 1.067901 0.000000
v 0.060045 1.182940 0.000000
v 1.393266 1.254658 0.000000
v 1.118518 1.921324 0.000000
v 0.795286 2.204153 0.000000
v 0.439731 3.460718 0.000000
v 0.435690 2.131425 0.000000
v 0.290236 1.860718 0.000000
v 0.577104 1.565769 0.000000
v 0.427609 1.452637 0.000000
v 0.160943 1.626375 0.000000
v 1.244557 0.670034 -0.123380
v 1.101796 0.638945 -0.123380
v 0.713805 0.621773 -0.123380
v 0.251403 0.270370 -0.075707
v 0.410774 0.700337 -0.123380
v 0.399551 0.958474 -0.123380
v 0.253648 1.185746 -0.123380
v 1.281032 1.260269 -0.123380
v 1.014703 1.879237 -0.123380
v 0.730752 2.164871 -0.123380
v 0.580023 2.453423 -0.123380
v 0.525477 2.128619 -0.168039
v 0.430528 1.860718 -0.168039
v 0.714590 1.543322 -0.231798
v 0.450056 1.348822 -0.231798
v -1.393266 0.571829 0.000000
v -1.082155 0.543546 0.000000
v -0.730640 0.551627 0.000000
v -0.060606 0.054321 0.000000
v -0.312570 0.677890 0.000000
v -0.346240 0.913580 0.000000
v 0.000000 0.672727 0.000000
v -0.236812 1.138047 0.000000
v -0.149832 1.067901 0.000000
v -0.060045 1.182940 0.000000
v -1.393266 1.254658 0.000000
v -1.118518 1.921324 0.000000
v -0.795286 2.204153 0.000000
v -0.439731 3.460718 0.000000
v -0.435690 2.131425 0.000000
v -0.290236 1.860718 0.000000
v -0.577104 1.565769 0.000000
v -0.427609 1.452637 0.000000
v -0.160943 1.626375 0.000000
v -1.244557 0.670034 -0.123380
v -1.101796 0.638945 -0.123380
v -0.713805 0.621773 -0.123380
v -0.251403 0.270370 -0.075707
v -0.410774 0.700337 -0.123380
v -0.399551 0.958474 -0.123380
v 0.000000 1.072169 -0.122706
v -0.253648 1.185746 -0.123380
v 0.000000 1.182940 -0.070560
v -1.281032 1.260269 -0.123380
v -1.014703 1.879237 -0.123380
v -0.730752 2.164871 -0.123380
v -0.580023 2.453423 -0.123380
v -0.525477 2.128619 -0.168039
v -0.430528 1.860718 -0.168039
v -0.714590 1.543322 -0.231798
v -0.450056 1.348822 -0.231798
v 0.000000 1.603928 -0.231798
vt 0.474047 0.170600
vt 0.503141 0.181249
vt 0.487436 0.233777
vt 0.466285 0.213809
vt 0.584738 0.798848
vt 0.564272 0.580047
vt 0.583246 0.513025
vt 0.610610 0.522702
vt 0.434536 0.245604
vt 0.439725 0.274158
vt 0.373039 0.247327
vt 0.404236 0.243673
vt 0.506527 0.528485
vt 0.540599 0.514680
vt 0.473732 0.480835
vt 0.512628 0.469058
vt 0.373039 0.098878
vt 0.424362 0.204819
vt 0.373039 0.209136
vt 0.578027 0.150745
vt 0.565858 0.176522
vt 0.489087 0.095382
vt 0.461900 0.047252
vt 0.487176 0.406211
vt 0.538696 0.384194
vt 0.459618 0.386788
vt 0.479210 0.330883
vt 0.696812 0.315647
vt 0.664034 0.315327
vt 0.665242 0.205518
vt 0.701014 0.185761
vt 0.643321 0.166426
vt 0.639474 0.196285
vt 0.402593 0.393958
vt 0.373039 0.356795
vt 0.654652 0.451030
vt 0.622569 0.442301
vt 0.272031 0.170600
vt 0.279793 0.213809
vt 0.258642 0.233777
vt 0.242938 0.181249
vt 0.161341 0.798848
vt 0.135469 0.522703
vt 0.162833 0.513026
vt 0.181807 0.580048
vt 0.311542 0.245604
vt 0.341842 0.243673
vt 0.306354 0.274158
vt 0.239552 0.528485
vt 0.205480 0.514680
vt 0.272347 0.480836
vt 0.233451 0.469058
vt 0.321716 0.204819
vt 0.168052 0.150745
vt 0.284178 0.047252
vt 0.256992 0.095382
vt 0.180220 0.176522
vt 0.258903 0.406212
vt 0.207382 0.384194
vt 0.286461 0.386788
vt 0.266869 0.330884
vt 0.049267 0.315648
vt 0.045065 0.185761
vt 0.080837 0.205519
vt 0.082044 0.315328
vt 0.102757 0.166426
vt 0.106605 0.196285
vt 0.343485 0.393958
vt 0.091427 0.451030
vt 0.123510 0.442302
vt 0.272031 0.170600
vt 0.279793 0.213809
vt 0.258642 0.233777
vt 0.242938 0.181249
vt 0.161341 0.798847
vt 0.135469 0.522703
vt 0.162833 0.513026
vt 0.181807 0.580048
vt 0.311542 0.245604
vt 0.341842 0.243673
vt 0.373039 0.247327
vt 0.306354 0.274158
vt 0.239552 0.528485
vt 0.205480 0.514680
vt 0.272347 0.480836
vt 0.233451 0.469058
vt 0.373039 0.209136
vt 0.321716 0.204819
vt 0.168052 0.150745
vt 0.284178 0.047252
vt 0.256992 0.095382
vt 0.180220 0.176522
vt 0.258903 0.406212
vt 0.207382 0.384194
vt 0.286461 0.386788
vt 0.266869 0.330884
vt 0.049266 0.315648
vt 0.045065 0.185761
vt 0.080837 0.205519
vt 0.082044 0.315328
vt 0.102757 0.166426
vt 0.106605 0.196285
vt 0.343485 0.393958
vt 0.373039 0.356795
vt 0.091427 0.451030
vt 0.123510 0.442302
vt 0.474047 0.170600
vt 0.503141 0.181249
vt 0.487436 0.233777
vt 0.466285 0.213809
vt 0.584738 0.798848
vt 0.564272 0.580047
vt 0.583246 0.513025
vt 0.610610 0.522703
vt 0.434536 0.245604
vt 0.439725 0.274157
vt 0.404236 0.243673
vt 0.506527 0.528485
vt 0.540599 0.514680
vt 0.473732 0.480835
vt 0.512628 0.469058
vt 0.424362 0.204819
vt 0.578027 0.150745
vt 0.565858 0.176522
vt 0.489087 0.095382
vt 0.461900 0.047252
vt 0.487176 0.406212
vt 0.538696 0.384194
vt 0.459618 0.386788
vt 0.479210 0.330883
vt 0.696812 0.315647
vt 0.664034 0.315327
vt 0.665242 0.205518
vt 0.701014 0.185761
vt 0.643321 0.166426
vt 0.639474 0.196285
vt 0.402594 0.393958
vt 0.654652 0.451030
vt 0.622569 0.442301
vn -0.8562 0.0389 0.5151
vn 0.6623 0.2170 0.7171
vn -0.1208 -0.9699 0.2116
vn -0.7041 0.0441 0.7087
vn -0.7731 0.3451 0.5322
vn 0.6123 -0.2322 0.7558
vn 0.4853 -0.6786 0.5514
vn -0.6795 -0.5878 0.4391
vn -0.7991 -0.4517 0.3967
vn -0.6742 0.2315 0.7014
vn -0.5490 0.7389 0.3906
vn 0.6828 -0.0196 0.7303
vn 0.0102 -0.8304 0.5570
vn 0.4788 0.8003 0.3610
vn 0.6973 0.2935 0.6539
vn 0.0990 -0.7571 0.6458
vn 0.5581 0.5961 0.5773
vn 0.6244 0.4028 0.6692
vn 0.1943 0.1015 0.9757
vn -0.0261 -0.1006 0.9946
vn 0.1098 0.0375 0.9932
vn 0.1671 0.1644 0.9721
vn 0.1372 -0.0396 0.9897
vn 0.0379 -0.1168 0.9924
vn -0.1639 -0.1530 0.9745
vn -0.1962 -0.3559 0.9137
vn -0.3310 -0.2125 0.9194
vn 0.8562 0.0389 0.5151
vn -0.6623 0.2170 0.7171
vn 0.1208 -0.9699 0.2116
vn 0.7041 0.0441 0.7087
vn 0.7731 0.3451 0.5322
vn -0.6123 -0.2322 0.7558
vn -0.4853 -0.6786 0.5514
vn 0.6795 -0.5878 0.4391
vn 0.7991 -0.4517 0.3967
vn 0.6742 0.2315 0.7014
vn 0.5490 0.7389 0.3906
vn -0.6828 -0.0196 0.7303
vn -0.0102 -0.8304 0.5570
vn -0.4788 0.8003 0.3610
vn -0.6973 0.2935 0.6539
vn -0.0990 -0.7571 0.6458
vn -0.5581 0.5961 0.5773
vn -0.6244 0.4028 0.6692
vn -0.1943 0.1015 0.9757
vn 0.0261 -0.1006 0.9946
vn -0.1098 0.0375 0.9932
vn -0.1671 0.1644 0.9721
vn -0.1372 -0.0396 0.9897
vn -0.0379 -0.1168 0.9924
vn 0.1639 -0.1530 0.9745
vn 0.1962 -0.3559 0.9137
vn 0.3310 -0.2125 0.9194
vn -0.8562 0.0389 -0.5151
vn 0.6623 0.2170 -0.7171
vn -0.1208 -0.9699 -0.2116
vn -0.7041 0.0441 -0.7087
vn -0.7731 0.3451 -0.5322
vn 0.6123 -0.2322 -0.7558
vn 0.4853 -0.6786 -0.5514
vn -0.6795 -0.5878 -0.4391
vn -0.7991 -0.4517 -0.3967
vn -0.6742 0.2315 -0.7014
vn -0.5490 0.7389 -0.3906
vn 0.6828 -0.0196 -0.7303
vn 0.0102 -0.8304 -0.5570
vn 0.4788 0.8003 -0.3610
vn 0.6973 0.2935 -0.6539
vn 0.0990 -0.7571 -0.6458
vn 0.5581 0.5961 -0.5773
vn 0.6244 0.4028 -0.6692
vn 0.1943 0.1015 -0.9757
vn -0.0261 -0.1006 -0.9946
vn 0.1098 0.0375 -0.9932
vn 0.1671 0.1644 -0.9721
vn 0.1372 -0.0396 -0.9897
vn 0.0379 -0.1168 -0.9924
vn -0.1639 -0.1530 -0.9745
vn -0.1962 -0.3559 -0.9137
vn -0.3310 -0.2125 -0.9194
vn 0.8562 0.0389 -0.5151
vn -0.6623 0.2170 -0.7171
vn 0.1208 -0.9699 -0.2116
vn 0.7041 0.0441 -0.7087
vn 0.7731 0.3451 -0.5322
vn -0.6123 -0.2322 -0.7558
vn -0.4853 -0.6786 -0.5514
vn 0.6795 -0.5878 -0.4391
vn 0.7991 -0.4517 -0.3967
vn 0.6742 0.2315 -0.7014
vn 0.5490 0.7389 -0.3906
vn -0.6828 -0.0196 -0.7303
vn -0.0102 -0.8304 -0.5570
vn -0.4788 0.8003 -0.3610
vn -0.6973 0.2935 -0.6539
vn -0.0990 -0.7571 -0.6458
vn -0.5581 0.5961 -0.5773
vn -0.6244 0.4028 -0.6692
vn -0.1943 0.1015 -0.9757
vn 0.0261 -0.1006 -0.9946
vn -0.1098 0.0375 -0.9932
vn -0.1671 0.1644 -0.9721
vn -0.1372 -0.0396 -0.9897
vn -0.0379 -0.1168 -0.9924
vn 0.1639 -0.1530 -0.9745
vn 0.1962 -0.3559 -0.9137
vn 0.3310 -0.2125 -0.9194
usemtl Material.001
s off
f 38/1/1 5/2/1 6/3/1 39/4/1
f 46/5/2 11/6/2 10/7/2 45/8/2
f 40/9/3 7/10/3 24/11/3 42/12/3
f 47/13/4 12/14/4 11/6/4 46/5/4
f 48/15/5 13/16/5 12/14/5 47/13/5
f 73/17/6 41/18/6 22/19/6
f 36/20/7 3/21/7 4/22/7 37/23/7
f 49/24/8 14/25/8 13/16/8 48/15/8
f 39/4/9 6/3/9 7/10/9 40/9/9
f 37/23/10 4/22/10 5/2/10 38/1/10
f 50/26/11 15/27/11 14/25/11 49/24/11
f 43/28/12 8/29/12 1/30/12 34/31/12
f 35/32/13 2/33/13 3/21/13 36/20/13
f 51/34/14 33/35/14 15/27/14 50/26/14
f 44/36/15 9/37/15 8/29/15 43/28/15
f 34/31/16 1/30/16 2/33/16 35/32/16
f 45/8/17 10/7/17 9/37/17 44/36/17
f 41/18/18 42/12/18 24/11/18 22/19/18
f 11/6/19 12/14/19 10/7/19
f 4/22/20 3/21/20 5/2/20
f 10/7/21 12/14/21 13/16/21 9/37/21
f 9/37/22 13/16/22 14/25/22 8/29/22
f 2/33/23 1/30/23 8/29/23 14/25/23
f 2/33/24 14/25/24 15/27/24 3/21/24
f 6/3/25 5/2/25 3/21/25 15/27/25
f 7/10/26 15/27/26 33/35/26 24/11/26
f 7/10/27 6/3/27 15/27/27
f 71/38/28 72/39/28 21/40/28 20/41/28
f 80/42/29 79/43/29 27/44/29 28/45/29
f 74/46/30 76/47/30 24/11/30 23/48/30
f 81/49/31 80/42/31 28/45/31 29/50/31
f 82/51/32 81/49/32 29/50/32 30/52/32
f 73/17/33 22/19/33 75/53/33
f 69/54/34 70/55/34 19/56/34 18/57/34
f 83/58/35 82/51/35 30/52/35 31/59/35
f 72/39/36 74/46/36 23/48/36 21/40/36
f 70/55/37 71/38/37 20/41/37 19/56/37
f 84/60/38 83/58/38 31/59/38 32/61/38
f 77/62/39 67/63/39 16/64/39 25/65/39
f 68/66/40 69/54/40 18/57/40 17/67/40
f 85/68/41 84/60/41 32/61/41 33/35/41
f 78/69/42 77/62/42 25/65/42 26/70/42
f 67/63/43 68/66/43 17/67/43 16/64/43
f 79/43/44 78/69/44 26/70/44 27/44/44
f 75/53/45 22/19/45 24/11/45 76/47/45
f 28/45/46 27/44/46 29/50/46
f 19/56/47 20/41/47 18/57/47
f 27/44/48 26/70/48 30/52/48 29/50/48
f 26/70/49 25/65/49 31/59/49 30/52/49
f 17/67/50 31/59/50 25/65/50 16/64/50
f 17/67/51 18/57/51 32/61/51 31/59/51
f 21/40/52 32/61/52 18/57/52 20/41/52
f 23/48/53 24/11/53 33/35/53 32/61/53
f 23/48/54 32/61/54 21/40/54
f 38/71/55 39/72/55 57/73/55 56/74/55
f 46/75/56 45/76/56 61/77/56 62/78/56
f 40/79/57 42/80/57 94/81/57 58/82/57
f 47/83/58 46/75/58 62/78/58 63/84/58
f 48/85/59 47/83/59 63/84/59 64/86/59
f 73/17/60 92/87/60 41/88/60
f 36/89/61 37/90/61 55/91/61 54/92/61
f 49/93/62 48/85/62 64/86/62 65/94/62
f 39/72/63 40/79/63 58/82/63 57/73/63
f 37/90/64 38/71/64 56/74/64 55/91/64
f 50/95/65 49/93/65 65/94/65 66/96/65
f 43/97/66 34/98/66 52/99/66 59/100/66
f 35/101/67 36/89/67 54/92/67 53/102/67
f 51/103/68 50/95/68 66/96/68 103/104/68
f 44/105/69 43/97/69 59/100/69 60/106/69
f 34/98/70 35/101/70 53/102/70 52/99/70
f 45/76/71 44/105/71 60/106/71 61/77/71
f 41/88/72 92/87/72 94/81/72 42/80/72
f 62/78/73 61/77/73 63/84/73
f 55/91/74 56/74/74 54/92/74
f 61/77/75 60/106/75 64/86/75 63/84/75
f 60/106/76 59/100/76 65/94/76 64/86/76
f 53/102/77 65/94/77 59/100/77 52/99/77
f 53/102/78 54/92/78 66/96/78 65/94/78
f 57/73/79 66/96/79 54/92/79 56/74/79
f 58/82/80 94/81/80 103/104/80 66/96/80
f 58/82/81 66/96/81 57/73/81
f 71/107/82 90/108/82 91/109/82 72/110/82
f 80/111/83 98/112/83 97/113/83 79/114/83
f 74/115/84 93/116/84 94/81/84 76/117/84
f 81/118/85 99/119/85 98/112/85 80/111/85
f 82/120/86 100/121/86 99/119/86 81/118/86
f 73/17/87 75/122/87 92/87/87
f 69/123/88 88/124/88 89/125/88 70/126/88
f 83/127/89 101/128/89 100/121/89 82/120/89
f 72/110/90 91/109/90 93/116/90 74/115/90
f 70/126/91 89/125/91 90/108/91 71/107/91
f 84/129/92 102/130/92 101/128/92 83/127/92
f 77/131/93 95/132/93 86/133/93 67/134/93
f 68/135/94 87/136/94 88/124/94 69/123/94
f 85/137/95 103/104/95 102/130/95 84/129/95
f 78/138/96 96/139/96 95/132/96 77/131/96
f 67/134/97 86/133/97 87/136/97 68/135/97
f 79/114/98 97/113/98 96/139/98 78/138/98
f 75/122/99 76/117/99 94/81/99 92/87/99
f 98/112/100 99/119/100 97/113/100
f 89/125/101 88/124/101 90/108/101
f 97/113/102 99/119/102 100/121/102 96/139/102
f 96/139/103 100/121/103 101/128/103 95/132/103
f 87/136/104 86/133/104 95/132/104 101/128/104
f 87/136/105 101/128/105 102/130/105 88/124/105
f 91/109/106 90/108/106 88/124/106 102/130/106
f 93/116/107 102/130/107 103/104/107 94/81/107
f 93/116/108 91/109/108 102/130/108
