# Blender v2.79 (sub 0) OBJ File: 'knife14.blend'
# www.blender.org
mtllib knife14_Holder.mtl
o Cube.001
v 0.264555 1.329748 0.081828
v 0.249241 3.215677 0.066986
v 0.481202 3.475399 0.163293
v 0.492908 3.353688 0.106995
v 0.592490 3.614205 0.165799
v 0.542796 3.932040 0.104949
v 0.477102 3.640038 0.165799
v 0.277153 3.596663 0.064226
v 0.231706 3.989661 0.102536
v 0.368048 4.741107 0.102536
v 0.568918 4.464714 0.165799
v 0.534369 4.974315 0.165800
v 0.080910 5.255028 0.165800
v -0.052968 5.211841 0.165800
v 0.247937 4.779975 0.102536
v 0.163534 4.641778 0.072044
v 0.095363 3.501653 0.082057
v -0.086050 3.290382 0.165799
v -0.119240 3.007066 0.165799
v -0.088110 2.885165 0.165799
v -0.064546 3.195642 0.165799
v 0.094807 3.149340 0.165799
v 0.218374 2.335616 0.165799
v 0.047361 1.843289 0.165799
v 0.135479 1.428699 0.165799
v 0.088137 1.184262 0.165799
v 0.225248 3.074721 0.066986
v 0.306223 2.363942 0.066986
v 0.396195 2.234982 0.066986
v 0.312221 1.965066 0.066986
v 0.119327 3.528622 0.157340
v 0.228933 3.571681 0.157340
v 0.205423 3.412163 0.132481
v 0.217139 1.274788 0.000000
v 0.462471 3.431715 0.000000
v 0.469969 3.239275 0.000000
v 0.639916 3.614158 0.000000
v 0.537448 4.069016 0.000000
v 0.452474 3.701631 0.000000
v 0.321513 3.650709 0.000000
v 0.261594 3.989661 0.000000
v 0.413447 4.741107 0.000000
v 0.568918 4.464714 0.000000
v 0.534369 4.974315 0.000000
v 0.080910 5.255028 0.000000
v -0.052968 5.211841 0.000000
v 0.253656 4.779975 0.000000
v 0.107369 4.611924 0.000000
v 0.027671 3.501653 0.000000
v -0.135023 3.311632 0.000000
v -0.173891 2.996371 0.000000
v -0.061606 2.745888 0.000000
v -0.040012 3.130249 0.000000
v 0.080910 3.130249 0.000000
v 0.197514 2.335616 0.000000
v 0.024767 1.843289 0.000000
v 0.102503 1.428699 0.000000
v 0.024768 1.057294 0.000000
v 0.264555 1.329748 -0.081828
v 0.249241 3.215677 -0.066986
v 0.481202 3.475399 -0.163293
v 0.492908 3.353688 -0.106995
v 0.592490 3.614205 -0.165799
v 0.542796 3.932040 -0.104949
v 0.477102 3.640038 -0.165799
v 0.277153 3.596663 -0.064226
v 0.231706 3.989661 -0.102536
v 0.368048 4.741107 -0.102536
v 0.568918 4.464714 -0.165799
v 0.534369 4.974315 -0.165800
v 0.080910 5.255028 -0.165800
v -0.052968 5.211841 -0.165800
v 0.247937 4.779975 -0.102536
v 0.163534 4.641778 -0.072044
v 0.095363 3.501653 -0.082057
v -0.086050 3.290382 -0.165799
v -0.119240 3.007066 -0.165799
v -0.088110 2.885165 -0.165799
v -0.064546 3.195642 -0.165799
v 0.094807 3.149340 -0.165799
v 0.218374 2.335616 -0.165799
v 0.047361 1.843289 -0.165799
v 0.135479 1.428699 -0.165799
v 0.088137 1.184262 -0.165799
v 0.225248 3.074721 -0.066986
v 0.306223 2.363942 -0.066986
v 0.396195 2.234982 -0.066986
v 0.312221 1.965066 -0.066986
v 0.119327 3.528622 -0.157340
v 0.228933 3.571681 -0.157340
v 0.205423 3.412163 -0.132481
vt 0.716786 0.532099
vt 0.717997 0.495104
vt 0.667979 0.517749
vt 0.643378 0.534502
vt 0.907969 0.408107
vt 0.901830 0.446282
vt 0.948962 0.421571
vt 0.967642 0.403119
vt 0.747555 0.537246
vt 0.768095 0.522734
vt 0.888142 0.397805
vt 0.864080 0.428582
vt 0.738557 0.616169
vt 0.762425 0.622858
vt 0.795181 0.244392
vt 0.760749 0.260895
vt 0.642039 0.803229
vt 0.667983 0.830111
vt 0.756538 0.140281
vt 0.726714 0.156579
vt 0.561937 0.823038
vt 0.606492 0.841082
vt 0.704308 0.068146
vt 0.674548 0.089412
vt 0.611312 0.919087
vt 0.636783 0.897007
vt 0.654670 0.018140
vt 0.658337 0.054067
vt 0.700663 0.981860
vt 0.697499 0.946213
vt 0.737180 0.964802
vt 0.713669 0.945153
vt 0.624089 0.065402
vt 0.636005 0.085652
vt 0.735386 0.845303
vt 0.709939 0.839481
vt 0.757379 0.798372
vt 0.734738 0.801449
vt 0.864203 0.536858
vt 0.839568 0.523242
vt 0.776983 0.403492
vt 0.762646 0.430438
vt 0.745591 0.465006
vt 0.791548 0.455132
vt 0.916696 0.508613
vt 0.891246 0.479152
vt 0.673846 0.432383
vt 0.704009 0.467401
vt 0.967642 0.454806
vt 0.940046 0.439681
vt 0.691072 0.206262
vt 0.709080 0.264224
vt 0.737949 0.282437
vt 0.819949 0.419002
vt 0.819553 0.447389
vt 0.812559 0.493411
vt 0.818316 0.527212
vt 0.793852 0.526971
vt 0.667979 0.517749
vt 0.717996 0.495104
vt 0.948962 0.421571
vt 0.901830 0.446282
vt 0.768095 0.522734
vt 0.864080 0.428582
vt 0.762425 0.622858
vt 0.760749 0.260895
vt 0.667984 0.830111
vt 0.726713 0.156579
vt 0.606492 0.841082
vt 0.674548 0.089412
vt 0.636783 0.897006
vt 0.658336 0.054067
vt 0.697499 0.946213
vt 0.713670 0.945153
vt 0.636005 0.085652
vt 0.709939 0.839480
vt 0.734738 0.801449
vt 0.839568 0.523242
vt 0.745591 0.465006
vt 0.762646 0.430438
vt 0.891246 0.479152
vt 0.704009 0.467401
vt 0.940046 0.439681
vt 0.691072 0.206262
vt 0.709080 0.264225
vt 0.737949 0.282437
vt 0.819949 0.419002
vt 0.819553 0.447389
vt 0.818316 0.527212
vt 0.812559 0.493411
vt 0.793852 0.526971
vn -0.9306 0.2383 0.2778
vn 0.9797 -0.0637 0.1901
vn -0.3617 0.8451 0.3938
vn -0.1583 -0.9580 0.2390
vn 0.8951 0.1062 0.4330
vn -0.9829 -0.1468 0.1115
vn 0.9239 -0.1772 0.3392
vn -0.9370 0.3271 0.1228
vn -0.8249 -0.5477 -0.1396
vn -0.9676 -0.1935 0.1622
vn 0.9977 0.0676 0.0000
vn -0.9594 0.1948 0.2041
vn 0.5264 0.8503 0.0000
vn -0.3070 0.9517 0.0000
vn 0.7105 -0.6799 0.1816
vn -0.8184 -0.5744 -0.0174
vn -0.7981 0.5883 0.1300
vn -0.7834 0.0542 0.6191
vn -0.9737 -0.0965 0.2066
vn -0.6661 0.6482 0.3691
vn 0.8839 -0.3977 0.2462
vn -0.9472 0.1140 0.2996
vn 0.9458 0.2060 0.2512
vn -0.9071 -0.3493 0.2350
vn 0.5220 -0.0420 0.8519
vn 0.3487 0.0021 0.9372
vn 0.4588 -0.0598 0.8865
vn 0.6789 0.0911 0.7286
vn 0.0000 -0.0000 1.0000
vn 0.1472 0.1888 0.9709
vn 0.4976 0.1211 0.8589
vn -0.0302 0.0061 0.9995
vn 0.6669 0.0053 0.7452
vn -0.4275 0.0191 0.9038
vn -0.6466 -0.4469 0.6182
vn 0.8804 0.0559 0.4709
vn 0.0640 -0.1629 0.9846
vn 0.8094 -0.1007 0.5785
vn -0.9572 0.0597 0.2833
vn -0.0619 -0.1531 0.9863
vn -0.3280 -0.0222 0.9444
vn -0.0695 -0.2147 0.9742
vn -0.1489 0.0031 0.9888
vn 0.1269 0.0865 0.9881
vn -0.9306 0.2383 -0.2778
vn 0.9797 -0.0637 -0.1901
vn -0.3617 0.8451 -0.3938
vn -0.1583 -0.9580 -0.2390
vn 0.8951 0.1062 -0.4330
vn -0.9829 -0.1468 -0.1115
vn 0.9239 -0.1772 -0.3392
vn -0.9370 0.3271 -0.1228
vn -0.8249 -0.5477 0.1396
vn -0.9676 -0.1935 -0.1622
vn -0.9594 0.1948 -0.2041
vn 0.7105 -0.6799 -0.1816
vn -0.8184 -0.5744 0.0174
vn -0.7981 0.5883 -0.1300
vn -0.7834 0.0542 -0.6191
vn -0.9737 -0.0965 -0.2066
vn -0.6661 0.6482 -0.3691
vn 0.8839 -0.3977 -0.2462
vn -0.9472 0.1140 -0.2996
vn 0.9458 0.2060 -0.2512
vn -0.9071 -0.3493 -0.2350
vn 0.5220 -0.0420 -0.8519
vn 0.3487 0.0021 -0.9372
vn 0.4588 -0.0598 -0.8865
vn 0.6789 0.0911 -0.7286
vn 0.0000 -0.0000 -1.0000
vn 0.1472 0.1888 -0.9709
vn 0.4976 0.1211 -0.8589
vn -0.0302 0.0061 -0.9995
vn 0.6669 0.0053 -0.7452
vn -0.4275 0.0191 -0.9038
vn -0.6466 -0.4469 -0.6182
vn 0.8804 0.0559 -0.4709
vn 0.0640 -0.1629 -0.9846
vn 0.8094 -0.1007 -0.5785
vn -0.9572 0.0597 -0.2833
vn -0.0619 -0.1531 -0.9863
vn -0.3280 -0.0222 -0.9444
vn -0.0695 -0.2147 -0.9742
vn -0.1489 0.0031 -0.9888
vn 0.1269 0.0865 -0.9881
usemtl Material.002
s off
f 39/1/1 7/2/1 6/3/1 38/4/1
f 53/5/2 21/6/2 20/7/2 52/8/2
f 40/9/3 8/10/3 7/2/3 39/1/3
f 54/11/4 22/12/4 21/6/4 53/5/4
f 41/13/5 9/14/5 8/10/5 40/9/5
f 55/15/6 23/16/6 22/12/6 54/11/6
f 42/17/7 10/18/7 9/14/7 41/13/7
f 56/19/8 24/20/8 23/16/8 55/15/8
f 43/21/9 11/22/9 10/18/9 42/17/9
f 57/23/10 25/24/10 24/20/10 56/19/10
f 44/25/11 12/26/11 11/22/11 43/21/11
f 58/27/12 26/28/12 25/24/12 57/23/12
f 45/29/13 13/30/13 12/26/13 44/25/13
f 46/31/14 14/32/14 13/30/14 45/29/14
f 34/33/15 1/34/15 26/28/15 58/27/15
f 47/35/16 15/36/16 14/32/16 46/31/16
f 48/37/17 16/38/17 15/36/17 47/35/17
f 49/39/18 17/40/18 16/38/18 48/37/18
f 36/41/19 4/42/19 3/43/19 35/44/19
f 50/45/20 18/46/20 17/40/20 49/39/20
f 37/47/21 5/48/21 4/42/21 36/41/21
f 51/49/22 19/50/22 18/46/22 50/45/22
f 38/4/23 6/3/23 5/48/23 37/47/23
f 52/8/24 20/7/24 19/50/24 51/49/24
f 26/28/25 1/34/25 30/51/25 25/24/25
f 25/24/26 30/51/26 29/52/26 24/20/26
f 24/20/27 29/52/27 28/53/27 23/16/27
f 23/16/28 28/53/28 27/54/28 22/12/28
f 19/50/29 20/7/29 21/6/29 18/46/29
f 18/46/30 21/6/30 22/12/30 17/40/30
f 27/54/31 2/55/31 17/40/31 22/12/31
f 4/42/32 5/48/32 6/3/32 3/43/32
f 6/3/33 7/2/33 3/43/33
f 3/43/34 7/2/34 8/10/34 2/55/34
f 17/40/35 2/55/35 33/56/35 31/57/35
f 8/10/36 9/14/36 32/58/36
f 31/57/37 33/56/37 32/58/37
f 33/56/38 2/55/38 8/10/38 32/58/38
f 16/38/39 17/40/39 31/57/39
f 13/30/40 14/32/40 15/36/40 12/26/40
f 11/22/41 12/26/41 10/18/41
f 12/26/42 15/36/42 10/18/42
f 10/18/43 15/36/43 16/38/43 9/14/43
f 31/57/44 32/58/44 9/14/44 16/38/44
f 39/1/45 38/4/45 64/59/45 65/60/45
f 53/5/46 52/8/46 78/61/46 79/62/46
f 40/9/47 39/1/47 65/60/47 66/63/47
f 54/11/48 53/5/48 79/62/48 80/64/48
f 41/13/49 40/9/49 66/63/49 67/65/49
f 55/15/50 54/11/50 80/64/50 81/66/50
f 42/17/51 41/13/51 67/65/51 68/67/51
f 56/19/52 55/15/52 81/66/52 82/68/52
f 43/21/53 42/17/53 68/67/53 69/69/53
f 57/23/54 56/19/54 82/68/54 83/70/54
f 44/25/11 43/21/11 69/69/11 70/71/11
f 58/27/55 57/23/55 83/70/55 84/72/55
f 45/29/13 44/25/13 70/71/13 71/73/13
f 46/31/14 45/29/14 71/73/14 72/74/14
f 34/33/56 58/27/56 84/72/56 59/75/56
f 47/35/57 46/31/57 72/74/57 73/76/57
f 48/37/58 47/35/58 73/76/58 74/77/58
f 49/39/59 48/37/59 74/77/59 75/78/59
f 36/41/60 35/44/60 61/79/60 62/80/60
f 50/45/61 49/39/61 75/78/61 76/81/61
f 37/47/62 36/41/62 62/80/62 63/82/62
f 51/49/63 50/45/63 76/81/63 77/83/63
f 38/4/64 37/47/64 63/82/64 64/59/64
f 52/8/65 51/49/65 77/83/65 78/61/65
f 84/72/66 83/70/66 88/84/66 59/75/66
f 83/70/67 82/68/67 87/85/67 88/84/67
f 82/68/68 81/66/68 86/86/68 87/85/68
f 81/66/69 80/64/69 85/87/69 86/86/69
f 77/83/70 76/81/70 79/62/70 78/61/70
f 76/81/71 75/78/71 80/64/71 79/62/71
f 85/87/72 80/64/72 75/78/72 60/88/72
f 62/80/73 61/79/73 64/59/73 63/82/73
f 64/59/74 61/79/74 65/60/74
f 61/79/75 60/88/75 66/63/75 65/60/75
f 75/78/76 89/89/76 91/90/76 60/88/76
f 66/63/77 90/91/77 67/65/77
f 89/89/78 90/91/78 91/90/78
f 91/90/79 90/91/79 66/63/79 60/88/79
f 74/77/80 89/89/80 75/78/80
f 71/73/81 70/71/81 73/76/81 72/74/81
f 69/69/82 68/67/82 70/71/82
f 70/71/83 68/67/83 73/76/83
f 68/67/84 67/65/84 74/77/84 73/76/84
f 89/89/85 74/77/85 67/65/85 90/91/85
