# Blender v2.79 (sub 0) OBJ File: 'knife25.blend'
# www.blender.org
mtllib knife25_Blade.mtl
o Cube_Cube.004
v 0.080487 1.829676 0.098457
v 0.024847 1.427393 0.122251
v -0.328834 2.560879 0.207621
v -0.140681 2.497043 0.150008
v -0.032643 1.897016 0.207621
v -0.196978 1.761799 0.181958
v -0.147489 1.004747 0.126188
v 0.160129 0.797127 0.085156
v 0.113468 0.276802 0.084642
v 0.053694 0.418309 0.130197
v 0.111474 0.353093 0.093788
v 0.141592 0.630371 0.108906
v 0.227499 2.104147 0.137730
v 0.093999 2.320583 0.147472
v 0.075395 2.124727 0.207621
v -0.206270 1.412132 0.150864
v 0.086903 1.803867 0.000000
v 0.028311 1.407511 0.000000
v -0.353766 2.479158 0.000000
v -0.281962 2.249386 0.000000
v -0.307811 1.959299 0.000000
v -0.483013 1.743887 0.000000
v -0.330789 0.876497 0.000000
v 0.197194 0.790572 0.000000
v 0.224226 0.067062 0.000000
v -0.029213 0.322172 0.000000
v 0.134908 0.323487 0.000000
v 0.153978 0.639319 0.000000
v 0.231660 2.107167 0.000000
v 0.106003 2.332551 0.000000
v 0.080487 1.829676 -0.098457
v 0.024847 1.427393 -0.122251
v -0.328834 2.560879 -0.207621
v -0.140681 2.497043 -0.150008
v -0.032643 1.897016 -0.207621
v -0.196978 1.761799 -0.181958
v -0.147489 1.004747 -0.126188
v 0.160129 0.797127 -0.085156
v 0.113468 0.276802 -0.084642
v 0.053694 0.418309 -0.130197
v 0.111474 0.353093 -0.093788
v 0.141592 0.630371 -0.108906
v 0.227499 2.104147 -0.137730
v 0.093999 2.320583 -0.147472
v 0.075395 2.124727 -0.207621
v -0.294887 2.104342 0.000000
v -0.452376 1.281471 0.000000
v -0.206270 1.412132 -0.150864
vt 0.214860 0.115121
vt 0.134812 0.008753
vt 0.152425 0.099621
vt 0.164893 0.154962
vt 0.256004 0.733527
vt 0.313387 0.649649
vt 0.188888 0.650320
vt 0.134531 0.703421
vt 0.084238 0.213580
vt 0.122238 0.219519
vt 0.147329 0.127098
vt 0.117193 0.106765
vt 0.045652 0.653776
vt 0.079218 0.670549
vt 0.113809 0.516908
vt 0.068133 0.505408
vt 0.313386 0.480547
vt 0.288338 0.327300
vt 0.202069 0.367365
vt 0.203228 0.521271
vt 0.248392 0.787066
vt 0.100848 0.780519
vt 0.103491 0.275440
vt 0.070196 0.268925
vt 0.021994 0.861575
vt 0.078179 0.848275
vt 0.052684 0.772426
vt 0.008754 0.768785
vt 0.251126 0.929415
vt 0.239373 0.839378
vt 0.152722 0.924576
vt 0.193263 0.991247
vt 0.164893 0.154962
vt 0.152425 0.099621
vt 0.134531 0.703421
vt 0.188887 0.650320
vt 0.147329 0.127098
vt 0.122238 0.219519
vt 0.113808 0.516908
vt 0.079218 0.670550
vt 0.203228 0.521271
vt 0.202069 0.367365
vt 0.100848 0.780519
vt 0.103491 0.275440
vt 0.052684 0.772426
vt 0.078179 0.848275
vt 0.193262 0.991247
vt 0.152721 0.924576
vn -0.5528 -0.5121 0.6574
vn -0.4940 0.4228 0.7598
vn 0.9796 -0.0859 0.1819
vn 0.9876 -0.1391 0.0730
vn -0.4796 -0.1328 0.8674
vn -0.5253 0.1705 0.8337
vn 0.9603 0.2295 0.1584
vn 0.8608 0.5033 0.0752
vn -0.4535 -0.5406 0.7086
vn -0.5586 -0.2434 0.7930
vn 0.8872 -0.4537 0.0835
vn 0.9558 -0.1676 0.2415
vn 0.9023 0.2377 0.3597
vn -0.5285 -0.1138 0.8413
vn -0.5204 -0.0463 0.8527
vn 0.4522 -0.0945 0.8869
vn 0.1818 0.0234 0.9831
vn 0.2074 0.1153 0.9714
vn 0.1149 -0.0376 0.9927
vn 0.2196 -0.0284 0.9752
vn 0.3616 -0.5782 0.7314
vn 0.4632 -0.3005 0.8337
vn 0.3013 0.2537 0.9192
vn -0.5528 -0.5121 -0.6574
vn -0.4940 0.4228 -0.7598
vn 0.9796 -0.0859 -0.1819
vn 0.9876 -0.1391 -0.0730
vn -0.4796 -0.1328 -0.8674
vn -0.5253 0.1705 -0.8337
vn 0.9603 0.2295 -0.1584
vn 0.8608 0.5033 -0.0752
vn -0.4535 -0.5406 -0.7086
vn -0.5586 -0.2434 -0.7930
vn 0.8872 -0.4537 -0.0835
vn 0.9558 -0.1676 -0.2415
vn 0.9023 0.2377 -0.3597
vn -0.5285 -0.1138 -0.8413
vn -0.5204 -0.0463 -0.8527
vn 0.4522 -0.0945 -0.8869
vn 0.1818 0.0234 -0.9831
vn 0.2074 0.1153 -0.9714
vn 0.1149 -0.0376 -0.9927
vn 0.2196 -0.0284 -0.9752
vn 0.3616 -0.5782 -0.7314
vn 0.4632 -0.3005 -0.8337
vn 0.3013 0.2537 -0.9192
usemtl Material.003
s off
f 26/1/1 25/2/1 9/3/1 10/4/1
f 21/5/2 22/6/2 6/7/2 5/8/2
f 28/9/3 12/10/3 11/11/3 27/12/3
f 17/13/4 1/14/4 2/15/4 18/16/4
f 47/17/5 23/18/5 7/19/5 16/20/5
f 46/21/6 21/5/6 5/8/6 15/22/6
f 18/16/7 2/15/7 8/23/7 24/24/7
f 30/25/8 14/26/8 13/27/8 29/28/8
f 19/29/9 20/30/9 4/31/9 3/32/9
f 23/18/10 26/1/10 10/4/10 7/19/10
f 29/28/11 13/27/11 1/14/11 17/13/11
f 24/24/12 8/23/12 12/10/12 28/9/12
f 27/12/13 11/11/13 9/3/13 25/2/13
f 20/30/14 46/21/14 15/22/14 4/31/14
f 22/6/15 47/17/15 16/20/15 6/7/15
f 9/3/16 11/11/16 10/4/16
f 10/4/17 11/11/17 12/10/17 7/19/17
f 12/10/18 8/23/18 7/19/18
f 7/19/19 8/23/19 2/15/19 16/20/19
f 2/15/20 1/14/20 6/7/20 16/20/20
f 6/7/21 1/14/21 5/8/21
f 1/14/22 13/27/22 15/22/22 5/8/22
f 13/27/23 14/26/23 4/31/23 15/22/23
f 26/1/24 40/33/24 39/34/24 25/2/24
f 21/5/25 35/35/25 36/36/25 22/6/25
f 28/9/26 27/12/26 41/37/26 42/38/26
f 17/13/27 18/16/27 32/39/27 31/40/27
f 47/17/28 48/41/28 37/42/28 23/18/28
f 46/21/29 45/43/29 35/35/29 21/5/29
f 18/16/30 24/24/30 38/44/30 32/39/30
f 30/25/31 29/28/31 43/45/31 44/46/31
f 19/29/32 33/47/32 34/48/32 20/30/32
f 23/18/33 37/42/33 40/33/33 26/1/33
f 29/28/34 17/13/34 31/40/34 43/45/34
f 24/24/35 28/9/35 42/38/35 38/44/35
f 27/12/36 25/2/36 39/34/36 41/37/36
f 20/30/37 34/48/37 45/43/37 46/21/37
f 22/6/38 36/36/38 48/41/38 47/17/38
f 39/34/39 40/33/39 41/37/39
f 40/33/40 37/42/40 42/38/40 41/37/40
f 42/38/41 37/42/41 38/44/41
f 37/42/42 48/41/42 32/39/42 38/44/42
f 32/39/43 48/41/43 36/36/43 31/40/43
f 36/36/44 35/35/44 31/40/44
f 31/40/45 35/35/45 45/43/45 43/45/45
f 43/45/46 45/43/46 34/48/46 44/46/46
