# Blender v2.79 (sub 0) OBJ File: 'knife7.blend'
# www.blender.org
mtllib knife7_Holder.mtl
o Cube.001_Cube.003
v 0.959695 0.978894 0.135830
v 1.230337 1.004073 0.135830
v 0.847810 1.399036 0.176873
v 0.570430 1.722103 0.285497
v 1.386975 1.431565 0.205997
v 1.445714 2.182123 0.215934
v 1.253833 2.828256 0.201574
v 0.873985 3.212020 0.285497
v 0.564624 3.380406 0.285497
v 0.227852 3.259012 0.285497
v 0.122121 3.012306 0.180346
v -0.089341 2.867416 0.285497
v -0.097173 2.667702 0.285497
v 0.192608 2.667702 0.178739
v 0.392322 2.526727 0.285497
v 0.423649 2.236946 0.285497
v 0.580288 2.068560 0.169284
v 0.860863 1.056390 0.000000
v 1.230337 1.004073 0.000000
v 0.847810 1.399036 0.000000
v 0.570430 1.722103 0.000000
v 1.386975 1.431565 0.000000
v 1.445714 2.182123 0.000000
v 1.253833 2.828256 0.000000
v 0.873985 3.212020 0.000000
v 0.564624 3.380406 0.000000
v 0.227852 3.259012 0.000000
v 0.122121 3.012306 0.000000
v -0.089341 2.867416 0.000000
v -0.097173 2.667702 0.000000
v 0.192608 2.667702 0.000000
v 0.392322 2.526727 0.000000
v 0.423649 2.236946 0.000000
v 0.580288 2.068560 0.000000
v 0.959695 0.978894 -0.135830
v 1.230337 1.004073 -0.135830
v 0.847810 1.399036 -0.176873
v 0.570430 1.722103 -0.285497
v 1.386975 1.431565 -0.205997
v 1.445714 2.182123 -0.215934
v 1.253833 2.828256 -0.201574
v 0.873985 3.212020 -0.285497
v 0.564624 3.380406 -0.285497
v 0.227852 3.259012 -0.285497
v 0.122121 3.012306 -0.180346
v -0.089341 2.867416 -0.285497
v -0.097173 2.667702 -0.285497
v 0.192608 2.667702 -0.178739
v 0.392322 2.526727 -0.285497
v 0.423649 2.236946 -0.285497
v 0.580288 2.068560 -0.169284
vt 0.665870 0.897914
vt 0.699405 0.806494
vt 0.641365 0.742213
vt 0.549233 0.804025
vt 0.890934 0.368379
vt 0.814986 0.388132
vt 0.851936 0.478005
vt 0.924884 0.447479
vt 0.804330 0.897914
vt 0.773801 0.823094
vt 0.785110 0.112917
vt 0.724323 0.015469
vt 0.666464 0.014899
vt 0.733294 0.150062
vt 0.893657 0.832802
vt 0.856187 0.775367
vt 0.881225 0.227726
vt 0.807751 0.252575
vt 0.967598 0.782889
vt 0.911225 0.733575
vt 0.504049 0.154204
vt 0.561732 0.168467
vt 0.585393 0.036478
vt 0.546493 0.023816
vt 0.990097 0.715900
vt 0.929427 0.715677
vt 0.472604 0.373291
vt 0.540590 0.375170
vt 0.955119 0.627175
vt 0.892870 0.645105
vt 0.485155 0.587653
vt 0.551895 0.572918
vt 0.940189 0.548760
vt 0.837757 0.562126
vt 0.641365 0.742213
vt 0.699405 0.806494
vt 0.851936 0.478005
vt 0.814986 0.388132
vt 0.773801 0.823094
vt 0.733294 0.150062
vt 0.666464 0.014899
vt 0.856187 0.775367
vt 0.807751 0.252575
vt 0.911225 0.733575
vt 0.585393 0.036478
vt 0.561732 0.168467
vt 0.929427 0.715677
vt 0.540590 0.375170
vt 0.892870 0.645105
vt 0.551895 0.572918
vt 0.837757 0.562126
vn 0.4781 0.8783 0.0000
vn -0.7322 -0.6811 0.0000
vn -0.3391 0.9407 0.0000
vn -0.9510 -0.1697 0.2585
vn -0.9191 0.3939 0.0000
vn -0.7587 -0.6514 0.0000
vn -0.9996 0.0284 0.0000
vn -0.5652 0.8249 0.0000
vn 0.9390 -0.3440 0.0000
vn -0.9992 0.0392 0.0000
vn 0.9970 -0.0780 0.0000
vn 0.0000 -1.0000 0.0000
vn 0.9586 0.2847 0.0000
vn -0.5767 -0.8170 0.0000
vn 0.7107 0.7035 0.0000
vn -0.9942 -0.1075 0.0000
vn -0.0534 -0.0090 0.9985
vn -0.0265 -0.1287 0.9913
vn -0.0185 -0.2540 0.9670
vn -0.0129 0.0360 0.9993
vn 0.1000 -0.3556 0.9293
vn 0.0365 0.1697 0.9848
vn 0.0542 -0.2246 0.9730
vn 0.0606 0.0355 0.9975
vn -0.9510 -0.1697 -0.2585
vn -0.0534 -0.0090 -0.9985
vn -0.0265 -0.1287 -0.9913
vn -0.0185 -0.2540 -0.9670
vn -0.0129 0.0360 -0.9993
vn 0.1000 -0.3556 -0.9293
vn 0.0365 0.1697 -0.9848
vn 0.0542 -0.2246 -0.9730
vn 0.0606 0.0355 -0.9975
usemtl Material.002
s off
f 26/1/1 9/2/1 8/3/1 25/4/1
f 34/5/2 17/6/2 16/7/2 33/8/2
f 27/9/3 10/10/3 9/2/3 26/1/3
f 20/11/4 18/12/4 1/13/4 3/14/4
f 28/15/5 11/16/5 10/10/5 27/9/5
f 21/17/6 20/11/6 3/14/6 4/18/6
f 21/17/7 4/18/7 17/6/7 34/5/7
f 29/19/8 12/20/8 11/16/8 28/15/8
f 22/21/9 5/22/9 2/23/9 19/24/9
f 30/25/10 13/26/10 12/20/10 29/19/10
f 23/27/11 6/28/11 5/22/11 22/21/11
f 31/29/12 14/30/12 13/26/12 30/25/12
f 24/31/13 7/32/13 6/28/13 23/27/13
f 32/33/14 15/34/14 14/30/14 31/29/14
f 25/4/15 8/3/15 7/32/15 24/31/15
f 33/8/16 16/7/16 15/34/16 32/33/16
f 3/14/17 5/22/17 6/28/17
f 1/13/18 2/23/18 5/22/18 3/14/18
f 11/16/19 8/3/19 9/2/19 10/10/19
f 12/20/20 7/32/20 8/3/20 11/16/20
f 14/30/21 7/32/21 12/20/21 13/26/21
f 15/34/22 6/28/22 7/32/22 14/30/22
f 17/6/23 6/28/23 15/34/23 16/7/23
f 6/28/24 17/6/24 4/18/24 3/14/24
f 26/1/1 25/4/1 42/35/1 43/36/1
f 34/5/2 33/8/2 50/37/2 51/38/2
f 27/9/3 26/1/3 43/36/3 44/39/3
f 20/11/25 37/40/25 35/41/25 18/12/25
f 28/15/5 27/9/5 44/39/5 45/42/5
f 21/17/6 38/43/6 37/40/6 20/11/6
f 21/17/7 34/5/7 51/38/7 38/43/7
f 29/19/8 28/15/8 45/42/8 46/44/8
f 22/21/9 19/24/9 36/45/9 39/46/9
f 30/25/10 29/19/10 46/44/10 47/47/10
f 23/27/11 22/21/11 39/46/11 40/48/11
f 31/29/12 30/25/12 47/47/12 48/49/12
f 24/31/13 23/27/13 40/48/13 41/50/13
f 32/33/14 31/29/14 48/49/14 49/51/14
f 25/4/15 24/31/15 41/50/15 42/35/15
f 33/8/16 32/33/16 49/51/16 50/37/16
f 37/40/26 40/48/26 39/46/26
f 35/41/27 37/40/27 39/46/27 36/45/27
f 45/42/28 44/39/28 43/36/28 42/35/28
f 46/44/29 45/42/29 42/35/29 41/50/29
f 48/49/30 47/47/30 46/44/30 41/50/30
f 49/51/31 48/49/31 41/50/31 40/48/31
f 51/38/32 50/37/32 49/51/32 40/48/32
f 40/48/33 37/40/33 38/43/33 51/38/33
