# Blender v2.79 (sub 0) OBJ File: 'knife20.blend'
# www.blender.org
mtllib knife20_Blade.mtl
o Cube_Cube.007
v 0.442873 7.229356 0.210122
v 0.234966 6.796971 0.210122
v -0.442873 7.229356 0.210122
v 0.000000 1.068873 0.262969
v 0.000000 6.663895 0.210122
v 0.000000 3.065729 0.262969
v -0.234966 6.796971 0.210122
v 0.646808 7.250095 0.000000
v 0.225361 0.997199 0.000000
v 0.414582 6.458807 0.000000
v 0.311371 3.087232 0.000000
v 0.646808 7.250095 0.000000
v 0.225361 0.997199 0.000000
v 0.311371 3.087232 0.000000
v 0.442873 7.229356 -0.210122
v 0.234966 6.796971 -0.210122
v -0.646808 7.250095 0.000000
v -0.225361 0.997199 0.000000
v -0.414582 6.458807 0.000000
v 0.000000 0.003445 0.000000
v -0.311371 3.087232 0.000000
v -0.646808 7.250095 0.000000
v -0.225361 0.997199 0.000000
v -0.311371 3.087232 0.000000
v -0.442873 7.229356 -0.210122
v 0.000000 1.068873 -0.262969
v 0.000000 6.663895 -0.210122
v 0.000000 3.065729 -0.262969
v -0.234966 6.796971 -0.210122
vt 0.113948 0.890130
vt 0.175556 0.863428
vt 0.142885 0.911021
vt 0.113948 0.030795
vt 0.113948 0.169507
vt 0.071733 0.156331
vt 0.167635 0.418446
vt 0.113948 0.415694
vt 0.113948 0.169507
vt 0.156163 0.156332
vt 0.052341 0.863429
vt 0.085012 0.911021
vt 0.059803 0.969205
vt 0.021030 0.967828
vt 0.113948 0.415694
vt 0.060262 0.418446
vt 0.052342 0.863429
vt 0.085012 0.911021
vt 0.059803 0.969205
vt 0.021030 0.967828
vt 0.060262 0.418446
vt 0.113949 0.890130
vt 0.071733 0.156332
vt 0.175556 0.863428
vt 0.206867 0.967828
vt 0.168095 0.969206
vt 0.142885 0.911021
vt 0.206867 0.967828
vt 0.168094 0.969205
vt 0.156163 0.156331
vt 0.167635 0.418446
vn 0.2372 -0.4187 0.8766
vn -0.7263 -0.1647 0.6673
vn -0.6991 -0.0147 -0.7149
vn -0.6284 -0.2260 0.7443
vn -0.6991 -0.0147 0.7149
vn 0.6284 -0.2260 -0.7443
vn 0.5457 -0.0017 -0.8380
vn -0.2371 -0.4187 0.8766
vn 0.7263 -0.1647 -0.6673
vn 0.6991 -0.0147 -0.7149
vn -0.6284 -0.2260 -0.7443
vn -0.2372 -0.4187 -0.8766
vn 0.6284 -0.2260 0.7443
vn 0.2372 -0.4187 -0.8766
vn -0.5457 -0.0017 0.8380
vn 0.7263 -0.1647 0.6673
vn 0.5457 -0.0017 0.8380
vn 0.6991 -0.0147 0.7149
vn -0.7263 -0.1647 -0.6673
vn -0.5457 -0.0017 -0.8380
usemtl Material.006
s off
f 5/1/1 10/2/1 2/3/1
f 20/4/2 4/5/2 18/6/2
f 21/7/3 28/8/3 26/9/3 18/10/3
f 19/11/4 7/12/4 3/13/4 17/14/4
f 6/15/5 21/16/5 18/6/5 4/5/5
f 10/17/6 16/18/6 15/19/6 8/20/6
f 10/17/7 11/21/7 28/8/7 27/22/7
f 7/12/8 19/11/8 5/1/8
f 9/23/9 20/4/9 26/9/9
f 11/21/10 9/23/10 26/9/10 28/8/10
f 19/24/11 17/25/11 25/26/11 29/27/11
f 27/22/12 19/24/12 29/27/12
f 10/2/13 8/28/13 1/29/13 2/3/13
f 27/22/14 16/18/14 10/17/14
f 5/1/15 19/11/15 21/16/15 6/15/15
f 20/4/16 9/30/16 4/5/16
f 10/2/17 5/1/17 6/15/17 11/31/17
f 11/31/18 6/15/18 4/5/18 9/30/18
f 18/10/19 26/9/19 20/4/19
f 19/24/20 27/22/20 28/8/20 21/7/20
l 12 8
l 14 11
l 9 13
l 1 12
l 6 14
l 13 4
l 22 17
l 24 21
l 18 23
l 3 22
l 6 24
l 23 4
l 15 12
l 28 14
l 13 26
l 25 22
l 28 24
l 23 26
