# Blender v2.79 (sub 0) OBJ File: 'knife20.blend'
# www.blender.org
mtllib knife20_Holder.mtl
o Cube.001_Cube.008
v 0.875255 8.063488 0.334045
v 1.089956 7.773308 0.380705
v 0.442873 7.229356 0.210122
v 0.340872 8.309460 0.210122
v 0.092244 8.216375 0.210122
v 0.023840 9.484576 0.142996
v 0.034210 9.982610 0.137989
v 0.122401 10.174584 0.123603
v 0.092692 10.289359 0.157289
v 0.234966 6.796971 0.210122
v -0.875255 8.063488 0.334045
v -1.089956 7.773308 0.380705
v -0.442873 7.229356 0.210122
v 0.000000 6.663895 0.210122
v -0.340872 8.309460 0.210122
v -0.092244 8.216375 0.210122
v -0.023840 9.484576 0.142996
v -0.034210 9.982610 0.137989
v -0.122401 10.174584 0.123603
v -0.092692 10.289359 0.157289
v 0.000000 10.328826 0.178187
v -0.234966 6.796971 0.210122
v 0.000000 9.486920 0.160726
v 0.000000 10.002213 0.164154
v 0.000000 8.116270 0.210122
v 0.947842 8.118793 0.000000
v 1.231673 7.714547 0.000000
v 0.646808 7.250095 0.000000
v 0.285568 8.368220 0.000000
v 0.233962 8.316614 0.000000
v 0.079145 9.494946 0.000000
v 0.079145 10.019604 0.000000
v 0.111757 10.344568 0.000000
v 0.156554 10.176609 0.000000
v 0.875255 8.063488 -0.334045
v 1.089956 7.773308 -0.380705
v 0.442873 7.229356 -0.210122
v 0.340872 8.309460 -0.210122
v 0.092244 8.216375 -0.210122
v 0.023840 9.484576 -0.142996
v 0.034210 9.982610 -0.137989
v 0.122401 10.174584 -0.123603
v 0.092692 10.289359 -0.157289
v 0.234966 6.796971 -0.210122
v -0.947842 8.118793 0.000000
v -1.231673 7.714547 0.000000
v -0.646808 7.250095 0.000000
v -0.285568 8.368220 0.000000
v -0.233962 8.316614 0.000000
v -0.079145 9.494946 0.000000
v -0.079145 10.019604 0.000000
v -0.111757 10.344568 0.000000
v 0.000000 10.374433 0.000000
v -0.156554 10.176609 0.000000
v -0.875255 8.063488 -0.334045
v -1.089956 7.773308 -0.380705
v -0.442873 7.229356 -0.210122
v 0.000000 6.663895 -0.210122
v -0.340872 8.309460 -0.210122
v -0.092244 8.216375 -0.210122
v -0.023840 9.484576 -0.142996
v -0.034210 9.982610 -0.137989
v -0.122401 10.174584 -0.123603
v -0.092692 10.289359 -0.157289
v 0.000000 10.328826 -0.178187
v -0.234966 6.796971 -0.210122
v 0.000000 9.486920 -0.160726
v 0.000000 10.002213 -0.164154
v 0.000000 8.116270 -0.210122
vt 0.682551 0.914565
vt 0.658929 0.950085
vt 0.646472 0.921706
vt 0.656998 0.906180
vt 0.632653 0.923014
vt 0.635965 0.866690
vt 0.646361 0.863064
vt 0.687047 0.412953
vt 0.650322 0.741057
vt 0.643351 0.741087
vt 0.664275 0.385253
vt 0.857644 0.352075
vt 0.758013 0.414289
vt 0.774084 0.161700
vt 0.883036 0.300106
vt 0.684986 0.033039
vt 0.734392 0.064991
vt 0.638413 0.410093
vt 0.567780 0.403102
vt 0.581423 0.150370
vt 0.632176 0.058980
vt 0.681928 0.872620
vt 0.686784 0.746814
vt 0.584090 0.908776
vt 0.610449 0.903443
vt 0.619084 0.920096
vt 0.603386 0.946819
vt 0.918328 0.404030
vt 0.966600 0.284845
vt 0.577658 0.455621
vt 0.560333 0.453729
vt 0.626067 0.861870
vt 0.636432 0.740240
vt 0.476127 0.329641
vt 0.457000 0.275054
vt 0.584088 0.908775
vt 0.610448 0.903442
vt 0.619082 0.920095
vt 0.603384 0.946818
vt 0.626065 0.861870
vt 0.635964 0.866689
vt 0.632652 0.923013
vt 0.638413 0.410093
vt 0.664275 0.385253
vt 0.643350 0.741086
vt 0.636432 0.740239
vt 0.476127 0.329640
vt 0.457001 0.275053
vt 0.581423 0.150370
vt 0.567779 0.403102
vt 0.684987 0.033039
vt 0.734393 0.064990
vt 0.774085 0.161699
vt 0.758013 0.414288
vt 0.687047 0.412952
vt 0.632176 0.058979
vt 0.742047 0.465287
vt 0.759475 0.465438
vt 0.742047 0.465287
vt 0.851075 0.146681
vt 0.682550 0.914565
vt 0.658928 0.950084
vt 0.646470 0.921705
vt 0.656997 0.906179
vt 0.759475 0.465439
vt 0.646360 0.863063
vt 0.650321 0.741057
vt 0.857644 0.352075
vt 0.883036 0.300106
vt 0.589625 0.867193
vt 0.599547 0.741684
vt 0.918328 0.404030
vt 0.409772 0.374126
vt 0.375800 0.250105
vt 0.506723 0.126432
vt 0.851076 0.146681
vt 0.966600 0.284845
vt 0.686783 0.746813
vt 0.681926 0.872620
vt 0.589624 0.867192
vt 0.599546 0.741683
vt 0.577658 0.455621
vt 0.409772 0.374125
vt 0.375800 0.250104
vt 0.506723 0.126431
vt 0.630653 0.957000
vt 0.560333 0.453728
vn 0.9484 0.2231 0.2252
vn 0.3549 -0.0972 0.9298
vn 0.1122 0.0467 0.9926
vn -0.2367 -0.0216 0.9713
vn 0.6019 -0.0049 0.7985
vn -0.0000 0.0000 1.0000
vn 0.9423 -0.0079 0.3348
vn -0.9484 0.2231 0.2252
vn 0.7827 0.5775 0.2319
vn 0.4210 0.8736 0.2440
vn -0.3549 -0.0972 0.9298
vn -0.1122 0.0467 0.9926
vn 0.2367 -0.0216 0.9713
vn -0.6019 -0.0049 0.7985
vn 0.9484 0.2231 -0.2252
vn 0.3549 -0.0972 -0.9298
vn 0.1122 0.0467 -0.9926
vn -0.2367 -0.0216 -0.9713
vn 0.6019 -0.0049 -0.7985
vn 0.0000 0.0000 -1.0000
vn 0.4210 0.8736 -0.2440
vn 0.8570 0.0921 0.5070
vn 0.5562 -0.7426 0.3732
vn -0.9484 0.2231 -0.2252
vn 0.3566 0.9120 0.2025
vn -0.4210 0.8736 0.2440
vn -0.3549 -0.0972 -0.9298
vn -0.1122 0.0467 -0.9926
vn 0.2367 -0.0216 -0.9713
vn -0.6019 -0.0049 -0.7985
vn -0.8872 -0.4125 0.2067
vn -0.9423 -0.0079 0.3348
vn -0.8570 0.0921 0.5070
vn -0.3566 0.9120 -0.2025
vn -0.7827 0.5775 0.2319
vn -0.5562 -0.7426 0.3732
vn -0.5562 -0.7426 -0.3732
vn -0.7827 0.5775 -0.2319
vn -0.3566 0.9120 0.2025
vn -0.8570 0.0921 -0.5070
vn -0.8872 -0.4125 -0.2067
vn -0.9423 -0.0079 -0.3348
vn 0.9423 -0.0079 -0.3348
vn 0.8872 -0.4125 -0.2067
vn 0.8872 -0.4125 0.2067
vn 0.8570 0.0921 -0.5070
vn 0.7827 0.5775 -0.2319
vn 0.5562 -0.7426 -0.3732
vn 0.3338 0.8974 -0.2886
vn -0.3338 0.8974 -0.2886
vn -0.3338 0.8974 0.2886
vn 0.3338 0.8974 0.2886
vn -0.4210 0.8736 -0.2440
vn 0.3566 0.9120 -0.2025
usemtl Material.006
s off
f 34/1/1 33/2/1 9/3/1 8/4/1
f 8/4/2 9/3/2 21/5/2 24/6/2 7/7/2
f 5/8/3 6/9/3 23/10/3 25/11/3
f 1/12/4 4/13/4 3/14/4 2/15/4
f 6/9/5 7/7/5 24/6/5 23/10/5
f 14/16/6 10/17/6 3/14/6 4/13/6 5/8/6 25/11/6 16/18/6 15/19/6 13/20/6 22/21/6
f 32/22/7 7/7/7 6/9/7 31/23/7
f 54/24/8 19/25/8 20/26/8 52/27/8
f 26/28/9 1/12/9 2/15/9 27/29/9
f 49/30/10 48/31/10 15/19/10 16/18/10
f 19/25/11 18/32/11 24/6/11 21/5/11 20/26/11
f 16/18/12 25/11/12 23/10/12 17/33/12
f 11/34/13 12/35/13 13/20/13 15/19/13
f 17/33/14 23/10/14 24/6/14 18/32/14
f 34/36/15 42/37/15 43/38/15 33/39/15
f 42/37/16 41/40/16 68/41/16 65/42/16 43/38/16
f 39/43/17 69/44/17 67/45/17 40/46/17
f 35/47/18 36/48/18 37/49/18 38/50/18
f 40/46/19 67/45/19 68/41/19 41/40/19
f 58/51/20 66/52/20 57/53/20 59/54/20 60/55/20 69/44/20 39/43/20 38/50/20 37/49/20 44/56/20
f 49/57/21 60/55/21 59/54/21 48/58/21
f 31/23/22 6/9/22 5/8/22 30/59/22
f 27/29/23 2/15/23 3/14/23 28/60/23
f 54/61/24 52/62/24 64/63/24 63/64/24
f 29/65/25 4/13/25 1/12/25 26/28/25
f 30/59/26 5/8/26 4/13/26 29/65/26
f 63/64/27 64/63/27 65/42/27 68/41/27 62/66/27
f 60/55/28 61/67/28 67/45/28 69/44/28
f 55/68/29 59/54/29 57/53/29 56/69/29
f 61/67/30 62/66/30 68/41/30 67/45/30
f 54/24/31 51/70/31 18/32/31 19/25/31
f 51/70/32 50/71/32 17/33/32 18/32/32
f 16/18/33 17/33/33 50/71/33 49/30/33
f 48/58/34 59/54/34 55/68/34 45/72/34
f 11/34/35 45/73/35 46/74/35 12/35/35
f 13/20/36 12/35/36 46/74/36 47/75/36
f 57/53/37 47/76/37 46/77/37 56/69/37
f 55/68/38 56/69/38 46/77/38 45/72/38
f 48/31/39 45/73/39 11/34/39 15/19/39
f 60/55/40 49/57/40 50/78/40 61/67/40
f 54/61/41 63/64/41 62/66/41 51/79/41
f 51/79/42 62/66/42 61/67/42 50/78/42
f 40/46/43 41/40/43 32/80/43 31/81/43
f 42/37/44 34/36/44 32/80/44 41/40/44
f 7/7/45 32/22/45 34/1/45 8/4/45
f 39/43/46 40/46/46 31/81/46 30/82/46
f 35/47/47 26/83/47 27/84/47 36/48/47
f 37/49/48 36/48/48 27/84/48 28/85/48
f 65/42/49 53/86/49 33/39/49 43/38/49
f 65/42/50 64/63/50 52/62/50 53/86/50
f 21/5/51 53/86/51 52/27/51 20/26/51
f 21/5/52 9/3/52 33/2/52 53/86/52
f 30/82/53 29/87/53 38/50/53 39/43/53
f 29/87/54 26/83/54 35/47/54 38/50/54
