# Blender v2.79 (sub 0) OBJ File: 'knife9.blend'
# www.blender.org
mtllib knife9_Blade.mtl
o Cube_Cube.008
v 0.023923 3.956364 0.133762
v 0.150800 3.636822 0.133761
v 0.150800 3.580432 0.133761
v 0.075613 3.538139 0.133761
v -0.235353 0.725530 0.133761
v -0.546625 1.460141 0.094543
v -0.554074 4.059746 0.094543
v -0.235353 3.499912 0.133761
v 0.023923 3.956364 0.000000
v 0.150800 3.636822 0.000000
v 0.150800 3.580432 0.000000
v 0.075613 3.538139 0.000000
v 0.195442 0.653641 0.000000
v -0.235353 0.725530 0.000000
v -0.546625 1.460141 0.000000
v 0.018816 -0.018816 0.000000
v 0.140618 0.215053 0.000000
v -0.554074 4.059746 0.000000
v 0.023923 3.956364 -0.133762
v 0.150800 3.636822 -0.133761
v 0.150800 3.580432 -0.133761
v 0.075613 3.538139 -0.133761
v -0.235353 0.725530 -0.133761
v -0.546625 1.460141 -0.094543
v -0.554074 4.059746 -0.094543
v -0.235353 3.499912 -0.133761
vt 0.052730 0.362050
vt 0.075274 0.365600
vt 0.071435 0.998962
vt 0.046966 0.998766
vt 0.238118 0.979161
vt 0.208719 0.973359
vt 0.223658 0.906652
vt 0.253031 0.903598
vt 0.250916 0.889108
vt 0.224900 0.896107
vt 0.214944 0.886630
vt 0.239529 0.866071
vt 0.190755 -0.001027
vt 0.142992 0.191454
vt 0.113171 0.180008
vt 0.154149 0.860193
vt 0.251464 0.165635
vt 0.229994 0.057114
vt 0.071435 0.998962
vt 0.075274 0.365600
vt 0.223658 0.906652
vt 0.208719 0.973359
vt 0.214944 0.886630
vt 0.224900 0.896107
vt 0.142992 0.191454
vt 0.154149 0.860193
vn -1.0000 -0.0029 0.0000
vn 0.9294 0.3690 0.0000
vn 0.4903 -0.8716 0.0000
vn 1.0000 0.0000 0.0000
vn -0.9463 -0.3231 0.0000
vn -0.9208 -0.3901 0.0000
vn 0.1220 -0.9925 0.0000
vn 0.3395 0.0072 0.9406
vn 0.2531 -0.0665 0.9652
vn -0.1239 -0.0002 0.9923
vn -0.0184 0.0518 0.9985
vn -0.0728 -0.0289 0.9969
vn 0.3395 0.0072 -0.9406
vn 0.2531 -0.0665 -0.9652
vn -0.1239 -0.0002 -0.9923
vn -0.0184 0.0518 -0.9985
vn -0.0728 -0.0289 -0.9969
usemtl Material.004
s off
f 15/1/1 6/2/1 7/3/1 18/4/1
f 9/5/2 1/6/2 2/7/2 10/8/2
f 11/9/3 3/10/3 4/11/3 12/12/3
f 10/8/4 2/7/4 3/10/4 11/9/4
f 16/13/5 5/14/5 14/15/5
f 15/1/6 14/15/6 5/14/6 6/2/6
f 4/11/7 8/16/7 12/12/7
f 12/12/8 8/16/8 5/14/8 13/17/8
f 17/18/9 13/17/9 5/14/9 16/13/9
f 5/14/10 8/16/10 7/3/10 6/2/10
f 4/11/11 3/10/11 2/7/11 7/3/11 8/16/11
f 2/7/12 1/6/12 7/3/12
f 15/1/1 18/4/1 25/19/1 24/20/1
f 9/5/2 10/8/2 20/21/2 19/22/2
f 11/9/3 12/12/3 22/23/3 21/24/3
f 10/8/4 11/9/4 21/24/4 20/21/4
f 16/13/5 14/15/5 23/25/5
f 15/1/6 24/20/6 23/25/6 14/15/6
f 22/23/7 12/12/7 26/26/7
f 12/12/13 13/17/13 23/25/13 26/26/13
f 17/18/14 16/13/14 23/25/14 13/17/14
f 23/25/15 24/20/15 25/19/15 26/26/15
f 22/23/16 26/26/16 25/19/16 20/21/16 21/24/16
f 20/21/17 25/19/17 19/22/17
