# This file was created with Minddesk Qubicle 3.0
# Get Qubicle at www.getqubicle.com

mtllib sceneObject2.mtl

vn 0.0 0.0 1.0
vn 0.0 0.0 -1.0
vn -1.0 0.0 0.0
vn 1.0 0.0 0.0
vn 0.0 1.0 0.0
vn 0.0 -1.0 0.0

v 2.00000 -1.50000 -8.00000
v 2.00000 -12.50000 -8.00000
v -3.00000 -12.50000 -8.00000
v -3.00000 -1.50000 -8.00000
v -1.00000 10.50000 -9.00000
v -1.00000 2.50000 -9.00000
v -4.00000 2.50000 -9.00000
v -4.00000 10.50000 -9.00000
v 3.00000 3.50000 -4.00000
v 3.00000 -2.50000 -4.00000
v 2.00000 -2.50000 -4.00000
v 2.00000 3.50000 -4.00000
v 3.00000 6.50000 -4.00000
v 0.00000 3.50000 -4.00000
v 0.00000 6.50000 -4.00000
v 2.00000 0.50000 -8.00000
v -2.00000 -1.50000 -8.00000
v -2.00000 0.50000 -8.00000
v -1.00000 0.50000 -9.00000
v -3.00000 0.50000 -9.00000
v -3.00000 2.50000 -9.00000
v -3.00000 2.50000 -8.00000
v -3.00000 0.50000 -8.00000
v -4.00000 0.50000 -8.00000
v -4.00000 2.50000 -8.00000
v -2.00000 0.50000 -7.00000
v -2.00000 -1.50000 -7.00000
v -3.00000 -1.50000 -7.00000
v -3.00000 0.50000 -7.00000
v 2.00000 1.50000 -8.00000
v -1.00000 0.50000 -8.00000
v -1.00000 1.50000 -8.00000
v -1.00000 11.50000 -9.00000
v -3.00000 10.50000 -9.00000
v -3.00000 11.50000 -9.00000
v 1.00000 2.50000 -8.00000
v 1.00000 1.50000 -8.00000
v -1.00000 2.50000 -8.00000
v 3.00000 7.50000 -4.00000
v 1.00000 6.50000 -4.00000
v 1.00000 7.50000 -4.00000
v -3.00000 11.50000 -8.00000
v -3.00000 10.50000 -8.00000
v -4.00000 10.50000 -8.00000
v -4.00000 11.50000 -8.00000
v 0.00000 3.50000 -8.00000
v 0.00000 2.50000 -8.00000
v -1.00000 3.50000 -8.00000
v 1.00000 3.50000 -7.00000
v 1.00000 2.50000 -7.00000
v 0.00000 2.50000 -7.00000
v 0.00000 3.50000 -7.00000
v 2.00000 2.50000 -7.00000
v 2.00000 1.50000 -7.00000
v 1.00000 1.50000 -7.00000
v 2.00000 3.50000 -6.00000
v 2.00000 2.50000 -6.00000
v 1.00000 2.50000 -6.00000
v 1.00000 3.50000 -6.00000
v 1.00000 7.50000 -3.00000
v 1.00000 6.50000 -3.00000
v 0.00000 6.50000 -3.00000
v 0.00000 7.50000 -3.00000
v -3.00000 -2.50000 -3.00000
v -3.00000 -12.50000 -3.00000
v 2.00000 -12.50000 -3.00000
v 2.00000 -2.50000 -3.00000
v -4.00000 10.50000 -6.00000
v -4.00000 3.50000 -6.00000
v -1.00000 3.50000 -6.00000
v -1.00000 10.50000 -6.00000
v 0.00000 6.50000 -1.00000
v 0.00000 -1.50000 -1.00000
v 3.00000 -1.50000 -1.00000
v 3.00000 6.50000 -1.00000
v -2.00000 2.50000 -3.00000
v -2.00000 -1.50000 -3.00000
v 0.00000 -1.50000 -3.00000
v 0.00000 2.50000 -3.00000
v -3.00000 2.50000 -4.00000
v -3.00000 -1.50000 -4.00000
v -2.00000 -1.50000 -4.00000
v -2.00000 2.50000 -4.00000
v -4.00000 2.50000 -6.00000
v -4.00000 0.50000 -6.00000
v -3.00000 0.50000 -6.00000
v -3.00000 2.50000 -6.00000
v -3.00000 -1.50000 -3.00000
v 0.00000 -2.50000 -3.00000
v -2.00000 2.50000 -6.00000
v -2.00000 3.50000 -6.00000
v -4.00000 11.50000 -6.00000
v -2.00000 10.50000 -6.00000
v -2.00000 11.50000 -6.00000
v -2.00000 3.50000 -4.00000
v 0.00000 2.50000 -4.00000
v 0.00000 7.50000 -1.00000
v 2.00000 6.50000 -1.00000
v 2.00000 7.50000 -1.00000
v -2.00000 11.50000 -7.00000
v -2.00000 10.50000 -7.00000
v -1.00000 10.50000 -7.00000
v -1.00000 11.50000 -7.00000
v 0.00000 -1.50000 -2.00000
v 0.00000 -2.50000 -2.00000
v 1.00000 -2.50000 -2.00000
v 1.00000 -1.50000 -2.00000
v 2.00000 -1.50000 -2.00000
v 2.00000 -2.50000 -2.00000
v 3.00000 -2.50000 -2.00000
v 3.00000 -1.50000 -2.00000
v 2.00000 7.50000 -2.00000
v 2.00000 6.50000 -2.00000
v 3.00000 6.50000 -2.00000
v 3.00000 7.50000 -2.00000
v 1.00000 -1.50000 -1.00000
v 1.00000 -2.50000 -1.00000
v 2.00000 -2.50000 -1.00000
v 2.00000 -1.50000 -1.00000
v 0.00000 2.50000 -1.00000
v -3.00000 0.50000 -4.00000
v 2.00000 -2.50000 -8.00000
v -1.00000 3.50000 -9.00000
v 3.00000 -1.50000 -4.00000
v 2.00000 1.50000 -4.00000
v 2.00000 2.50000 -4.00000
v -4.00000 11.50000 -7.00000
v -1.00000 11.50000 -8.00000
v 0.00000 7.50000 -2.00000
v 3.00000 7.50000 -3.00000
v -1.00000 3.50000 -7.00000
v 3.00000 -2.50000 -3.00000
v -4.00000 0.50000 -7.00000

vt 0.00781 0.35938
vt 0.00781 0.01563
vt 0.08594 0.01563
vt 0.08594 0.35938
vt 0.10156 0.35938
vt 0.10156 0.01563
vt 0.17969 0.01563
vt 0.17969 0.35938
vt 0.19531 0.32813
vt 0.19531 0.01563
vt 0.27344 0.01563
vt 0.27344 0.32813
vt 0.28906 0.32813
vt 0.28906 0.01563
vt 0.36719 0.01563
vt 0.36719 0.32813
vt 0.38281 0.26563
vt 0.38281 0.01563
vt 0.42969 0.01563
vt 0.42969 0.26563
vt 0.44531 0.26563
vt 0.44531 0.01563
vt 0.49219 0.01563
vt 0.49219 0.26563
vt 0.50781 0.26563
vt 0.50781 0.01563
vt 0.55469 0.01563
vt 0.55469 0.26563
vt 0.57031 0.26563
vt 0.57031 0.01563
vt 0.61719 0.01563
vt 0.61719 0.26563
vt 0.63281 0.23438
vt 0.63281 0.01563
vt 0.67969 0.01563
vt 0.67969 0.23438
vt 0.69531 0.23438
vt 0.69531 0.01563
vt 0.74219 0.01563
vt 0.74219 0.23438
vt 0.75781 0.20313
vt 0.75781 0.01563
vt 0.77344 0.01563
vt 0.77344 0.20313
vt 0.78906 0.17188
vt 0.78906 0.01563
vt 0.86719 0.01563
vt 0.86719 0.17188
vt 0.88281 0.14063
vt 0.88281 0.01563
vt 0.94531 0.01563
vt 0.94531 0.14063
vt 0.00781 0.51563
vt 0.00781 0.39063
vt 0.05469 0.39063
vt 0.05469 0.51563
vt 0.96094 0.14063
vt 0.96094 0.01563
vt 0.99219 0.01563
vt 0.99219 0.14063
vt 0.07031 0.51563
vt 0.07031 0.39063
vt 0.10156 0.39063
vt 0.10156 0.51563
vt 0.11719 0.51563
vt 0.11719 0.39063
vt 0.13281 0.39063
vt 0.13281 0.51563
vt 0.14844 0.51563
vt 0.14844 0.39063
vt 0.16406 0.39063
vt 0.16406 0.51563
vt 0.17969 0.48438
vt 0.17969 0.39063
vt 0.22656 0.39063
vt 0.22656 0.48438
vt 0.24219 0.48438
vt 0.24219 0.39063
vt 0.25781 0.39063
vt 0.25781 0.48438
vt 0.27344 0.45313
vt 0.27344 0.39063
vt 0.33594 0.39063
vt 0.33594 0.45313
vt 0.35156 0.45313
vt 0.35156 0.39063
vt 0.41406 0.39063
vt 0.41406 0.45313
vt 0.42969 0.45313
vt 0.42969 0.39063
vt 0.47656 0.39063
vt 0.47656 0.45313
vt 0.49219 0.45313
vt 0.49219 0.39063
vt 0.52344 0.39063
vt 0.52344 0.45313
vt 0.53906 0.45313
vt 0.53906 0.39063
vt 0.57031 0.39063
vt 0.57031 0.45313
vt 0.58594 0.45313
vt 0.58594 0.39063
vt 0.61719 0.39063
vt 0.61719 0.45313
vt 0.63281 0.45313
vt 0.63281 0.39063
vt 0.64844 0.39063
vt 0.64844 0.45313
vt 0.66406 0.45313
vt 0.66406 0.39063
vt 0.67969 0.39063
vt 0.67969 0.45313
vt 0.69531 0.45313
vt 0.69531 0.39063
vt 0.71094 0.39063
vt 0.71094 0.45313
vt 0.72656 0.45313
vt 0.72656 0.39063
vt 0.74219 0.39063
vt 0.74219 0.45313
vt 0.75781 0.45313
vt 0.75781 0.39063
vt 0.77344 0.39063
vt 0.77344 0.45313
vt 0.78906 0.45313
vt 0.78906 0.39063
vt 0.80469 0.39063
vt 0.80469 0.45313
vt 0.38281 0.32813
vt 0.38281 0.29688
vt 0.42969 0.29688
vt 0.42969 0.32813
vt 0.44531 0.32813
vt 0.44531 0.29688
vt 0.49219 0.29688
vt 0.49219 0.32813
vt 0.50781 0.32813
vt 0.50781 0.29688
vt 0.55469 0.29688
vt 0.55469 0.32813
vt 0.57031 0.32813
vt 0.57031 0.29688
vt 0.61719 0.29688
vt 0.61719 0.32813
vt 0.63281 0.32813
vt 0.63281 0.29688
vt 0.67969 0.29688
vt 0.67969 0.32813
vt 0.69531 0.32813
vt 0.69531 0.29688
vt 0.74219 0.29688
vt 0.74219 0.32813
vt 0.75781 0.32813
vt 0.75781 0.29688
vt 0.78906 0.29688
vt 0.78906 0.32813
vt 0.80469 0.32813
vt 0.80469 0.29688
vt 0.83594 0.29688
vt 0.83594 0.32813
vt 0.85156 0.32813
vt 0.85156 0.29688
vt 0.88281 0.29688
vt 0.88281 0.32813
vt 0.89844 0.32813
vt 0.89844 0.29688
vt 0.92969 0.29688
vt 0.92969 0.32813
vt 0.94531 0.32813
vt 0.94531 0.29688
vt 0.97656 0.29688
vt 0.97656 0.32813
vt 0.82031 0.42188
vt 0.82031 0.39063
vt 0.85156 0.39063
vt 0.85156 0.42188
vt 0.86719 0.42188
vt 0.86719 0.39063
vt 0.89844 0.39063
vt 0.89844 0.42188
vt 0.91406 0.42188
vt 0.91406 0.39063
vt 0.94531 0.39063
vt 0.94531 0.42188
vt 0.96094 0.42188
vt 0.96094 0.39063
vt 0.99219 0.39063
vt 0.99219 0.42188
vt 0.00781 0.57813
vt 0.00781 0.54688
vt 0.03906 0.54688
vt 0.03906 0.57813
vt 0.05469 0.57813
vt 0.05469 0.54688
vt 0.08594 0.54688
vt 0.08594 0.57813
vt 0.10156 0.57813
vt 0.10156 0.54688
vt 0.13281 0.54688
vt 0.13281 0.57813
vt 0.14844 0.57813
vt 0.14844 0.54688
vt 0.17969 0.54688
vt 0.17969 0.57813
vt 0.19531 0.57813
vt 0.19531 0.54688
vt 0.22656 0.54688
vt 0.22656 0.57813
vt 0.24219 0.57813
vt 0.24219 0.54688
vt 0.27344 0.54688
vt 0.27344 0.57813
vt 0.28906 0.57813
vt 0.28906 0.54688
vt 0.32031 0.54688
vt 0.32031 0.57813
vt 0.33594 0.57813
vt 0.33594 0.54688
vt 0.36719 0.54688
vt 0.36719 0.57813
vt 0.38281 0.57813
vt 0.38281 0.54688
vt 0.41406 0.54688
vt 0.41406 0.57813
vt 0.42969 0.57813
vt 0.42969 0.54688
vt 0.46094 0.54688
vt 0.46094 0.57813
vt 0.47656 0.57813
vt 0.47656 0.54688
vt 0.50781 0.54688
vt 0.50781 0.57813
vt 0.52344 0.57813
vt 0.52344 0.54688
vt 0.55469 0.54688
vt 0.55469 0.57813
vt 0.57031 0.57813
vt 0.57031 0.54688
vt 0.60156 0.54688
vt 0.60156 0.57813
vt 0.61719 0.57813
vt 0.61719 0.54688
vt 0.63281 0.54688
vt 0.63281 0.57813
vt 0.64844 0.57813
vt 0.64844 0.54688
vt 0.66406 0.54688
vt 0.66406 0.57813
vt 0.67969 0.57813
vt 0.67969 0.54688
vt 0.69531 0.54688
vt 0.69531 0.57813
vt 0.71094 0.57813
vt 0.71094 0.54688
vt 0.72656 0.54688
vt 0.72656 0.57813
vt 0.74219 0.57813
vt 0.74219 0.54688
vt 0.75781 0.54688
vt 0.75781 0.57813
vt 0.77344 0.57813
vt 0.77344 0.54688
vt 0.78906 0.54688
vt 0.78906 0.57813
vt 0.80469 0.57813
vt 0.80469 0.54688
vt 0.82031 0.54688
vt 0.82031 0.57813
vt 0.83594 0.57813
vt 0.83594 0.54688
vt 0.85156 0.54688
vt 0.85156 0.57813
vt 0.86719 0.57813
vt 0.86719 0.54688
vt 0.88281 0.54688
vt 0.88281 0.57813
vt 0.89844 0.57813
vt 0.89844 0.54688
vt 0.91406 0.54688
vt 0.91406 0.57813
vt 0.92969 0.57813
vt 0.92969 0.54688
vt 0.94531 0.54688
vt 0.94531 0.57813
vt 0.96094 0.57813
vt 0.96094 0.54688
vt 0.97656 0.54688
vt 0.97656 0.57813
vt 0.00781 0.64063
vt 0.00781 0.60938
vt 0.02344 0.60938
vt 0.02344 0.64063
vt 0.03906 0.64063
vt 0.03906 0.60938
vt 0.05469 0.60938
vt 0.05469 0.64063
vt 0.07031 0.64063
vt 0.07031 0.60938
vt 0.08594 0.60938
vt 0.08594 0.64063
vt 0.10156 0.64063
vt 0.10156 0.60938
vt 0.11719 0.60938
vt 0.11719 0.64063
vt 0.13281 0.64063
vt 0.13281 0.60938
vt 0.14844 0.60938
vt 0.14844 0.64063
vt 0.16406 0.64063
vt 0.16406 0.60938
vt 0.17969 0.60938
vt 0.17969 0.64063
vt 0.19531 0.64063
vt 0.19531 0.60938
vt 0.21094 0.60938
vt 0.21094 0.64063
vt 0.22656 0.64063
vt 0.22656 0.60938
vt 0.24219 0.60938
vt 0.24219 0.64063
vt 0.25781 0.64063
vt 0.25781 0.60938
vt 0.27344 0.60938
vt 0.27344 0.64063
vt 0.28906 0.64063
vt 0.28906 0.60938
vt 0.30469 0.60938
vt 0.30469 0.64063
vt 0.32031 0.64063
vt 0.32031 0.60938
vt 0.33594 0.60938
vt 0.33594 0.64063
vt 0.35156 0.64063
vt 0.35156 0.60938
vt 0.36719 0.60938
vt 0.36719 0.64063
vt 0.38281 0.64063
vt 0.38281 0.60938
vt 0.39844 0.60938
vt 0.39844 0.64063
vt 0.41406 0.64063
vt 0.41406 0.60938
vt 0.42969 0.60938
vt 0.42969 0.64063
vt 0.44531 0.64063
vt 0.44531 0.60938
vt 0.46094 0.60938
vt 0.46094 0.64063
vt 0.47656 0.64063
vt 0.47656 0.60938
vt 0.49219 0.60938
vt 0.49219 0.64063
vt 0.50781 0.64063
vt 0.50781 0.60938
vt 0.52344 0.60938
vt 0.52344 0.64063
vt 0.53906 0.64063
vt 0.53906 0.60938
vt 0.55469 0.60938
vt 0.55469 0.64063
vt 0.57031 0.64063
vt 0.57031 0.60938
vt 0.58594 0.60938
vt 0.58594 0.64063
vt 0.60156 0.64063
vt 0.60156 0.60938
vt 0.61719 0.60938
vt 0.61719 0.64063
vt 0.63281 0.64063
vt 0.63281 0.60938
vt 0.64844 0.60938
vt 0.64844 0.64063
vt 0.66406 0.64063
vt 0.66406 0.60938
vt 0.67969 0.60938
vt 0.67969 0.64063
vt 0.69531 0.64063
vt 0.69531 0.60938
vt 0.71094 0.60938
vt 0.71094 0.64063
vt 0.72656 0.64063
vt 0.72656 0.60938
vt 0.74219 0.60938
vt 0.74219 0.64063
vt 0.75781 0.64063
vt 0.75781 0.60938
vt 0.77344 0.60938
vt 0.77344 0.64063

g Matrix
usemtl sceneObject2_Material
f 1/5/2 2/6/2 3/7/2 4/8/2
f 5/29/2 6/30/2 7/31/2 8/32/2
f 9/41/2 10/42/2 11/43/2 12/44/2
f 13/73/2 9/74/2 14/75/2 15/76/2
f 16/85/2 1/86/2 17/87/2 18/88/2
f 6/101/2 19/102/2 20/103/2 21/104/2
f 22/113/2 23/114/2 24/115/2 25/116/2
f 26/109/2 27/110/2 28/111/2 29/112/2
f 30/145/2 16/146/2 31/147/2 32/148/2
f 33/201/2 5/202/2 34/203/2 35/204/2
f 36/197/2 37/198/2 32/199/2 38/200/2
f 39/209/2 13/210/2 40/211/2 41/212/2
f 42/241/2 43/242/2 44/243/2 45/244/2
f 46/261/2 47/262/2 38/263/2 48/264/2
f 49/265/2 50/266/2 51/267/2 52/268/2
f 53/257/2 54/258/2 55/259/2 50/260/2
f 56/253/2 57/254/2 58/255/2 59/256/2
f 60/249/2 61/250/2 62/251/2 63/252/2
f 64/13/1 65/14/1 66/15/1 67/16/1
f 68/33/1 69/34/1 70/35/1 71/36/1
f 72/21/1 73/22/1 74/23/1 75/24/1
f 76/57/1 77/58/1 78/59/1 79/60/1
f 80/69/1 81/70/1 82/71/1 83/72/1
f 84/105/1 85/106/1 86/107/1 87/108/1
f 88/133/1 64/134/1 89/135/1 78/136/1
f 69/177/1 84/178/1 90/179/1 91/180/1
f 92/165/1 68/166/1 93/167/1 94/168/1
f 95/153/1 83/154/1 96/155/1 14/156/1
f 97/161/1 72/162/1 98/163/1 99/164/1
f 100/245/1 101/246/1 102/247/1 103/248/1
f 104/345/1 105/346/1 106/347/1 107/348/1
f 108/349/1 109/350/1 110/351/1 111/352/1
f 112/353/1 113/354/1 114/355/1 115/356/1
f 116/341/1 117/342/1 118/343/1 119/344/1
f 4/1/3 3/2/3 65/3/3 88/4/3
f 8/25/3 7/26/3 84/27/3 68/28/3
f 15/53/3 96/54/3 120/55/3 72/56/3
f 79/61/3 78/62/3 73/63/3 120/64/3
f 83/65/3 82/66/3 77/67/3 76/68/3
f 29/89/3 28/90/3 81/91/3 121/92/3
f 25/97/3 24/98/3 85/99/3 84/100/3
f 87/93/3 86/94/3 121/95/3 80/96/3
f 21/117/3 20/118/3 23/119/3 22/120/3
f 18/121/3 17/122/3 27/123/3 26/124/3
f 45/173/3 44/174/3 68/175/3 92/176/3
f 91/169/3 90/170/3 83/171/3 95/172/3
f 63/157/3 62/158/3 72/159/3 97/160/3
f 35/329/3 34/330/3 43/331/3 42/332/3
f 41/333/3 40/334/3 61/335/3 60/336/3
f 78/337/3 89/338/3 105/339/3 104/340/3
f 107/357/3 106/358/3 117/359/3 116/360/3
f 67/9/4 66/10/4 2/11/4 122/12/4
f 71/37/4 70/38/4 123/39/4 5/40/4
f 75/17/4 74/18/4 124/19/4 13/20/4
f 125/49/4 11/50/4 122/51/4 30/52/4
f 48/77/4 31/78/4 19/79/4 123/80/4
f 126/129/4 125/130/4 54/131/4 53/132/4
f 103/221/4 102/222/4 5/223/4 33/224/4
f 12/225/4 126/226/4 57/227/4 56/228/4
f 111/217/4 110/218/4 10/219/4 124/220/4
f 115/229/4 114/230/4 13/231/4 39/232/4
f 52/377/4 51/378/4 47/379/4 46/380/4
f 50/381/4 55/382/4 37/383/4 36/384/4
f 94/385/4 93/386/4 101/387/4 100/388/4
f 59/373/4 58/374/4 50/375/4 49/376/4
f 119/361/4 118/362/4 109/363/4 108/364/4
f 99/365/4 98/366/4 113/367/4 112/368/4
f 91/81/5 95/82/5 12/83/5 56/84/5
f 87/125/5 80/126/5 83/127/5 90/128/5
f 45/137/5 127/138/5 103/139/5 128/140/5
f 63/141/5 129/142/5 115/143/5 130/144/5
f 35/213/5 42/214/5 128/215/5 33/216/5
f 127/189/5 92/190/5 94/191/5 100/192/5
f 131/193/5 70/194/5 59/195/5 49/196/5
f 83/181/5 76/182/5 79/183/5 96/184/5
f 41/185/5 60/186/5 130/187/5 39/188/5
f 129/205/5 97/206/5 99/207/5 112/208/5
f 8/369/5 44/370/5 43/371/5 34/372/5
f 4/285/5 28/286/5 27/287/5 17/288/5
f 48/289/5 131/290/5 52/291/5 46/292/5
f 47/293/5 51/294/5 50/295/5 36/296/5
f 37/281/5 55/282/5 54/283/5 30/284/5
f 101/269/5 93/270/5 71/271/5 102/272/5
f 50/273/5 58/274/5 57/275/5 53/276/5
f 81/277/5 88/278/5 77/279/5 82/280/5
f 15/297/5 62/298/5 61/299/5 40/300/5
f 113/317/5 98/318/5 75/319/5 114/320/5
f 65/45/6 3/46/6 2/47/6 66/48/6
f 105/149/6 89/150/6 132/151/6 110/152/6
f 23/237/6 20/238/6 19/239/6 31/240/6
f 133/233/6 24/234/6 18/235/6 26/236/6
f 25/321/6 7/322/6 21/323/6 22/324/6
f 85/325/6 133/326/6 29/327/6 86/328/6
f 67/313/6 11/314/6 10/315/6 132/316/6
f 73/301/6 104/302/6 107/303/6 116/304/6
f 117/305/6 106/306/6 109/307/6 118/308/6
f 119/309/6 108/310/6 111/311/6 74/312/6
